<svg width="24" height="24" viewBox="0 0 24 24" fill="none" xmlns="http://www.w3.org/2000/svg">
<rect width="24" height="24" fill="white"/>
<rect width="24" height="24" fill="#70737C" fill-opacity="0.16"/>
<path fill-rule="evenodd" clip-rule="evenodd" d="M11.5368 6.18487C11.6772 6.10807 11.8354 6.06641 11.9984 6.06641C12.1614 6.06641 12.3196 6.10807 12.46 6.18487L18.0719 9.25962C18.2394 9.35154 18.373 9.48855 18.463 9.64825C18.5529 9.80768 18.5983 9.98703 18.5983 10.1668C18.5983 10.173 18.5983 10.1793 18.5982 10.1855C18.5983 10.1903 18.5983 10.195 18.5983 10.1998V14.1998H17.3983V11.4429L16.5983 11.8811V15.3331C16.5983 15.5603 16.4699 15.7681 16.2667 15.8697L12.2667 17.8697C12.0978 17.9542 11.899 17.9542 11.7301 17.8697L7.73009 15.8697C7.52682 15.7681 7.39842 15.5603 7.39842 15.3331V11.8805L5.92487 11.0732C5.75733 10.9813 5.6238 10.8443 5.53377 10.6846C5.44391 10.5251 5.39844 10.3458 5.39844 10.1661C5.39844 9.98632 5.44391 9.80697 5.53377 9.64754C5.6238 9.48784 5.75704 9.35099 5.92458 9.25907L11.5368 6.18487ZM11.9984 7.30026L6.76661 10.1661L11.9984 13.0326L17.2302 10.1667L11.9984 7.30026ZM12.4603 14.1478L15.3983 12.5384V14.9623L11.9984 16.6623L8.59841 14.9623V12.538L11.5364 14.1477C11.6768 14.2245 11.8354 14.2664 11.9984 14.2664C12.1614 14.2664 12.3199 14.2246 12.4603 14.1478Z" fill="white"/>
</svg>
