<svg width="24" height="24" viewBox="0 0 24 24" fill="none" xmlns="http://www.w3.org/2000/svg">
<rect width="24" height="24" fill="white"/>
<rect width="24" height="24" fill="#70737C" fill-opacity="0.16"/>
<path fill-rule="evenodd" clip-rule="evenodd" d="M6.8543 5.42967C7.07634 5.39982 7.34698 5.39986 7.63191 5.39991H12.3663C12.6512 5.39986 12.9218 5.39982 13.1439 5.42967C13.392 5.46302 13.6671 5.54322 13.8948 5.77091C14.1224 5.9986 14.2026 6.2737 14.236 6.52178C14.2658 6.74382 14.2658 7.01447 14.2658 7.2994L14.2658 10.7332H16.3663C16.6512 10.7332 16.9218 10.7331 17.1439 10.763C17.392 10.7964 17.6671 10.8765 17.8948 11.1042C18.1224 11.3319 18.2026 11.607 18.236 11.8551C18.2658 12.0771 18.2658 12.3478 18.2658 12.6327L18.2658 18.5999H5.73243L5.73243 7.29939C5.73238 7.01447 5.73233 6.74382 5.76219 6.52178C5.79554 6.2737 5.87573 5.9986 6.10343 5.77091C6.33112 5.54322 6.60622 5.46302 6.8543 5.42967ZM6.93241 6.66644C6.93241 6.62962 6.96226 6.59977 6.99908 6.59977H12.9991C13.0359 6.59977 13.0657 6.62962 13.0657 6.66644V17.3998H10.5991V14.6664H9.39908V17.3998H6.93241V6.66644ZM14.2657 17.3998H17.0658V11.9998C17.0658 11.963 17.0359 11.9331 16.9991 11.9331H14.2657L14.2657 17.3998ZM11.6658 11.9332H8.33244V10.7332H11.6658V11.9332ZM11.6658 9.26657H8.33244V8.06657H11.6658V9.26657Z" fill="white"/>
</svg>
