<svg width="24" height="24" viewBox="0 0 24 24" fill="none" xmlns="http://www.w3.org/2000/svg">
<rect width="24" height="24" fill="white"/>
<g opacity="0.185">
<path fill-rule="evenodd" clip-rule="evenodd" d="M12.5068 12.6817C14.5356 12.8089 16.4312 13.4671 17.6356 14.3213C17.6421 14.326 17.6487 14.3307 17.6555 14.3354C17.7565 14.4068 17.8796 14.4937 17.9938 14.6386C18.088 14.758 18.1714 14.9194 18.2143 15.0654C18.2667 15.2434 18.2663 15.4142 18.2659 15.5556C18.2659 15.5671 18.2659 15.5785 18.2659 15.5896L18.2659 16.62C18.2659 16.7895 18.2659 16.9509 18.2548 17.0869C18.2427 17.2351 18.2144 17.4052 18.1278 17.5752C18.0064 17.8135 17.8126 18.0073 17.5742 18.1287C17.4043 18.2153 17.2342 18.2436 17.0859 18.2557C16.9499 18.2668 16.7886 18.2668 16.619 18.2668H7.37938C7.20983 18.2668 7.04847 18.2668 6.91249 18.2557C6.76422 18.2436 6.59415 18.2153 6.42417 18.1287C6.18583 18.0073 5.99205 17.8135 5.87061 17.5752C5.784 17.4052 5.75574 17.2351 5.74363 17.0869C5.73252 16.9509 5.73254 16.7895 5.73255 16.62C5.73255 16.6134 5.73255 16.6068 5.73255 16.6001V15.6047C5.73255 15.5928 5.73252 15.5806 5.73249 15.5683C5.73211 15.4231 5.73165 15.249 5.78251 15.0733C5.82506 14.9263 5.90309 14.7725 5.99661 14.6514C6.10803 14.5071 6.23806 14.4125 6.34504 14.3346C6.35326 14.3286 6.36134 14.3227 6.36926 14.3169C8.22766 12.9576 10.4703 12.5541 12.5068 12.6817Z" fill="white"/>
<path fill-rule="evenodd" clip-rule="evenodd" d="M8.8807 8.85192C8.8807 7.12961 10.2769 5.7334 11.9992 5.7334C13.7215 5.7334 15.1177 7.12961 15.1177 8.85192C15.1177 10.5742 13.7215 11.9704 11.9992 11.9704C10.2769 11.9704 8.8807 10.5742 8.8807 8.85192Z" fill="white"/>
</g>
<path fill-rule="evenodd" clip-rule="evenodd" d="M24 0H0V24H24V0ZM12.0001 5.73332C10.2778 5.73332 8.88159 7.12953 8.88159 8.85184C8.88159 10.5741 10.2778 11.9704 12.0001 11.9704C13.7224 11.9704 15.1186 10.5741 15.1186 8.85184C15.1186 7.12953 13.7224 5.73332 12.0001 5.73332ZM17.6365 14.3213C16.4321 13.467 14.5365 12.8088 12.5077 12.6817C10.4712 12.554 8.22855 12.9575 6.37016 14.3169L6.34593 14.3345C6.23895 14.4124 6.10892 14.507 5.99751 14.6513C5.90399 14.7725 5.82595 14.9262 5.7834 15.0732C5.73254 15.2489 5.733 15.423 5.73338 15.5682L5.73345 15.6046V16.6L5.73345 16.6199V16.6199C5.73343 16.7894 5.73341 16.9508 5.74452 17.0868C5.75664 17.235 5.78489 17.4051 5.8715 17.5751C5.99294 17.8134 6.18672 18.0072 6.42506 18.1287C6.59504 18.2153 6.76511 18.2435 6.91339 18.2556C7.04936 18.2667 7.21072 18.2667 7.38027 18.2667H16.6199C16.7895 18.2667 16.9508 18.2667 17.0868 18.2556C17.2351 18.2435 17.4052 18.2153 17.5751 18.1287C17.8135 18.0072 18.0073 17.8134 18.1287 17.5751C18.2153 17.4051 18.2436 17.235 18.2557 17.0868C18.2668 16.9508 18.2668 16.7894 18.2668 16.6199L18.2667 15.5895L18.2668 15.5555V15.5555C18.2672 15.4141 18.2676 15.2433 18.2152 15.0653C18.1723 14.9193 18.0889 14.758 17.9947 14.6385C17.8805 14.4937 17.7574 14.4067 17.6564 14.3353L17.6365 14.3213Z" fill="#8C9196" fill-opacity="0.205"/>
</svg>
