<svg width="24" height="24" viewBox="0 0 24 24" fill="none" xmlns="http://www.w3.org/2000/svg">
<path d="M22.2029 6.87739C21.958 5.96149 21.2338 5.23729 20.3179 4.99234C18.6565 4.54504 12.0002 4.54504 12.0002 4.54504C12.0002 4.54504 5.34397 4.54504 3.68257 4.99234C2.76667 5.23729 2.04247 5.96149 1.79752 6.87739C1.35022 8.53879 1.35022 12 1.35022 12C1.35022 12 1.35022 15.4613 1.79752 17.1227C2.04247 18.0386 2.76667 18.7628 3.68257 19.0077C5.34397 19.455 12.0002 19.455 12.0002 19.455C12.0002 19.455 18.6565 19.455 20.3179 19.0077C21.2338 18.7628 21.958 18.0386 22.2029 17.1227C22.6502 15.4613 22.6502 12 22.6502 12C22.6502 12 22.6502 8.53879 22.2029 6.87739Z" fill="#FF0000"/>
<path d="M9.87024 15.1951V8.80505L15.4082 12.0001L9.87024 15.1951Z" fill="white"/>
</svg>
