<svg width="24" height="24" viewBox="0 0 24 24" fill="none" xmlns="http://www.w3.org/2000/svg">
<path fill-rule="evenodd" clip-rule="evenodd" d="M12.0005 3.1543C6.7959 3.1543 2.5719 6.43544 2.5719 10.4709C2.5719 12.9883 4.20304 15.1852 6.69219 16.524L5.64561 20.3614C5.62587 20.4378 5.62993 20.5183 5.65726 20.5923C5.68459 20.6662 5.73388 20.73 5.79852 20.7752C5.86316 20.8203 5.94005 20.8446 6.01889 20.8448C6.09773 20.845 6.17475 20.8211 6.23961 20.7763L10.8219 17.7309C11.2085 17.7309 11.6045 17.7969 12.0005 17.7969C17.205 17.7969 21.429 14.5157 21.429 10.4709C21.429 6.42601 17.205 3.1543 12.0005 3.1543Z" fill="black"/>
</svg>
