<svg width="24" height="24" viewBox="0 0 24 24" fill="none" xmlns="http://www.w3.org/2000/svg">
<path d="M18.4945 4.07996H5.5057C3.6247 4.07996 2.1001 5.60456 2.1001 7.48556V15.5442C2.1001 17.4252 3.6247 18.9498 5.5057 18.9498H10.0993L11.6635 21.6525C11.8021 21.9 12.1684 21.9 12.307 21.6525L13.8712 18.9498H18.4945C20.3755 18.9498 21.9001 17.4252 21.9001 15.5442V7.48556C21.9001 5.60456 20.3755 4.07996 18.4945 4.07996Z" fill="#00C73C"/>
<path fill-rule="evenodd" clip-rule="evenodd" d="M5.70366 13.3364C5.98086 13.6037 6.32736 13.7621 6.70356 13.7621C7.73316 13.7621 8.57466 12.9008 8.57466 11.8217C8.57466 10.7426 7.73316 9.87144 6.70356 9.87144C6.31746 9.87144 5.98086 10.0298 5.70366 10.2971V8.73294H4.58496V13.6631H5.70366V13.3364ZM9.25776 13.6631H10.3864V10.4159C10.3864 9.15864 9.40626 8.66364 8.65386 8.61414V9.61404C8.96076 9.62394 9.25776 9.88134 9.25776 10.4258V13.6631ZM11.02 11.8118C11.02 12.8909 11.8912 13.7621 12.9703 13.7621C14.0494 13.7621 14.9206 12.8909 14.9206 11.8118C14.9206 10.7327 14.0494 9.86154 12.9703 9.86154C11.8912 9.86154 11.02 10.7327 11.02 11.8118ZM17.4649 15.2471C18.2569 15.2174 19.4053 14.8907 19.4053 13.3859V9.99024H18.3262V10.3268C18.049 10.0496 17.6926 9.88134 17.2966 9.88134C16.267 9.88134 15.4255 10.7228 15.4255 11.7524C15.4255 12.782 16.267 13.6235 17.2966 13.6235C17.6926 13.6235 18.049 13.4552 18.3262 13.178V13.2473C18.3361 13.871 18.1777 14.2175 17.4649 14.2571V15.2471ZM17.4352 12.6632C17.9599 12.6632 18.3856 12.2474 18.3856 11.7425C18.3856 11.2376 17.9599 10.8218 17.4352 10.8218C16.9105 10.8218 16.4848 11.2376 16.4848 11.7425C16.4848 12.2474 16.9105 12.6632 17.4352 12.6632ZM6.5749 12.782C7.1095 12.782 7.5352 12.3464 7.5352 11.8217C7.5352 11.2871 7.1095 10.8614 6.5749 10.8614C6.0403 10.8614 5.6146 11.2871 5.6146 11.8217C5.6146 12.3563 6.0403 12.782 6.5749 12.782ZM12.9703 12.7424C13.4752 12.7424 13.891 12.3266 13.891 11.8217C13.891 11.3168 13.4752 10.901 12.9703 10.901C12.4654 10.901 12.0496 11.3168 12.0496 11.8217C12.0496 12.3266 12.4654 12.7424 12.9703 12.7424Z" fill="white"/>
</svg>
