<svg width="24" height="24" viewBox="0 0 24 24" fill="none" xmlns="http://www.w3.org/2000/svg">
<path fill-rule="evenodd" clip-rule="evenodd" d="M22.0002 12C22.0002 17.5228 17.5231 22 12.0002 22C6.4774 22 2.00024 17.5228 2.00024 12C2.00024 6.47715 6.4774 2 12.0002 2C17.5231 2 22.0002 6.47715 22.0002 12ZM12.0001 12.0001C13.8411 12.0001 15.3335 10.5077 15.3335 8.66678C15.3335 6.82583 13.8411 5.33345 12.0001 5.33345C10.1592 5.33345 8.66679 6.82583 8.66679 8.66678C8.66679 10.5077 10.1592 12.0001 12.0001 12.0001ZM12.0003 13.6666C9.2753 13.6666 6.86697 14.9791 5.34613 16.9999C6.86697 19.0207 9.27947 20.3332 12.0003 20.3332C14.7211 20.3332 17.1336 19.0207 18.6545 16.9999C17.1336 14.9791 14.7211 13.6666 12.0003 13.6666Z" fill="currentColor"/>
</svg>
