<svg width="24" height="24" viewBox="0 0 24 24" fill="none" xmlns="http://www.w3.org/2000/svg">
<path d="M7.36665 2.6001C6.97516 2.60008 6.62864 2.60007 6.34149 2.62353C6.03571 2.64851 5.71886 2.70452 5.4104 2.86169C4.95881 3.09178 4.59166 3.45893 4.36156 3.91052C4.2044 4.21898 4.14839 4.53583 4.1234 4.84161C4.09994 5.12876 4.09996 5.47523 4.09998 5.86672L4.09998 21.5001C4.09998 21.8252 4.27529 22.125 4.5586 22.2844C4.84191 22.4439 5.18918 22.4381 5.46706 22.2694L12 18.303L18.5329 22.2694C18.8108 22.4381 19.158 22.4439 19.4414 22.2844C19.7247 22.125 19.9 21.8252 19.9 21.5001L19.9 5.86676C19.9 5.4753 19.9 5.12875 19.8766 4.84161C19.8516 4.53583 19.7956 4.21898 19.6384 3.91052C19.4083 3.45893 19.0411 3.09178 18.5896 2.86169C18.2811 2.70452 17.9642 2.64851 17.6585 2.62353C17.3713 2.60007 17.0248 2.60008 16.6334 2.6001H7.36665Z" fill="currentColor"/>
</svg>
