<svg width="24" height="24" viewBox="0 0 24 24" fill="none" xmlns="http://www.w3.org/2000/svg">
<path fill-rule="evenodd" clip-rule="evenodd" d="M13.975 2.42718C12.8893 1.3251 11.1114 1.32502 10.0257 2.42717L8.9127 3.55694C8.72826 3.74416 8.47585 3.84872 8.21306 3.84675L6.62719 3.83488C5.08012 3.8233 3.82304 5.08038 3.83463 6.62744L3.8465 8.21331C3.84847 8.47611 3.74392 8.7285 3.5567 8.91294L2.42693 10.026C1.32482 11.1117 1.32481 12.8895 2.42693 13.9752L3.55665 15.0881C3.74389 15.2726 3.84847 15.5251 3.8465 15.7879L3.83463 17.3737C3.82304 18.9208 5.08015 20.1778 6.62714 20.1663L8.21298 20.1544C8.47584 20.1525 8.72828 20.257 8.91265 20.4442L10.0257 21.574C11.1115 22.6761 12.8892 22.6761 13.975 21.574L15.0879 20.4442C15.2723 20.257 15.5247 20.1525 15.7876 20.1544L17.3734 20.1663C18.9204 20.1778 20.1775 18.9207 20.166 17.3738L20.1541 15.7879C20.1522 15.5251 20.2567 15.2726 20.4439 15.0882L21.5737 13.9753C22.6758 12.8895 22.6758 11.1117 21.5737 10.026L20.444 8.91296C20.2568 8.72858 20.1522 8.47619 20.1541 8.21332L20.166 6.62745C20.1775 5.08046 18.9205 3.8233 17.3735 3.83488L15.7876 3.84675C15.5248 3.84872 15.2724 3.7442 15.0879 3.55697L13.975 2.42718ZM11.308 3.69037C11.6886 3.30402 12.312 3.30395 12.6927 3.6904L13.8056 4.82017C14.3317 5.35408 15.0515 5.65231 15.8011 5.6467L17.3869 5.63483C17.9293 5.63077 18.3701 6.07148 18.3661 6.61396L18.3542 8.19983C18.3486 8.94923 18.6467 9.66916 19.1807 10.1952L20.3105 11.3082C20.6969 11.6889 20.6969 12.3123 20.3105 12.693L19.1807 13.8059C18.6468 14.332 18.3486 15.0518 18.3542 15.8013L18.3661 17.3872C18.3701 17.9295 17.9293 18.3703 17.3869 18.3663L15.8011 18.3544C15.0516 18.3489 14.3317 18.647 13.8056 19.181L12.6927 20.3108C12.312 20.6972 11.6887 20.6972 11.308 20.3108L10.195 19.181C9.66894 18.647 8.94907 18.3489 8.19966 18.3544L6.61375 18.3663C6.07127 18.3703 5.63052 17.9295 5.63458 17.3872L5.64644 15.8013C5.65206 15.0518 5.35388 14.332 4.81997 13.8059L3.69016 12.6929C3.30374 12.3123 3.30373 11.6889 3.69016 11.3083L4.81992 10.1952C5.35387 9.66921 5.65206 8.94935 5.64644 8.19984L5.63458 6.61397C5.63051 6.07153 6.07127 5.63077 6.61371 5.63483L8.19958 5.6467C8.94909 5.65231 9.66893 5.35415 10.195 4.8202L11.308 3.69037Z" fill="currentColor"/>
<path d="M11.6416 7.72737C11.7883 7.43007 12.2122 7.43007 12.359 7.72737L13.3767 9.78945C13.4349 9.90751 13.5476 9.98934 13.6778 10.0083L15.9535 10.3389C16.2816 10.3866 16.4126 10.7898 16.1752 11.0212L14.5285 12.6263C14.4342 12.7182 14.3912 12.8506 14.4135 12.9804L14.8022 15.2468C14.8582 15.5736 14.5153 15.8228 14.2218 15.6685L12.1864 14.5984C12.0699 14.5372 11.9307 14.5372 11.8141 14.5984L9.77874 15.6685C9.48529 15.8228 9.14232 15.5736 9.19837 15.2468L9.58709 12.9804C9.60935 12.8506 9.56633 12.7182 9.47205 12.6263L7.82538 11.0212C7.58797 10.7898 7.71898 10.3866 8.04707 10.3389L10.3227 10.0083C10.453 9.98934 10.5656 9.90751 10.6239 9.78945L11.6416 7.72737Z" fill="currentColor"/>
</svg>
