<svg width="24" height="24" viewBox="0 0 24 24" fill="none" xmlns="http://www.w3.org/2000/svg">
<path fill-rule="evenodd" clip-rule="evenodd" d="M9.61139 2.3501H14.3893C15.4764 2.35009 16.3471 2.35008 17.0508 2.40758C17.7735 2.46663 18.3991 2.59076 18.9749 2.88417C19.8969 3.35395 20.6465 4.10355 21.1163 5.02554C21.4097 5.60139 21.5338 6.22695 21.5929 6.94962C21.6504 7.65339 21.6503 8.52407 21.6503 9.61115V14.3891C21.6503 15.4761 21.6504 16.3468 21.5929 17.0506C21.5338 17.7732 21.4097 18.3988 21.1163 18.9747C20.6465 19.8966 19.8969 20.6462 18.9749 21.116C18.3991 21.4094 17.7735 21.5336 17.0508 21.5926C16.3471 21.6501 15.4764 21.6501 14.3893 21.6501H9.61139C8.52431 21.6501 7.65363 21.6501 6.94986 21.5926C6.2272 21.5336 5.60163 21.4094 5.02579 21.116C4.10379 20.6462 3.35419 19.8966 2.88441 18.9747C2.591 18.3988 2.46687 17.7732 2.40783 17.0506C2.35033 16.3468 2.35033 15.4761 2.35034 14.389V9.61115C2.35033 8.52407 2.35033 7.65339 2.40783 6.94962C2.46687 6.22695 2.591 5.60139 2.88441 5.02554C3.35419 4.10355 4.10379 3.35395 5.02579 2.88417C5.60163 2.59076 6.2272 2.46663 6.94986 2.40758C7.65364 2.35008 8.52432 2.35009 9.61139 2.3501ZM7.09644 4.20161C6.48509 4.25156 6.12277 4.34541 5.84297 4.48798C5.25967 4.78519 4.78543 5.25942 4.48822 5.84273C4.34566 6.12253 4.2518 6.48484 4.20185 7.09619C4.15104 7.71805 4.15034 8.51514 4.15034 9.6501V14.3501C4.15034 15.4851 4.15104 16.2821 4.20185 16.904C4.2518 17.5154 4.34566 17.8777 4.48822 18.1575C4.78543 18.7408 5.25967 19.215 5.84297 19.5122C6.12277 19.6548 6.48509 19.7486 7.09644 19.7986C7.7183 19.8494 8.51539 19.8501 9.65034 19.8501H14.3503C15.4853 19.8501 16.2824 19.8494 16.9042 19.7986C17.5156 19.7486 17.8779 19.6548 18.1577 19.5122C18.741 19.215 19.2153 18.7408 19.5125 18.1575C19.655 17.8777 19.7489 17.5154 19.7988 16.904C19.8496 16.2821 19.8503 15.4851 19.8503 14.3501V9.6501C19.8503 8.51514 19.8496 7.71805 19.7988 7.09619C19.7489 6.48484 19.655 6.12253 19.5125 5.84273C19.2153 5.25942 18.741 4.78519 18.1577 4.48798C17.8779 4.34541 17.5156 4.25156 16.9042 4.20161C16.2824 4.1508 15.4853 4.1501 14.3503 4.1501H9.65034C8.51539 4.1501 7.7183 4.1508 7.09644 4.20161Z" fill="currentColor"/>
</svg>
