<svg width="24" height="24" viewBox="0 0 24 24" fill="none" xmlns="http://www.w3.org/2000/svg">
<path d="M10.0001 10.0001C10.0001 10.5524 9.55238 11.0001 9.0001 11.0001C8.44781 11.0001 8.0001 10.5524 8.0001 10.0001C8.0001 9.44781 8.44781 9.0001 9.0001 9.0001C9.55238 9.0001 10.0001 9.44781 10.0001 10.0001Z" fill="currentColor"/>
<path d="M16.0001 10.0001C16.0001 10.5524 15.5524 11.0001 15.0001 11.0001C14.4478 11.0001 14.0001 10.5524 14.0001 10.0001C14.0001 9.44781 14.4478 9.0001 15.0001 9.0001C15.5524 9.0001 16.0001 9.44781 16.0001 10.0001Z" fill="currentColor"/>
<path fill-rule="evenodd" clip-rule="evenodd" d="M8.548 13.0219C8.97779 12.7723 9.52862 12.9183 9.7783 13.348C10.2345 14.1333 11.0851 14.6601 12.0501 14.6601C13.0151 14.6601 13.8657 14.1333 14.3219 13.348C14.5716 12.9183 15.1224 12.7723 15.5522 13.0219C15.982 13.2716 16.128 13.8225 15.8783 14.2522C15.1145 15.5669 13.6851 16.4601 12.0501 16.4601C10.4151 16.4601 8.98567 15.5669 8.22189 14.2522C7.9722 13.8225 8.11821 13.2716 8.548 13.0219Z" fill="currentColor"/>
<path fill-rule="evenodd" clip-rule="evenodd" d="M12.0001 3.9001C7.52659 3.9001 3.9001 7.52659 3.9001 12.0001C3.9001 16.4736 7.52659 20.1001 12.0001 20.1001C16.4736 20.1001 20.1001 16.4736 20.1001 12.0001C20.1001 7.52659 16.4736 3.9001 12.0001 3.9001ZM2.1001 12.0001C2.1001 6.53248 6.53248 2.1001 12.0001 2.1001C17.4677 2.1001 21.9001 6.53248 21.9001 12.0001C21.9001 17.4677 17.4677 21.9001 12.0001 21.9001C6.53248 21.9001 2.1001 17.4677 2.1001 12.0001Z" fill="currentColor"/>
</svg>
