<svg width="24" height="24" viewBox="0 0 24 24" fill="none" xmlns="http://www.w3.org/2000/svg">
<path d="M15.7178 7.72438L7.22951 2.80299C6.91174 2.61085 6.53484 2.5 6.12838 2.5C5.29885 2.5 4.57987 2.97902 4.22909 3.67049L12.0034 11.4407L15.7178 7.72438Z" fill="currentColor"/>
<path d="M4.00087 4.57346C4.00033 4.59165 4.00006 4.60997 4.00006 4.62842V19.3865C4.00006 19.407 4.00031 19.4273 4.00083 19.4475L11.4379 12.0066L4.00087 4.57346Z" fill="currentColor"/>
<path d="M4.23542 20.3445C4.58846 21.032 5.30381 21.5001 6.12838 21.5001C6.52006 21.5001 6.88956 21.3966 7.20734 21.2045L7.22951 21.1897L15.7238 16.2903L12.0037 12.5721L4.23542 20.3445Z" fill="currentColor"/>
<path d="M16.4487 15.8837L19.8962 13.8956C20.5613 13.5335 21.0121 12.8314 21.0121 12.0259C21.0121 11.2204 20.5687 10.5183 19.9036 10.1636V10.1562H19.8962L16.4334 8.14012L12.5692 12.0063L16.4487 15.8837Z" fill="currentColor"/>
</svg>
