<svg width="12" height="24" viewBox="0 0 12 24" fill="none" xmlns="http://www.w3.org/2000/svg">
<path d="M7.75024 4.75C7.75024 5.7165 6.96674 6.5 6.00024 6.5C5.03375 6.5 4.25024 5.7165 4.25024 4.75C4.25024 3.7835 5.03375 3 6.00024 3C6.96674 3 7.75024 3.7835 7.75024 4.75Z" fill="currentColor"/>
<path d="M7.75024 12C7.75024 12.9665 6.96674 13.75 6.00024 13.75C5.03375 13.75 4.25024 12.9665 4.25024 12C4.25024 11.0335 5.03375 10.25 6.00024 10.25C6.96674 10.25 7.75024 11.0335 7.75024 12Z" fill="currentColor"/>
<path d="M6.00024 21C6.96674 21 7.75024 20.2165 7.75024 19.25C7.75024 18.2835 6.96674 17.5 6.00024 17.5C5.03375 17.5 4.25024 18.2835 4.25024 19.25C4.25024 20.2165 5.03375 21 6.00024 21Z" fill="currentColor"/>
</svg>
