<svg width="24" height="24" viewBox="0 0 24 24" fill="none" xmlns="http://www.w3.org/2000/svg">
<path fill-rule="evenodd" clip-rule="evenodd" d="M13.9751 2.42718C12.8894 1.3251 11.1116 1.32502 10.0259 2.42717L8.91283 3.55694C8.72839 3.74416 8.47598 3.84872 8.21319 3.84675L6.62731 3.83488C5.08025 3.8233 3.82317 5.08038 3.83475 6.62744L3.84662 8.21331C3.84859 8.47611 3.74404 8.7285 3.55683 8.91294L2.42705 10.026C1.32494 11.1117 1.32493 12.8895 2.42705 13.9752L3.55678 15.0881C3.74401 15.2726 3.84859 15.5251 3.84662 15.7879L3.83475 17.3737C3.82317 18.9208 5.08027 20.1778 6.62726 20.1663L8.2131 20.1544C8.47597 20.1525 8.72841 20.257 8.91278 20.4442L10.0259 21.574C11.1116 22.6761 12.8893 22.6761 13.9751 21.574L15.088 20.4442C15.2725 20.257 15.5249 20.1525 15.7877 20.1544L17.3736 20.1663C18.9206 20.1778 20.1776 18.9207 20.1661 17.3738L20.1543 15.7879C20.1523 15.5251 20.2569 15.2726 20.4441 15.0882L21.5739 13.9753C22.676 12.8895 22.676 11.1117 21.5739 10.026L20.4441 8.91296C20.2569 8.72858 20.1523 8.47619 20.1543 8.21332L20.1661 6.62745C20.1776 5.08046 18.9206 3.8233 17.3736 3.83488L15.7877 3.84675C15.525 3.84872 15.2726 3.7442 15.088 3.55697L13.9751 2.42718ZM11.3082 3.69037C11.6887 3.30402 12.3121 3.30395 12.6928 3.6904L13.8057 4.82017C14.3318 5.35408 15.0517 5.65231 15.8012 5.6467L17.3871 5.63483C17.9294 5.63077 18.3702 6.07148 18.3662 6.61396L18.3543 8.19983C18.3488 8.94923 18.6468 9.66916 19.1809 10.1952L20.3106 11.3082C20.6971 11.6889 20.6971 12.3123 20.3106 12.693L19.1809 13.8059C18.6469 14.332 18.3488 15.0518 18.3543 15.8013L18.3662 17.3872C18.3702 17.9295 17.9295 18.3703 17.3871 18.3663L15.8012 18.3544C15.0518 18.3489 14.3319 18.647 13.8058 19.181L12.6928 20.3108C12.3121 20.6972 11.6888 20.6972 11.3081 20.3108L10.1951 19.181C9.66907 18.647 8.94919 18.3489 8.19979 18.3544L6.61388 18.3663C6.0714 18.3703 5.63064 17.9295 5.6347 17.3872L5.64657 15.8013C5.65218 15.0518 5.35401 14.332 4.8201 13.8059L3.69028 12.6929C3.30386 12.3123 3.30385 11.6889 3.69028 11.3083L4.82005 10.1952C5.354 9.66921 5.65218 8.94935 5.64657 8.19984L5.6347 6.61397C5.63064 6.07153 6.0714 5.63077 6.61383 5.63483L8.19971 5.6467C8.94922 5.65231 9.66906 5.35415 10.1951 4.8202L11.3082 3.69037ZM16.6257 10.1479L15.3752 8.85325L10.824 13.2493L8.62571 11.126L7.37517 12.4206L10.824 15.7519L16.6257 10.1479Z" fill="currentColor"/>
</svg>
