<svg width="24" height="24" viewBox="0 0 24 24" fill="none" xmlns="http://www.w3.org/2000/svg">
<path fill-rule="evenodd" clip-rule="evenodd" d="M12.0002 3.98846C11.9731 4.03466 11.9445 4.08389 11.9138 4.13657L9.60521 8.10012C9.59875 8.11121 9.59158 8.12384 9.58365 8.13778C9.50598 8.27441 9.35631 8.53772 9.10746 8.71852C8.85861 8.89932 8.56194 8.9603 8.40799 8.99195C8.39228 8.99518 8.37805 8.9981 8.36552 9.00082L3.88257 9.97158C3.82298 9.98448 3.7673 9.99655 3.715 10.008C3.75058 10.048 3.78854 10.0905 3.82916 10.1359L6.88534 13.5563C6.89389 13.5659 6.90368 13.5766 6.91449 13.5885C7.02043 13.7045 7.22461 13.9283 7.31966 14.2208C7.41471 14.5134 7.38103 14.8143 7.36355 14.9705C7.36177 14.9865 7.36016 15.0009 7.35886 15.0137L6.89681 19.5772C6.89067 19.6378 6.88493 19.6945 6.87966 19.7478C6.92869 19.7263 6.98084 19.7034 7.03663 19.6788L11.234 17.8291C11.2457 17.824 11.259 17.818 11.2736 17.8113C11.4167 17.7465 11.6926 17.6214 12.0002 17.6214C12.3078 17.6214 12.5836 17.7465 12.7268 17.8113C12.7414 17.818 12.7546 17.824 12.7664 17.8291L16.9637 19.6788C17.0195 19.7034 17.0717 19.7263 17.1207 19.7478C17.1154 19.6945 17.1097 19.6378 17.1036 19.5772L16.6415 15.0137C16.6402 15.0009 16.6386 14.9865 16.6368 14.9705C16.6193 14.8143 16.5857 14.5133 16.6807 14.2208C16.7758 13.9283 16.9799 13.7045 17.0859 13.5885C17.0967 13.5766 17.1065 13.5659 17.115 13.5563L20.1712 10.1359C20.2118 10.0905 20.2498 10.048 20.2854 10.008C20.2331 9.99655 20.1774 9.98449 20.1178 9.97158L15.6348 9.00082C15.6223 8.9981 15.6081 8.99518 15.5924 8.99195C15.4384 8.9603 15.1418 8.89932 14.8929 8.71852C14.6441 8.53772 14.4944 8.27442 14.4167 8.13778C14.4088 8.12384 14.4016 8.11121 14.3952 8.10012L12.0866 4.13657C12.0559 4.08389 12.0272 4.03466 12.0002 3.98846ZM10.9018 2.3787C11.0911 2.1421 11.4422 1.79346 12.0002 1.79346C12.5582 1.79346 12.9093 2.1421 13.0986 2.3787C13.2732 2.59691 13.4468 2.89524 13.6154 3.18502C13.6243 3.20025 13.6332 3.21546 13.642 3.23063L15.9506 7.19419C15.9586 7.20795 15.9659 7.22057 15.9727 7.23225C15.986 7.23512 16.0002 7.23822 16.0158 7.24159L20.4988 8.21236C20.5159 8.21607 20.5331 8.21979 20.5503 8.22351C20.878 8.29436 21.2154 8.3673 21.4769 8.46592C21.7604 8.57286 22.2005 8.79904 22.3729 9.3297C22.5454 9.86036 22.3223 10.302 22.1558 10.5552C22.0022 10.7887 21.7721 11.046 21.5486 11.2959C21.5369 11.3091 21.5251 11.3222 21.5134 11.3353L18.4573 14.7556C18.4467 14.7675 18.4369 14.7784 18.4279 14.7885C18.4293 14.802 18.4307 14.8165 18.4323 14.8324L18.8944 19.3959C18.8962 19.4133 18.8979 19.4308 18.8997 19.4483C18.9336 19.7819 18.9685 20.1253 18.9555 20.4045C18.9414 20.7072 18.8623 21.1956 18.4109 21.5236C17.9595 21.8516 17.4705 21.7759 17.1783 21.6957C16.9088 21.6218 16.593 21.4825 16.2862 21.3472C16.2701 21.3401 16.254 21.333 16.2379 21.3259L12.0405 19.4763C12.0259 19.4699 12.0126 19.464 12.0002 19.4585C11.9878 19.464 11.9744 19.4699 11.9599 19.4763L7.76247 21.3259C7.7464 21.333 7.73029 21.3401 7.71416 21.3472C7.4074 21.4825 7.09159 21.6218 6.82208 21.6957C6.52985 21.7759 6.04088 21.8516 5.58947 21.5236C5.13806 21.1956 5.05894 20.7072 5.04486 20.4045C5.03186 20.1253 5.06675 19.7819 5.10064 19.4484C5.10242 19.4308 5.1042 19.4133 5.10597 19.3959L5.56802 14.8324C5.56962 14.8165 5.57109 14.802 5.57244 14.7885C5.56344 14.7784 5.55371 14.7675 5.5431 14.7556L2.48692 11.3353C2.47522 11.3222 2.4635 11.3091 2.45176 11.2959C2.22827 11.046 1.99819 10.7887 1.84461 10.5552C1.67809 10.302 1.45501 9.86036 1.62743 9.3297C1.79985 8.79904 2.23993 8.57286 2.52346 8.46592C2.78494 8.3673 3.12232 8.29436 3.45004 8.22351C3.46726 8.21979 3.48446 8.21607 3.50161 8.21236L7.98456 7.24159C8.00013 7.23822 8.01441 7.23513 8.02762 7.23225C8.03444 7.22057 8.04179 7.20795 8.04981 7.19419L10.3584 3.23063C10.3672 3.21546 10.3761 3.20026 10.3849 3.18503C10.5536 2.89525 10.7272 2.59692 10.9018 2.3787Z" fill="currentColor"/>
</svg>
