<svg width="24" height="24" viewBox="0 0 24 24" fill="none" xmlns="http://www.w3.org/2000/svg">
<path fill-rule="evenodd" clip-rule="evenodd" d="M9.91457 1.85059H9.94997H14.05H14.0854H14.0854H14.0854C14.6153 1.85057 15.0664 1.85056 15.4369 1.88083C15.826 1.91262 16.2046 1.98226 16.5665 2.16667C17.1122 2.4447 17.5559 2.88835 17.8339 3.43402C18.0183 3.79595 18.0879 4.17454 18.1197 4.5637C18.15 4.93413 18.15 5.38531 18.15 5.91518V5.95059V18.0506V18.086C18.15 18.6159 18.15 19.067 18.1197 19.4375C18.0879 19.8266 18.0183 20.2052 17.8339 20.5672C17.5559 21.1128 17.1122 21.5565 16.5665 21.8345C16.2046 22.0189 15.826 22.0886 15.4369 22.1203C15.0664 22.1506 14.6153 22.1506 14.0854 22.1506H14.0854H14.0854H14.05H9.94997H9.91457H9.91455H9.91453C9.38468 22.1506 8.93351 22.1506 8.56309 22.1203C8.17393 22.0886 7.79534 22.0189 7.4334 21.8345C6.88773 21.5565 6.44409 21.1128 6.16606 20.5672C5.98165 20.2052 5.91201 19.8266 5.88022 19.4375C5.84995 19.0671 5.84996 18.6159 5.84998 18.086V18.086V18.086V18.0506V5.95059V5.91519V5.91516V5.91513C5.84996 5.38528 5.84995 4.93412 5.88022 4.5637C5.91201 4.17454 5.98165 3.79595 6.16606 3.43402C6.44409 2.88835 6.88773 2.4447 7.4334 2.16667C7.79534 1.98226 8.17393 1.91262 8.56309 1.88083C8.93351 1.85056 9.38467 1.85057 9.91451 1.85059H9.91454H9.91457ZM10.0001 18.325C9.62733 18.325 9.32512 18.6272 9.32512 19C9.32512 19.3728 9.62733 19.675 10.0001 19.675H14.0001C14.3729 19.675 14.6751 19.3728 14.6751 19C14.6751 18.6272 14.3729 18.325 14.0001 18.325H10.0001Z" fill="currentColor"/>
</svg>
