<svg width="24" height="24" viewBox="0 0 24 24" fill="none" xmlns="http://www.w3.org/2000/svg">
<path fill-rule="evenodd" clip-rule="evenodd" d="M3.12499 7C3.12499 6.24569 3.53578 5.63184 4.04819 5.17754C4.56162 4.72233 5.25464 4.35236 6.0359 4.05939C7.60488 3.47102 9.7137 3.125 12 3.125C14.2863 3.125 16.3951 3.47102 17.9641 4.05939C18.7453 4.35236 19.4383 4.72233 19.9518 5.17754C20.4642 5.63184 20.875 6.24569 20.875 7V11.5806C20.8753 11.5932 20.8752 11.6059 20.875 11.6185V14.8804C20.8753 14.893 20.8752 14.9057 20.875 14.9183V16.7958C20.875 17.848 20.2945 18.8722 19.2711 19.3269C13.3271 21.9677 7.62632 20.6863 4.63735 19.3176C3.64115 18.8614 3.12499 17.8584 3.12499 16.8676V14.9165C3.12476 14.905 3.12476 14.8934 3.12499 14.8818V11.6167C3.12476 11.6051 3.12476 11.5936 3.12499 11.582V7ZM4.87499 7C4.87499 6.92588 4.91192 6.75052 5.20915 6.48699C5.50536 6.22437 5.98391 5.94789 6.65037 5.69797C7.97681 5.20055 9.86799 4.875 12 4.875C14.132 4.875 16.0232 5.20055 17.3496 5.69797C18.0161 5.94789 18.4946 6.22437 18.7908 6.48699C19.088 6.75052 19.125 6.92588 19.125 7C19.125 7.07412 19.088 7.24948 18.7908 7.51301C18.4946 7.77563 18.0161 8.05211 17.3496 8.30203C16.0232 8.79945 14.132 9.125 12 9.125C9.86799 9.125 7.97681 8.79945 6.65037 8.30203C5.98391 8.05211 5.50536 7.77563 5.20915 7.51301C4.91192 7.24948 4.87499 7.07412 4.87499 7ZM19.125 9.40487V11.0353C13.2026 13.5999 7.43592 12.2333 4.87499 11.0568V9.40487C5.22762 9.60619 5.61921 9.78435 6.0359 9.94061C7.60488 10.529 9.7137 10.875 12 10.875C14.2863 10.875 16.3951 10.529 17.9641 9.94061C18.3808 9.78435 18.7723 9.60619 19.125 9.40487ZM4.87499 16.8676V16.2548C7.90645 17.4355 13.3971 18.448 19.125 16.2264V16.7958C19.125 17.2253 18.8912 17.5807 18.5606 17.7276C13.2012 20.1087 8.04099 18.9514 5.36594 17.7265C5.08464 17.5977 4.87499 17.2819 4.87499 16.8676ZM4.87499 14.3566C7.43592 15.5331 13.2026 16.8997 19.125 14.3351V12.9266C13.3971 15.1482 7.90645 14.1357 4.87499 12.955V14.3566Z" fill="currentColor"/>
</svg>
