<svg width="24" height="24" viewBox="0 0 24 24" fill="none" xmlns="http://www.w3.org/2000/svg">
<path fill-rule="evenodd" clip-rule="evenodd" d="M12.0002 2.71997C6.65953 2.71997 2.10016 6.51606 2.10016 11.451C2.10016 13.652 3.03071 15.6474 4.52276 17.1653L3.97629 20.2201C3.9145 20.5655 4.0591 20.9154 4.34675 21.1163C4.63439 21.3173 5.01261 21.3328 5.31571 21.156L8.16649 19.493C9.34856 19.9308 10.6425 20.182 12.0002 20.182C17.3408 20.182 21.9002 16.3859 21.9002 11.451C21.9002 6.51606 17.3408 2.71997 12.0002 2.71997ZM8.00015 12.62C8.55244 12.62 9.00015 12.1723 9.00015 11.62C9.00015 11.0677 8.55244 10.62 8.00015 10.62C7.44787 10.62 7.00015 11.0677 7.00015 11.62C7.00015 12.1723 7.44787 12.62 8.00015 12.62ZM13.0002 11.62C13.0002 12.1723 12.5524 12.62 12.0002 12.62C11.4479 12.62 11.0002 12.1723 11.0002 11.62C11.0002 11.0677 11.4479 10.62 12.0002 10.62C12.5524 10.62 13.0002 11.0677 13.0002 11.62ZM16.0002 12.62C16.5524 12.62 17.0002 12.1723 17.0002 11.62C17.0002 11.0677 16.5524 10.62 16.0002 10.62C15.4479 10.62 15.0002 11.0677 15.0002 11.62C15.0002 12.1723 15.4479 12.62 16.0002 12.62Z" fill="currentColor"/>
</svg>
