<svg width="24" height="24" viewBox="0 0 24 24" fill="none" xmlns="http://www.w3.org/2000/svg">
<path d="M8.40012 12.25C8.40012 10.2618 10.0119 8.65 12.0001 8.65C13.9883 8.65 15.6001 10.2618 15.6001 12.25C15.6001 14.2382 13.9883 15.85 12.0001 15.85C10.0119 15.85 8.40012 14.2382 8.40012 12.25Z" fill="currentColor"/>
<path fill-rule="evenodd" clip-rule="evenodd" d="M10.1098 2.09992L13.8901 2.09992C14.4146 2.0994 14.8567 2.09897 15.2721 2.22509C15.6369 2.33585 15.9762 2.51744 16.2707 2.75946C16.6061 3.03507 16.851 3.40314 17.1416 3.83986L17.9818 5.09999L18.8351 5.09999C19.365 5.09997 19.8162 5.09996 20.1866 5.13022C20.5758 5.16202 20.9544 5.23165 21.3163 5.41607C21.862 5.6941 22.3056 6.13774 22.5837 6.68341C22.7681 7.04535 22.8377 7.42394 22.8695 7.8131C22.8998 8.18352 22.8997 8.63469 22.8997 9.16454V16.8354C22.8997 17.3652 22.8998 17.8164 22.8695 18.1869C22.8377 18.576 22.7681 18.9546 22.5837 19.3166C22.3056 19.8622 21.862 20.3059 21.3163 20.5839C20.9544 20.7683 20.5758 20.838 20.1866 20.8697C19.8162 20.9 19.365 20.9 18.8352 20.9H5.16433C4.63448 20.9 4.18327 20.9 3.81285 20.8697C3.42369 20.838 3.04509 20.7683 2.68316 20.5839C2.13749 20.3059 1.69385 19.8622 1.41582 19.3166C1.2314 18.9546 1.16177 18.576 1.12997 18.1869C1.09971 17.8165 1.09972 17.3653 1.09973 16.8354V9.16458C1.09972 8.63474 1.09971 8.18352 1.12997 7.8131C1.16177 7.42394 1.2314 7.04535 1.41582 6.68341C1.69385 6.13774 2.13749 5.6941 2.68316 5.41607C3.04509 5.23165 3.42369 5.16202 3.81285 5.13022C4.18328 5.09996 4.63446 5.09997 5.16432 5.09999L6.01849 5.09999L6.8578 3.84059C7.14837 3.4037 7.39327 3.03547 7.72869 2.75975C8.02323 2.51762 8.36263 2.33596 8.72746 2.22515C9.14292 2.09897 9.58514 2.0994 10.1098 2.09992ZM12.0001 6.85C9.01779 6.85 6.60012 9.26766 6.60012 12.25C6.60012 15.2323 9.01779 17.65 12.0001 17.65C14.9825 17.65 17.4001 15.2323 17.4001 12.25C17.4001 9.26766 14.9825 6.85 12.0001 6.85Z" fill="currentColor"/>
</svg>
