<svg width="24" height="24" viewBox="0 0 24 24" fill="none" xmlns="http://www.w3.org/2000/svg">
<path fill-rule="evenodd" clip-rule="evenodd" d="M8.71349 4.09993C8.9008 4.09951 9.12247 4.09901 9.34068 4.15018C9.53042 4.19468 9.71219 4.2681 9.8796 4.36787C10.0721 4.48261 10.2313 4.63693 10.3657 4.76733L10.4009 4.80137L11.5427 5.90362C11.6341 5.99183 11.6819 6.03774 11.7187 6.07022C11.7296 6.07986 11.7367 6.08572 11.7407 6.08888C11.7461 6.0917 11.7519 6.09401 11.7577 6.09578C11.7628 6.09625 11.7719 6.09695 11.7865 6.0976C11.8355 6.0998 11.9018 6.1 12.0289 6.1L20.2223 6.1C20.3425 6.09996 20.4808 6.09992 20.6019 6.10981C20.7409 6.12117 20.9343 6.14993 21.1358 6.25259C21.3992 6.38682 21.6134 6.60099 21.7476 6.86441C21.8503 7.06591 21.879 7.25928 21.8904 7.39831C21.9003 7.51934 21.9002 7.65764 21.9002 7.77788L21.9003 18.222C21.9003 18.3423 21.9004 18.4806 21.8905 18.6017C21.8791 18.7407 21.8503 18.9341 21.7477 19.1356C21.6135 19.399 21.3993 19.6132 21.1359 19.7474C20.9344 19.8501 20.741 19.8788 20.602 19.8902C20.4809 19.9001 20.3426 19.9 20.2224 19.9H3.77812C3.65788 19.9 3.51958 19.9001 3.39854 19.8902C3.25951 19.8788 3.06614 19.8501 2.86464 19.7474C2.60121 19.6132 2.38704 19.399 2.25282 19.1356C2.15015 18.9341 2.12139 18.7407 2.11003 18.6017C2.10014 18.4807 2.10019 18.3423 2.10022 18.2221L2.10026 5.7779C2.10022 5.65766 2.10017 5.51935 2.11006 5.39831C2.12142 5.25928 2.15018 5.06591 2.25285 4.86442C2.38708 4.60099 2.60125 4.38682 2.86467 4.2526C3.06617 4.14993 3.25954 4.12117 3.39857 4.10981C3.51961 4.09992 3.65791 4.09996 3.77815 4.1L8.71349 4.09993Z" fill="currentColor"/>
</svg>
