<svg width="24" height="24" viewBox="0 0 24 24" fill="none" xmlns="http://www.w3.org/2000/svg">
<path fill-rule="evenodd" clip-rule="evenodd" d="M13.1785 2.85025C12.4283 2.51671 11.572 2.51671 10.8219 2.85025C10.2993 3.08266 9.92162 3.5085 9.5933 3.97203C9.2679 4.43144 8.90983 5.04995 8.47427 5.80232L2.97983 15.2927C2.54262 16.0479 2.1833 16.6685 1.9462 17.181C1.70708 17.6979 1.52527 18.2389 1.58472 18.8091C1.67 19.627 2.09853 20.3703 2.76367 20.8539C3.22734 21.191 3.78665 21.3048 4.35378 21.3568C4.91611 21.4084 5.63323 21.4084 6.50581 21.4084H17.4946C18.3671 21.4084 19.0843 21.4084 19.6466 21.3568C20.2137 21.3048 20.773 21.191 21.2367 20.8539C21.9018 20.3703 22.3304 19.627 22.4156 18.8091C22.4751 18.2389 22.2933 17.6979 22.0542 17.181C21.8171 16.6685 21.4578 16.0479 21.0205 15.2927L15.5261 5.80231C15.0905 5.04995 14.7325 4.43144 14.4071 3.97203C14.0787 3.5085 13.7011 3.08266 13.1785 2.85025ZM12.4471 4.49498C12.1626 4.36847 11.8378 4.36847 11.5533 4.49498C11.4829 4.52628 11.3367 4.62487 11.0622 5.01244C10.7903 5.39629 10.4732 5.94224 10.0097 6.74275L4.55994 16.156C4.09484 16.9593 3.77807 17.5083 3.57985 17.9368C3.37962 18.3696 3.36704 18.5459 3.37502 18.6224C3.40736 18.9327 3.56991 19.2146 3.8222 19.3981C3.88445 19.4433 4.04336 19.5208 4.51823 19.5643C4.98834 19.6075 5.62215 19.6084 6.55042 19.6084H17.4499C18.3782 19.6084 19.012 19.6075 19.4821 19.5643C19.957 19.5208 20.1159 19.4433 20.1782 19.3981C20.4305 19.2146 20.593 18.9327 20.6254 18.6224C20.6333 18.5459 20.6207 18.3696 20.4205 17.9368C20.2223 17.5083 19.9055 16.9593 19.4404 16.156L13.9907 6.74274C13.5272 5.94223 13.2101 5.39629 12.9382 5.01244C12.6637 4.62487 12.5175 4.52628 12.4471 4.49498ZM11.1002 9.01386H12.9002V15.0112H11.1002V9.01386ZM13.2002 17.2103C13.2002 17.8727 12.6629 18.4097 12.0002 18.4097C11.3374 18.4097 10.8002 17.8727 10.8002 17.2103C10.8002 16.5478 11.3374 16.0108 12.0002 16.0108C12.6629 16.0108 13.2002 16.5478 13.2002 17.2103Z" fill="currentColor"/>
</svg>
