<svg width="24" height="24" viewBox="0 0 24 24" fill="none" xmlns="http://www.w3.org/2000/svg">
<path d="M3.10071 5.0001C3.10071 4.50304 3.50365 4.1001 4.00071 4.1001H20.0007C20.4978 4.1001 20.9007 4.50304 20.9007 5.0001C20.9007 5.49715 20.4978 5.9001 20.0007 5.9001H4.00071C3.50365 5.9001 3.10071 5.49715 3.10071 5.0001Z" fill="currentColor"/>
<path d="M3.10071 19.0001C3.10071 18.503 3.50365 18.1001 4.00071 18.1001H20.0007C20.4978 18.1001 20.9007 18.503 20.9007 19.0001C20.9007 19.4972 20.4978 19.9001 20.0007 19.9001H4.00071C3.50365 19.9001 3.10071 19.4972 3.10071 19.0001Z" fill="currentColor"/>
<path d="M4.00071 11.1001C3.50365 11.1001 3.10071 11.503 3.10071 12.0001C3.10071 12.4972 3.50365 12.9001 4.00071 12.9001H20.0007C20.4978 12.9001 20.9007 12.4972 20.9007 12.0001C20.9007 11.503 20.4978 11.1001 20.0007 11.1001H4.00071Z" fill="currentColor"/>
</svg>
