<svg width="24" height="24" viewBox="0 0 24 24" fill="none" xmlns="http://www.w3.org/2000/svg">
<path fill-rule="evenodd" clip-rule="evenodd" d="M3.61788 3.11671C3.82184 3.10005 4.06388 3.10007 4.3182 3.1001H19.6777C19.932 3.10007 20.1741 3.10005 20.378 3.11671C20.6004 3.13489 20.8556 3.17727 21.1105 3.30719C21.468 3.48935 21.7587 3.78001 21.9409 4.13752C22.0708 4.3925 22.1132 4.64761 22.1313 4.87001C22.148 5.07396 22.148 5.31604 22.1479 5.57034V14.9299C22.148 15.1842 22.148 15.4262 22.1313 15.6302C22.1132 15.8526 22.0708 16.1077 21.9409 16.3627C21.7587 16.7202 21.468 17.0109 21.1105 17.193C20.8556 17.3229 20.6004 17.3653 20.378 17.3835C20.1741 17.4002 19.932 17.4001 19.6777 17.4001L12.9005 17.4001V19.6001H18.0001V21.4001H6.00016V19.6001H11.1005V17.4001L4.3182 17.4001C4.06388 17.4001 3.82184 17.4002 3.61788 17.3835C3.39547 17.3653 3.14036 17.3229 2.88538 17.193C2.52787 17.0109 2.23721 16.7202 2.05505 16.3627C1.92514 16.1077 1.88275 15.8526 1.86458 15.6302C1.84791 15.4262 1.84794 15.1842 1.84796 14.9299V5.57034C1.84794 5.31602 1.84791 5.07398 1.86458 4.87001C1.88275 4.64761 1.92514 4.3925 2.05505 4.13752C2.23721 3.78001 2.52787 3.48935 2.88538 3.30719C3.14036 3.17727 3.39547 3.13489 3.61788 3.11671ZM3.74801 4.8999C3.69278 4.8999 3.64801 4.94467 3.64801 4.9999V15.4999C3.64801 15.5551 3.69278 15.5999 3.74801 15.5999H20.248C20.3032 15.5999 20.348 15.5551 20.348 15.4999V4.9999C20.348 4.94467 20.3032 4.8999 20.248 4.8999H3.74801Z" fill="currentColor"/>
</svg>
