<svg width="24" height="24" viewBox="0 0 24 24" fill="none" xmlns="http://www.w3.org/2000/svg">
<path fill-rule="evenodd" clip-rule="evenodd" d="M11.9573 3.90021C11.9858 3.90006 12.0144 3.90006 12.0429 3.90021C12.9309 5.16345 13.6169 6.57908 14.0538 8.10009H9.94641C10.3833 6.57908 11.0693 5.16345 11.9573 3.90021ZM14.3917 4.25896C15.0585 5.45294 15.5758 6.74176 15.9183 8.10009H19.1011C18.0981 6.27771 16.4139 4.88301 14.3917 4.25896ZM19.8252 9.90009H16.2626C16.3533 10.5872 16.4001 11.2882 16.4001 12.0001C16.4001 12.712 16.3533 13.413 16.2627 14.1001H19.8252C20.0045 13.4303 20.1001 12.7264 20.1001 12.0001C20.1001 11.2738 20.0045 10.5698 19.8252 9.90009ZM19.1011 15.9001H15.9183C15.5758 17.2584 15.0585 18.5472 14.3917 19.7412C16.414 19.1172 18.0981 17.7225 19.1011 15.9001ZM12.0429 20.1C12.0144 20.1001 11.9858 20.1001 11.9573 20.1C11.0692 18.8367 10.3833 17.4211 9.94639 15.9001H14.0538C13.6169 17.4211 12.931 18.8367 12.0429 20.1ZM9.60851 19.7412C7.58622 19.1172 5.90209 17.7225 4.89907 15.9001H8.0819C8.42442 17.2584 8.94173 18.5473 9.60851 19.7412ZM4.17497 14.1001H7.73754C7.64688 13.413 7.6001 12.712 7.6001 12.0001C7.6001 11.2882 7.64688 10.5872 7.73755 9.90009H4.17498C3.99569 10.5698 3.9001 11.2738 3.9001 12.0001C3.9001 12.7264 3.99569 13.4303 4.17497 14.1001ZM4.89909 8.10009H8.08191C8.42443 6.74175 8.94174 5.45294 9.60852 4.25895C7.58624 4.883 5.9021 6.27771 4.89909 8.10009ZM12.0001 2.1001C6.53247 2.1001 2.1001 6.53248 2.1001 12.0001C2.1001 17.4677 6.53247 21.9001 12.0001 21.9001C17.4677 21.9001 21.9001 17.4677 21.9001 12.0001C21.9001 6.53248 17.4677 2.1001 12.0001 2.1001ZM9.55541 14.1001H14.4448C14.5471 13.415 14.6001 12.7137 14.6001 12.0001C14.6001 11.2865 14.5471 10.5852 14.4448 9.90009H9.55542C9.45311 10.5852 9.4001 11.2865 9.4001 12.0001C9.4001 12.7137 9.45311 13.415 9.55541 14.1001Z" fill="currentColor"/>
</svg>
