<svg width="24" height="24" viewBox="0 0 24 24" fill="none" xmlns="http://www.w3.org/2000/svg">
<path fill-rule="evenodd" clip-rule="evenodd" d="M8.66455 5.89976C8.79156 5.89976 8.85787 5.89997 8.90691 5.90216C8.92147 5.90281 8.93063 5.90352 8.93566 5.90398C8.94156 5.90575 8.94728 5.90806 8.95275 5.91088C8.95669 5.91404 8.96377 5.9199 8.9747 5.92954C9.01151 5.96202 9.05935 6.00793 9.15073 6.09614L10.2925 7.19839L10.3277 7.23244C10.4621 7.36284 10.6213 7.51715 10.8138 7.63189C10.9812 7.73167 11.163 7.80509 11.3527 7.84958C11.5709 7.90075 11.7926 7.90025 11.9799 7.89983L20.1002 7.89976L20.1003 18.0998H3.90023L3.90026 5.89976H8.66455ZM9.34069 4.14994C9.12248 4.09877 8.90081 4.09927 8.71349 4.09969L3.77816 4.09976C3.65792 4.09972 3.51961 4.09967 3.39857 4.10956C3.25954 4.12092 3.06617 4.14968 2.86467 4.25235C2.60125 4.38657 2.38708 4.60075 2.25285 4.86417C2.15018 5.06567 2.12142 5.25904 2.11006 5.39807C2.10017 5.51911 2.10022 5.65742 2.10026 5.77766L2.10022 18.2219C2.10019 18.3421 2.10014 18.4804 2.11003 18.6014C2.12139 18.7405 2.15015 18.9338 2.25282 19.1353C2.38704 19.3988 2.60121 19.6129 2.86464 19.7472C3.06614 19.8498 3.25951 19.8786 3.39854 19.89C3.51958 19.8998 3.65789 19.8998 3.77813 19.8998H20.2224C20.3426 19.8998 20.4809 19.8998 20.602 19.89C20.741 19.8786 20.9344 19.8498 21.1359 19.7472C21.3993 19.6129 21.6135 19.3988 21.7477 19.1353C21.8504 18.9338 21.8791 18.7405 21.8905 18.6014C21.9014 18.4679 21.9003 18.3336 21.9003 18.1997L21.9002 7.7777C21.9003 7.65746 21.9003 7.5191 21.8904 7.39806C21.8791 7.25903 21.8503 7.06567 21.7476 6.86417C21.6134 6.60074 21.3992 6.38657 21.1358 6.25235C20.9343 6.14968 20.7409 6.12092 20.6019 6.10956C20.4809 6.09967 20.3426 6.09972 20.2223 6.09976L12.0289 6.09976C11.9019 6.09976 11.8355 6.09955 11.7865 6.09736C11.772 6.09671 11.7628 6.096 11.7578 6.09554C11.7519 6.09377 11.7461 6.09146 11.7407 6.08864C11.7367 6.08548 11.7296 6.07962 11.7187 6.06998C11.6819 6.0375 11.6341 5.99159 11.5427 5.90338L10.3657 4.76709C10.2313 4.63668 10.0721 4.48237 9.87961 4.36763C9.71219 4.26785 9.53043 4.19443 9.34069 4.14994Z" fill="currentColor"/>
</svg>
