<svg width="24" height="24" viewBox="0 0 24 24" fill="none" xmlns="http://www.w3.org/2000/svg">
<path fill-rule="evenodd" clip-rule="evenodd" d="M6.07034 2.09961C5.81602 2.09958 5.57397 2.09956 5.37001 2.11622C5.1476 2.1344 4.89249 2.17678 4.63752 2.3067C4.28001 2.48886 3.98935 2.77952 3.80719 3.13703C3.67727 3.39201 3.63489 3.64712 3.61671 3.86952C3.60005 4.07349 3.60007 4.31553 3.6001 4.56985V19.4294C3.60007 19.6837 3.60005 19.9257 3.61671 20.1297C3.63489 20.3521 3.67727 20.6072 3.80719 20.8622C3.98935 21.2197 4.28001 21.5104 4.63752 21.6925C4.8925 21.8224 5.1476 21.8648 5.37001 21.883C5.57396 21.8997 5.81598 21.8996 6.07028 21.8996H17.9299C18.1842 21.8996 18.4262 21.8997 18.6302 21.883C18.8526 21.8648 19.1077 21.8224 19.3627 21.6925C19.7202 21.5104 20.0108 21.2197 20.193 20.8622C20.3229 20.6072 20.3653 20.3521 20.3835 20.1297C20.4001 19.9257 20.4001 19.6837 20.4001 19.4294V8.89961H13.7001V2.09961L6.07034 2.09961ZM12.5 15.3H7.5V13.5H12.5V15.3ZM7.5 18.3H12.5V16.5H7.5V18.3Z" fill="currentColor"/>
<path d="M15.7747 2.84543L19.5648 6.82503H15.7747V2.84543Z" fill="currentColor"/>
</svg>
