<svg width="24" height="24" viewBox="0 0 24 24" fill="none" xmlns="http://www.w3.org/2000/svg">
<path d="M7.81116 9.83482V8.55649H10.2496V7.45005H11.7643V8.55649H16.1901V9.83482H11.7643V10.4525C11.9093 10.4417 12.0543 10.4364 12.2047 10.4364C14.8365 10.4417 16.3566 11.516 16.3512 13.3905C16.3566 14.9427 15.1803 16.2264 13.483 16.5487L12.9137 15.2811C14.1168 15.034 14.8204 14.3197 14.8258 13.3797C14.8258 13.0467 14.7345 12.7567 14.5626 12.515C12.8922 14.7923 10.9049 16.2694 9.43323 16.2694C8.33215 16.2694 7.65003 15.4637 7.65003 14.1639C7.65003 12.5848 8.67053 11.3226 10.2496 10.7586V9.83482H7.81116ZM9.14319 14.1102C9.14319 14.6419 9.33118 14.932 9.6803 14.9374C9.85217 14.9374 10.0616 14.8675 10.3033 14.7494V12.1981C9.57288 12.6278 9.14319 13.2938 9.14319 14.1102ZM11.7106 13.702C12.2745 13.181 12.8761 12.5204 13.4239 11.7953C13.1393 11.7254 12.817 11.6825 12.4625 11.6825C12.1993 11.6825 11.9469 11.6986 11.7106 11.7362V13.702Z" fill="currentColor"/>
<path fill-rule="evenodd" clip-rule="evenodd" d="M9.61108 2.3501H14.389C15.4761 2.35009 16.3467 2.35008 17.0505 2.40758C17.7732 2.46663 18.3987 2.59076 18.9746 2.88417C19.8966 3.35395 20.6462 4.10355 21.116 5.02554C21.4094 5.60139 21.5335 6.22695 21.5925 6.94962C21.65 7.65339 21.65 8.52407 21.65 9.61115V14.3891C21.65 15.4761 21.65 16.3468 21.5925 17.0506C21.5335 17.7732 21.4094 18.3988 21.116 18.9747C20.6462 19.8966 19.8966 20.6462 18.9746 21.116C18.3987 21.4094 17.7732 21.5336 17.0505 21.5926C16.3467 21.6501 15.4761 21.6501 14.389 21.6501H9.61108C8.524 21.6501 7.65332 21.6501 6.94955 21.5926C6.22689 21.5336 5.60133 21.4094 5.02548 21.116C4.10349 20.6462 3.35388 19.8966 2.8841 18.9747C2.5907 18.3988 2.46657 17.7732 2.40752 17.0506C2.35002 16.3468 2.35003 15.4761 2.35004 14.389V9.61115C2.35003 8.52407 2.35002 7.65339 2.40752 6.94962C2.46657 6.22695 2.5907 5.60139 2.8841 5.02554C3.35388 4.10355 4.10349 3.35395 5.02548 2.88417C5.60133 2.59076 6.22689 2.46663 6.94955 2.40758C7.65333 2.35008 8.52401 2.35009 9.61108 2.3501ZM7.09613 4.20161C6.48478 4.25156 6.12247 4.34541 5.84266 4.48798C5.25936 4.78519 4.78512 5.25942 4.48791 5.84273C4.34535 6.12253 4.25149 6.48484 4.20154 7.09619C4.15074 7.71805 4.15004 8.51514 4.15004 9.6501V14.3501C4.15004 15.4851 4.15074 16.2821 4.20154 16.904C4.25149 17.5154 4.34535 17.8777 4.48791 18.1575C4.78512 18.7408 5.25936 19.215 5.84266 19.5122C6.12247 19.6548 6.48478 19.7486 7.09613 19.7986C7.71799 19.8494 8.51508 19.8501 9.65003 19.8501H14.35C15.485 19.8501 16.2821 19.8494 16.9039 19.7986C17.5153 19.7486 17.8776 19.6548 18.1574 19.5122C18.7407 19.215 19.2149 18.7408 19.5121 18.1575C19.6547 17.8777 19.7486 17.5154 19.7985 16.904C19.8493 16.2821 19.85 15.4851 19.85 14.3501V9.6501C19.85 8.51514 19.8493 7.71805 19.7985 7.09619C19.7486 6.48484 19.6547 6.12253 19.5121 5.84273C19.2149 5.25942 18.7407 4.78519 18.1574 4.48798C17.8776 4.34541 17.5153 4.25156 16.9039 4.20161C16.2821 4.1508 15.485 4.1501 14.35 4.1501H9.65003C8.51508 4.1501 7.71799 4.1508 7.09613 4.20161Z" fill="currentColor"/>
</svg>
