<svg width="24" height="24" viewBox="0 0 24 24" fill="none" xmlns="http://www.w3.org/2000/svg">
<path d="M12.3589 9.62678C12.2122 9.32948 11.7882 9.32948 11.6415 9.62678L10.8442 11.2423C10.786 11.3603 10.6733 11.4421 10.5431 11.4611L8.76028 11.7201C8.43219 11.7678 8.30118 12.171 8.53859 12.4024L9.82862 13.6599C9.92289 13.7518 9.96591 13.8842 9.94366 14.0139L9.63912 15.7895C9.58308 16.1162 9.92605 16.3654 10.2195 16.2112L11.8141 15.3728C11.9306 15.3116 12.0698 15.3116 12.1863 15.3728L13.7809 16.2112C14.0744 16.3654 14.4173 16.1162 14.3613 15.7895L14.0567 14.0139C14.0345 13.8842 14.0775 13.7518 14.1718 13.6599L15.4618 12.4024C15.6992 12.171 15.5682 11.7678 15.2401 11.7201L13.4574 11.4611C13.3271 11.4421 13.2144 11.3603 13.1562 11.2423L12.3589 9.62678Z" fill="currentColor"/>
<path fill-rule="evenodd" clip-rule="evenodd" d="M8.66449 5.89927C8.7915 5.89927 8.85781 5.89948 8.90685 5.90167C8.92141 5.90233 8.93057 5.90303 8.9356 5.90349C8.9415 5.90526 8.94722 5.90757 8.95269 5.9104C8.95663 5.91355 8.96371 5.91941 8.97464 5.92905C9.01144 5.96154 9.05929 6.00744 9.15067 6.09566L10.2925 7.1979L10.3276 7.23195C10.4621 7.36235 10.6212 7.51667 10.8138 7.63141C10.9812 7.73118 11.1629 7.8046 11.3527 7.84909C11.5709 7.90026 11.7925 7.89977 11.9799 7.89935L20.1002 7.89927L20.1002 18.0993H3.90017L3.9002 5.89927H8.66449ZM9.34063 4.14945C9.12242 4.09828 8.90075 4.09878 8.71343 4.0992L3.7781 4.09927C3.65786 4.09923 3.51955 4.09918 3.39851 4.10907C3.25948 4.12043 3.06611 4.14919 2.86461 4.25186C2.60119 4.38609 2.38702 4.60026 2.25279 4.86368C2.15012 5.06518 2.12136 5.25855 2.11 5.39758C2.10011 5.51862 2.10016 5.65693 2.10019 5.77717L2.10016 18.2214C2.10012 18.3416 2.10008 18.4799 2.10997 18.601C2.12133 18.74 2.15009 18.9334 2.25276 19.1349C2.38698 19.3983 2.60115 19.6125 2.86458 19.7467C3.06608 19.8493 3.25945 19.8781 3.39848 19.8895C3.51952 19.8994 3.65783 19.8993 3.77807 19.8993H20.2223C20.3426 19.8993 20.4809 19.8994 20.6019 19.8895C20.7409 19.8781 20.9343 19.8493 21.1358 19.7467C21.3992 19.6125 21.6134 19.3983 21.7476 19.1349C21.8503 18.9334 21.8791 18.74 21.8904 18.601C21.9013 18.4674 21.9002 18.3331 21.9002 18.1993L21.9002 7.77721C21.9002 7.65698 21.9002 7.51861 21.8904 7.39758C21.879 7.25854 21.8502 7.06518 21.7476 6.86368C21.6133 6.60025 21.3992 6.38608 21.1357 6.25186C20.9342 6.14919 20.7409 6.12043 20.6018 6.10907C20.4808 6.09918 20.3425 6.09923 20.2223 6.09927L12.0288 6.09927C11.9018 6.09927 11.8355 6.09907 11.7864 6.09687C11.7719 6.09622 11.7627 6.09552 11.7577 6.09505C11.7518 6.09328 11.7461 6.09097 11.7406 6.08815C11.7367 6.08499 11.7296 6.07913 11.7187 6.06949C11.6819 6.03701 11.634 5.9911 11.5426 5.90289L10.3657 4.7666C10.2312 4.6362 10.0721 4.48188 9.87955 4.36714C9.71213 4.26737 9.53037 4.19395 9.34063 4.14945Z" fill="currentColor"/>
</svg>
