<svg width="24" height="24" viewBox="0 0 24 24" fill="none" xmlns="http://www.w3.org/2000/svg">
<path d="M8.9557 21.9477C10.2364 21.9477 10.7982 21.0602 12.3935 21.0602C13.9888 21.0602 14.3708 21.914 15.7863 21.914C17.2019 21.914 18.1119 20.5883 18.9994 19.2851C19.988 17.7909 20.3925 16.3304 20.4262 16.263C20.3363 16.2406 17.6625 15.1059 17.6625 11.949C17.6625 9.20773 19.7746 7.97193 19.8869 7.88205C18.4938 5.81489 16.3705 5.76995 15.7975 5.76995C14.2359 5.76995 12.9552 6.74736 12.1463 6.74736C11.2812 6.74736 10.1353 5.82612 8.77594 5.82612C6.19199 5.82612 3.57434 8.0281 3.57434 12.1737C3.57434 14.7464 4.55175 17.4764 5.74261 19.2402C6.76496 20.7344 7.66372 21.959 8.9557 21.959V21.9477ZM12.2474 5.52279C13.1799 5.52279 14.3595 4.87119 15.0561 4.00613C15.6852 3.21971 16.1458 2.11872 16.1458 1.01773C16.1458 0.87168 16.1346 0.714396 16.1009 0.602051C15.0561 0.646989 13.809 1.32106 13.0563 2.23106C12.4609 2.92761 11.9216 4.00613 11.9216 5.11835C11.9216 5.27563 11.9441 5.44415 11.9666 5.50032C12.034 5.51156 12.1351 5.52279 12.2474 5.52279Z" fill="currentColor"/>
</svg>
