<svg width="24" height="24" viewBox="0 0 24 24" fill="none" xmlns="http://www.w3.org/2000/svg">
<path fill-rule="evenodd" clip-rule="evenodd" d="M4.28267 2.14475C4.61573 2.09997 5.02169 2.10003 5.44909 2.1001H12.5506C12.978 2.10003 13.384 2.09997 13.717 2.14475C14.0891 2.19478 14.5018 2.31507 14.8433 2.65661C15.1849 2.99814 15.3052 3.4108 15.3552 3.78291C15.4 4.11597 15.3999 4.52194 15.3998 4.94934L15.3999 10.1001H18.5506C18.978 10.1 19.384 10.1 19.717 10.1447C20.0891 10.1948 20.5018 10.3151 20.8433 10.6566C21.1849 10.9981 21.3052 11.4108 21.3552 11.7829C21.4 12.116 21.3999 12.5219 21.3998 12.9493L21.3998 21.9001H2.59986L2.59986 4.94933C2.59979 4.52194 2.59972 4.11597 2.6445 3.78291C2.69453 3.4108 2.81482 2.99814 3.15636 2.65661C3.4979 2.31507 3.91055 2.19478 4.28267 2.14475ZM4.39984 3.9999C4.39984 3.94467 4.44461 3.8999 4.49984 3.8999H13.4998C13.5551 3.8999 13.5998 3.94467 13.5998 3.9999V20.0999H9.89983V15.9999H8.09984V20.0999H4.39984V3.9999ZM15.3998 20.0999H19.5998V11.9999C19.5998 11.9447 19.5551 11.8999 19.4998 11.8999H15.3998L15.3998 20.0999ZM11.4999 11.9001H6.49987V10.1001H11.4999V11.9001ZM11.4999 7.9001H6.49987V6.1001H11.4999V7.9001Z" fill="currentColor"/>
</svg>
