<svg width="24" height="24" viewBox="0 0 24 24" fill="none" xmlns="http://www.w3.org/2000/svg">
<path fill-rule="evenodd" clip-rule="evenodd" d="M3.52375 12.0001C5.13677 8.96601 8.33006 6.9001 12.0059 6.9001C15.6817 6.9001 18.875 8.96601 20.488 12.0001C18.875 15.0341 15.6817 17.1 12.0059 17.1C8.33006 17.1 5.13677 15.0341 3.52375 12.0001ZM22.3059 12.3919C22.4239 12.144 22.4239 11.8562 22.3059 11.6083C20.475 7.76008 16.5511 5.1001 12.0059 5.1001C7.46067 5.1001 3.53673 7.76008 1.70584 11.6083C1.58788 11.8562 1.58788 12.144 1.70584 12.3919C3.53673 16.2401 7.46067 18.9 12.0059 18.9C16.5511 18.9 20.475 16.2401 22.3059 12.3919ZM9.90588 12.0001C9.90588 10.8403 10.8461 9.9001 12.0059 9.9001C13.1657 9.9001 14.1059 10.8403 14.1059 12.0001C14.1059 13.1599 13.1657 14.1001 12.0059 14.1001C10.8461 14.1001 9.90588 13.1599 9.90588 12.0001ZM12.0059 8.1001C9.85197 8.1001 8.10588 9.84619 8.10588 12.0001C8.10588 14.154 9.85197 15.9001 12.0059 15.9001C14.1598 15.9001 15.9059 14.154 15.9059 12.0001C15.9059 9.84619 14.1598 8.1001 12.0059 8.1001Z" fill="currentColor"/>
</svg>
