<svg width="24" height="24" viewBox="0 0 24 24" fill="none" xmlns="http://www.w3.org/2000/svg">
<path fill-rule="evenodd" clip-rule="evenodd" d="M4.32095 3.85498C4.06663 3.85496 3.82459 3.85493 3.62063 3.8716C3.39822 3.88977 3.14311 3.93215 2.88813 4.06207C2.53062 4.24423 2.23996 4.53489 2.0578 4.8924C1.92788 5.14738 1.8855 5.40249 1.86733 5.6249C1.85066 5.82886 1.85068 6.0709 1.85071 6.32523V17.6847C1.85068 17.9391 1.85066 18.1811 1.86733 18.3851C1.8855 18.6075 1.92788 18.8626 2.0578 19.1176C2.23996 19.4751 2.53062 19.7657 2.88813 19.9479C3.14311 20.0778 3.39822 20.1202 3.62063 20.1384C3.82459 20.155 4.06663 20.155 4.32095 20.155H19.6805C19.9348 20.155 20.1768 20.155 20.3808 20.1384C20.6032 20.1202 20.8583 20.0778 21.1133 19.9479C21.4708 19.7657 21.7615 19.4751 21.9436 19.1176C22.0735 18.8626 22.1159 18.6075 22.1341 18.3851C22.1508 18.1811 22.1507 17.9391 22.1507 17.6848V6.32522C22.1507 6.07092 22.1508 5.82884 22.1341 5.6249C22.1159 5.40249 22.0735 5.14738 21.9436 4.8924C21.7615 4.53489 21.4708 4.24423 21.1133 4.06207C20.8583 3.93215 20.6032 3.88977 20.3808 3.8716C20.1768 3.85493 19.9348 3.85496 19.6805 3.85498H4.32095ZM3.65036 5.74667C3.65036 5.69144 3.69513 5.64667 3.75036 5.64667H20.2504C20.3056 5.64667 20.3504 5.69144 20.3504 5.74667V18.2467C20.3504 18.3019 20.3056 18.3467 20.2504 18.3467H3.75036C3.69513 18.3467 3.65036 18.3019 3.65036 18.2467V5.74667ZM6.80462 7.5415C6.41305 7.23532 5.84742 7.30455 5.54125 7.69612C5.23508 8.08768 5.30431 8.65331 5.69587 8.95948L12.0058 13.8933L18.3052 8.959C18.6965 8.6525 18.7653 8.08681 18.4588 7.69551C18.1523 7.3042 17.5866 7.23546 17.1953 7.54197L12.0048 11.6076L6.80462 7.5415Z" fill="currentColor"/>
</svg>
