<svg width="24" height="24" viewBox="0 0 24 24" fill="none" xmlns="http://www.w3.org/2000/svg">
<path fill-rule="evenodd" clip-rule="evenodd" d="M4.57034 2.10059C4.31602 2.10056 4.07398 2.10054 3.87001 2.1172C3.64761 2.13537 3.3925 2.17776 3.13752 2.30768C2.78001 2.48984 2.48935 2.7805 2.30719 3.13801C2.17727 3.39298 2.13489 3.64809 2.11671 3.8705C2.10005 4.07446 2.10007 4.31651 2.1001 4.57083V15.4303C2.10007 15.6847 2.10005 15.9267 2.11671 16.1307C2.13489 16.3531 2.17727 16.6082 2.30719 16.8632C2.48935 17.2207 2.78001 17.5113 3.13752 17.6935C3.3925 17.8234 3.64761 17.8658 3.87001 17.884C4.07398 17.9006 4.31602 17.9006 4.57034 17.9006H15.4299C15.6842 17.9006 15.9262 17.9006 16.1302 17.884C16.3526 17.8658 16.6077 17.8234 16.8627 17.6935C17.2202 17.5113 17.5109 17.2207 17.693 16.8632C17.8229 16.6082 17.8653 16.3531 17.8835 16.1307C17.9001 15.9267 17.9001 15.6847 17.9001 15.4303V4.57083C17.9001 4.31651 17.9001 4.07446 17.8835 3.8705C17.8653 3.64809 17.8229 3.39298 17.693 3.13801C17.5109 2.7805 17.2202 2.48984 16.8627 2.30768C16.6077 2.17776 16.3526 2.13537 16.1302 2.1172C15.9262 2.10054 15.6842 2.10056 15.4299 2.10059H4.57034ZM3.90009 4.00039C3.90009 3.94516 3.94486 3.90039 4.00009 3.90039H16.0001C16.0553 3.90039 16.1001 3.94516 16.1001 4.00039V16.0004C16.1001 16.0556 16.0553 16.1004 16.0001 16.1004H4.00009C3.94486 16.1004 3.90009 16.0556 3.90009 16.0004V4.00039ZM21.8835 20.1311C21.9002 19.9271 21.9001 19.6851 21.9001 19.4307L21.9001 9.00098L20.1001 9.00136V20.0014C20.1001 20.0566 20.0554 20.1014 20.0001 20.1014H9.00014L9.00012 21.901L19.4299 21.901C19.6842 21.901 19.9262 21.901 20.1302 21.8844C20.3526 21.8662 20.6077 21.8238 20.8627 21.6939C21.2202 21.5117 21.5109 21.2211 21.693 20.8636C21.8229 20.6086 21.8653 20.3535 21.8835 20.1311Z" fill="currentColor"/>
</svg>
