<svg width="24" height="24" viewBox="0 0 24 24" fill="none" xmlns="http://www.w3.org/2000/svg">
<path fill-rule="evenodd" clip-rule="evenodd" d="M4.31827 3.1001C4.06394 3.10007 3.8219 3.10005 3.61794 3.11671C3.39553 3.13489 3.14042 3.17727 2.88544 3.30719C2.52794 3.48935 2.23727 3.78001 2.05511 4.13752C1.9252 4.3925 1.88281 4.64761 1.86464 4.87001C1.84798 5.07398 1.848 5.31602 1.84802 5.57034V14.9299C1.848 15.1842 1.84798 15.4262 1.86464 15.6302C1.88281 15.8526 1.9252 16.1077 2.05511 16.3627C2.23727 16.7202 2.52794 17.0109 2.88544 17.193C3.14042 17.3229 3.39553 17.3653 3.61794 17.3835C3.8219 17.4002 4.06394 17.4001 4.31826 17.4001L11.1006 17.4001V19.6001H6.00022V21.4001H18.0002V19.6001H12.9006V17.4001L19.6778 17.4001C19.9321 17.4001 20.1741 17.4002 20.3781 17.3835C20.6005 17.3653 20.8556 17.3229 21.1106 17.193C21.4681 17.0109 21.7588 16.7202 21.9409 16.3627C22.0708 16.1077 22.1132 15.8526 22.1314 15.6302C22.1481 15.4262 22.148 15.1842 22.148 14.9299V5.57034C22.148 5.31604 22.1481 5.07396 22.1314 4.87001C22.1132 4.64761 22.0708 4.3925 21.9409 4.13752C21.7588 3.78001 21.4681 3.48935 21.1106 3.30719C20.8556 3.17727 20.6005 3.13489 20.3781 3.11671C20.1741 3.10005 19.9321 3.10007 19.6778 3.1001H4.31827Z" fill="currentColor"/>
</svg>
