<svg width="24" height="24" viewBox="0 0 24 24" fill="none" xmlns="http://www.w3.org/2000/svg">
<path fill-rule="evenodd" clip-rule="evenodd" d="M2.35059 12.0001C2.35059 6.67055 6.67103 2.3501 12.0006 2.3501C17.3301 2.3501 21.6506 6.67055 21.6506 12.0001C21.6506 13.5384 21.29 14.9948 20.6481 16.2873L21.1425 18.0998C21.2543 18.5099 21.3541 18.8758 21.4072 19.1763C21.461 19.4809 21.4976 19.867 21.3504 20.2526C21.1574 20.7579 20.7583 21.157 20.2531 21.3499C19.8674 21.4971 19.4814 21.4605 19.1768 21.4067C18.8762 21.3537 18.5104 21.2539 18.1003 21.142L16.2877 20.6476C14.9953 21.2895 13.5389 21.6501 12.0006 21.6501C6.67103 21.6501 2.35059 17.3296 2.35059 12.0001Z" fill="currentColor"/>
</svg>
