<svg width="24" height="24" viewBox="0 0 24 24" fill="none" xmlns="http://www.w3.org/2000/svg">
<path fill-rule="evenodd" clip-rule="evenodd" d="M5.67886 5.05045C7.32729 3.0885 9.66361 2.1001 11.9973 2.1001C14.3307 2.1001 16.6574 3.07828 18.3161 5.0508C21.1811 8.45715 20.7363 13.4829 17.6549 16.5754L17.6537 16.5765C15.9051 18.3251 13.8929 20.4505 13.0487 21.3422C12.9912 21.403 12.939 21.458 12.8928 21.5069C12.4076 22.0245 11.5872 22.0245 11.1019 21.5069C11.0557 21.4581 11.0035 21.403 10.946 21.3422C10.1018 20.4505 8.08957 18.3251 6.34094 16.5765L6.3398 16.5754C3.25917 13.4836 2.81283 8.44765 5.67886 5.05045ZM9.21734 10.3401C9.21734 8.80304 10.4603 7.5601 11.9973 7.5601C13.5344 7.5601 14.7773 8.80304 14.7773 10.3401C14.7773 11.8772 13.5344 13.1201 11.9973 13.1201C10.4603 13.1201 9.21734 11.8772 9.21734 10.3401Z" fill="currentColor"/>
</svg>
