<svg width="24" height="24" viewBox="0 0 24 24" fill="none" xmlns="http://www.w3.org/2000/svg">
<path fill-rule="evenodd" clip-rule="evenodd" d="M10.0256 2.42717C11.1113 1.32502 12.8892 1.3251 13.9749 2.42718L15.0878 3.55697C15.2723 3.7442 15.5247 3.84872 15.7875 3.84675L17.3733 3.83488C18.9204 3.8233 20.1774 5.08046 20.1659 6.62745L20.154 8.21332C20.1521 8.47619 20.2567 8.72858 20.4439 8.91296L21.5736 10.026C22.6757 11.1117 22.6757 12.8895 21.5736 13.9753L20.4438 15.0882C20.2566 15.2726 20.1521 15.5251 20.154 15.7879L20.1659 17.3738C20.1774 18.9207 18.9203 20.1778 17.3733 20.1663L15.7875 20.1544C15.5246 20.1525 15.2722 20.257 15.0878 20.4442L13.9749 21.574C12.8891 22.6761 11.1114 22.6761 10.0256 21.574L8.91254 20.4442C8.72817 20.257 8.47572 20.1525 8.21286 20.1544L6.62702 20.1663C5.08003 20.1778 3.82292 18.9208 3.83451 17.3737L3.84638 15.7879C3.84834 15.5251 3.74377 15.2726 3.55653 15.0881L2.42681 13.9752C1.32468 12.8895 1.3247 11.1117 2.42681 10.026L3.55658 8.91294C3.7438 8.7285 3.84835 8.47611 3.84638 8.21331L3.83451 6.62744C3.82292 5.08038 5.08 3.8233 6.62707 3.83488L8.21294 3.84675C8.47574 3.84872 8.72815 3.74416 8.91258 3.55694L10.0256 2.42717ZM12.3589 7.72737C12.2121 7.43007 11.7882 7.43007 11.6415 7.72737L10.6238 9.78945C10.5655 9.90751 10.4529 9.98934 10.3226 10.0083L8.04695 10.3389C7.71886 10.3866 7.58786 10.7898 7.82526 11.0212L9.47194 12.6263C9.56621 12.7182 9.60923 12.8506 9.58698 12.9804L9.19825 15.2468C9.14221 15.5736 9.48518 15.8228 9.77863 15.6685L11.814 14.5984C11.9306 14.5372 12.0698 14.5372 12.1863 14.5984L14.2217 15.6685C14.5152 15.8228 14.8581 15.5736 14.8021 15.2468L14.4134 12.9804C14.3911 12.8506 14.4341 12.7182 14.5284 12.6263L16.1751 11.0212C16.4125 10.7898 16.2815 10.3866 15.9534 10.3389L13.6777 10.0083C13.5475 9.98934 13.4348 9.90751 13.3766 9.78945L12.3589 7.72737Z" fill="currentColor"/>
</svg>
