<svg width="24" height="24" viewBox="0 0 24 24" fill="none" xmlns="http://www.w3.org/2000/svg">
<path fill-rule="evenodd" clip-rule="evenodd" d="M16.8163 8.38082C16.9763 8.03787 16.9047 7.63143 16.6371 7.36382C16.3695 7.09622 15.9631 7.02461 15.6201 7.18466L10.1656 9.73011C9.97399 9.81951 9.82 9.9735 9.7306 10.1651L7.18514 15.6196C7.0251 15.9626 7.0967 16.369 7.36431 16.6366C7.63192 16.9042 8.03836 16.9758 8.38131 16.8158L13.8359 14.2703C14.0274 14.1809 14.1814 14.0269 14.2708 13.8354L16.8163 8.38082ZM13.0007 12.0002C13.0007 12.5525 12.553 13.0002 12.0007 13.0002C11.4484 13.0002 11.0007 12.5525 11.0007 12.0002C11.0007 11.4479 11.4484 11.0002 12.0007 11.0002C12.553 11.0002 13.0007 11.4479 13.0007 12.0002Z" fill="currentColor"/>
<path fill-rule="evenodd" clip-rule="evenodd" d="M12.0006 2.1001C6.53297 2.1001 2.10059 6.53248 2.10059 12.0001C2.10059 17.4677 6.53297 21.9001 12.0006 21.9001C17.4682 21.9001 21.9006 17.4677 21.9006 12.0001C21.9006 6.53248 17.4682 2.1001 12.0006 2.1001ZM3.90059 12.0001C3.90059 7.52659 7.52708 3.9001 12.0006 3.9001C16.4741 3.9001 20.1006 7.52659 20.1006 12.0001C20.1006 16.4736 16.4741 20.1001 12.0006 20.1001C7.52708 20.1001 3.90059 16.4736 3.90059 12.0001Z" fill="currentColor"/>
</svg>
