<svg width="24" height="24" viewBox="0 0 24 24" fill="none" xmlns="http://www.w3.org/2000/svg">
<path fill-rule="evenodd" clip-rule="evenodd" d="M8.9 6.88898C8.9 5.26199 10.2638 3.9001 12 3.9001C13.7361 3.9001 15.1 5.262 15.1 6.88898L15.1001 7.50019L16.9001 7.50001L16.9 6.88898C16.9 4.22045 14.6821 2.1001 12 2.1001C9.31788 2.1001 7.1 4.22041 7.1 6.88898V10.1002H6.57022C6.31592 10.1002 6.07384 10.1001 5.86989 10.1168C5.64748 10.135 5.39237 10.1774 5.1374 10.3073C4.77989 10.4894 4.48923 10.7801 4.30707 11.1376C4.17715 11.3926 4.13476 11.6477 4.11659 11.8701C4.09993 12.0741 4.09995 12.3161 4.09998 12.5704L4.09998 12.6002L4.09998 19.43C4.09995 19.6843 4.09993 19.9263 4.11659 20.1303C4.13476 20.3527 4.17715 20.6078 4.30707 20.8628C4.48923 21.2203 4.77989 21.511 5.1374 21.6931C5.39238 21.823 5.64748 21.8654 5.86989 21.8836C6.07385 21.9003 6.3159 21.9002 6.57022 21.9002H17.4297C17.6841 21.9002 17.9261 21.9003 18.1301 21.8836C18.3525 21.8654 18.6076 21.823 18.8626 21.6931C19.2201 21.511 19.5107 21.2203 19.6929 20.8628C19.8228 20.6078 19.8652 20.3527 19.8834 20.1303C19.9 19.9263 19.9 19.6843 19.9 19.43V12.5704C19.9 12.3161 19.9 12.0741 19.8834 11.8701C19.8652 11.6477 19.8228 11.3926 19.6929 11.1376C19.5107 10.7801 19.2201 10.4894 18.8626 10.3073C18.6076 10.1774 18.3525 10.135 18.1301 10.1168C17.9261 10.1001 17.6841 10.1002 17.4298 10.1002H8.9V6.88898ZM6.00002 11.9C5.9448 11.9 5.90002 11.9448 5.90002 12V20C5.90002 20.0552 5.9448 20.1 6.00002 20.1H18C18.0553 20.1 18.1 20.0552 18.1 20V12C18.1 11.9448 18.0553 11.9 18 11.9H6.00002Z" fill="currentColor"/>
</svg>
