<svg width="24" height="24" viewBox="0 0 24 24" fill="none" xmlns="http://www.w3.org/2000/svg">
<path d="M10 15.8C10.3437 15.8 10.638 15.6777 10.8828 15.4329C11.1276 15.1881 11.25 14.8938 11.25 14.55C11.25 14.2063 11.1276 13.912 10.8828 13.6672C10.638 13.4224 10.3437 13.3 10 13.3C9.65625 13.3 9.36197 13.4224 9.11718 13.6672C8.87239 13.912 8.75 14.2063 8.75 14.55C8.75 14.8938 8.87239 15.1881 9.11718 15.4329C9.36197 15.6777 9.65625 15.8 10 15.8ZM7.5 18.3H12.5V17.9407C12.5 17.6907 12.4323 17.4615 12.2969 17.2532C12.1615 17.0448 11.974 16.8886 11.7344 16.7844C11.4635 16.6698 11.1849 16.5813 10.8984 16.5188C10.612 16.4563 10.3125 16.425 10 16.425C9.6875 16.425 9.38802 16.4563 9.10156 16.5188C8.8151 16.5813 8.53645 16.6698 8.26562 16.7844C8.02604 16.8886 7.83854 17.0448 7.70312 17.2532C7.56771 17.4615 7.5 17.6907 7.5 17.9407V18.3Z" fill="currentColor"/>
<path fill-rule="evenodd" clip-rule="evenodd" d="M5.37001 2.11647C5.57397 2.09981 5.81602 2.09983 6.07034 2.09986H15.0644L20.4001 7.70235V19.4296C20.4001 19.6839 20.4001 19.926 20.3835 20.1299C20.3653 20.3523 20.3229 20.6075 20.193 20.8624C20.0108 21.2199 19.7202 21.5106 19.3627 21.6928C19.1077 21.8227 18.8526 21.8651 18.6302 21.8832C18.4262 21.8999 18.1841 21.8999 17.9298 21.8999H6.07028C5.81598 21.8999 5.57396 21.8999 5.37001 21.8832C5.1476 21.8651 4.89249 21.8227 4.63752 21.6928C4.28001 21.5106 3.98935 21.2199 3.80719 20.8624C3.67727 20.6075 3.63489 20.3523 3.61671 20.1299C3.60005 19.926 3.60007 19.6839 3.6001 19.4296V4.5701C3.60007 4.31577 3.60005 4.07373 3.61671 3.86977C3.63489 3.64736 3.67727 3.39225 3.80719 3.13727C3.98935 2.77977 4.28001 2.4891 4.63752 2.30694C4.89249 2.17703 5.1476 2.13464 5.37001 2.11647ZM5.40008 3.99966C5.40008 3.94443 5.44486 3.89966 5.50008 3.89966H13.1001V8.90005H18.6001V19.9997C18.6001 20.0549 18.5553 20.0997 18.5001 20.0997H5.50008C5.44486 20.0997 5.40008 20.0549 5.40008 19.9997V3.99966ZM14.9001 7.10005V4.53716L17.3409 7.10005H14.9001Z" fill="currentColor"/>
</svg>
