<svg width="24" height="24" viewBox="0 0 24 24" fill="none" xmlns="http://www.w3.org/2000/svg">
<path fill-rule="evenodd" clip-rule="evenodd" d="M15.1289 4.30641C14.7458 3.98974 14.1785 4.04362 13.8618 4.42675C13.5451 4.80987 13.599 5.37717 13.9821 5.69384L17.4984 8.60012H3.99996C3.5029 8.60012 3.09996 9.00307 3.09996 9.50012C3.09996 9.99718 3.5029 10.4001 3.99996 10.4001H20C20.3795 10.4001 20.7183 10.162 20.8468 9.8048C20.9753 9.44763 20.8659 9.04823 20.5733 8.80641L15.1289 4.30641ZM8.87103 19.6938C9.25416 20.0105 9.82145 19.9566 10.1381 19.5735C10.4548 19.1904 10.4009 18.6231 10.0178 18.3064L6.50153 15.4001H20C20.497 15.4001 20.9 14.9972 20.9 14.5001C20.9 14.0031 20.497 13.6001 20 13.6001H3.99996C3.62038 13.6001 3.2816 13.8383 3.1531 14.1954C3.0246 14.5526 3.13401 14.952 3.42659 15.1938L8.87103 19.6938Z" fill="currentColor"/>
</svg>
