<svg width="24" height="24" viewBox="0 0 24 24" fill="none" xmlns="http://www.w3.org/2000/svg">
<path fill-rule="evenodd" clip-rule="evenodd" d="M14.7131 2.03296C15.0729 2.17509 15.3016 2.53127 15.2812 2.9176L14.9343 9.47002H18.7501C19.1075 9.47002 19.431 9.68149 19.5744 10.0088C19.7179 10.3362 19.654 10.7174 19.4117 10.9801L9.48527 21.7448C9.21614 22.0367 8.78756 22.1177 8.43044 21.9443C8.07333 21.7708 7.87204 21.3839 7.93504 20.9919L8.95862 14.623H5.25011C4.90012 14.623 4.58186 14.4201 4.43417 14.1028C4.28648 13.7854 4.33613 13.4113 4.56147 13.1435L13.6938 2.29055C13.9429 1.99454 14.3533 1.89083 14.7131 2.03296ZM7.18366 12.823H10.0148C10.2785 12.823 10.5288 12.9386 10.6998 13.1392C10.8708 13.3399 10.9452 13.6055 10.9034 13.8658L10.186 18.3297L16.6959 11.27H13.9854C13.7384 11.27 13.5023 11.1685 13.3324 10.9894C13.1624 10.8102 13.0736 10.569 13.0867 10.3224L13.3417 5.50469L7.18366 12.823Z" fill="currentColor"/>
</svg>
