<svg width="24" height="24" viewBox="0 0 24 24" fill="none" xmlns="http://www.w3.org/2000/svg">
<path fill-rule="evenodd" clip-rule="evenodd" d="M18.12 5.88028C16.8131 4.57337 14.6942 4.57337 13.3873 5.88028L10.4988 8.76875L9.22602 7.49595L12.1145 4.60748C14.1244 2.59765 17.3829 2.59763 19.3928 4.60748C21.4027 6.61733 21.4027 9.87595 19.3928 11.8858L16.5043 14.7743L15.2315 13.5015L18.12 10.613C19.4269 9.30611 19.4269 7.18719 18.12 5.88028ZM15.773 9.5001L9.50022 15.7729L8.22742 14.5001L14.5002 8.2273L15.773 9.5001ZM7.77301 11.5029L5.8804 13.3872C4.57401 14.6942 4.57366 16.8132 5.8804 18.1199C7.18707 19.4266 9.30547 19.4268 10.6124 18.1206L12.4974 16.2273L13.773 17.4973L11.8873 19.3913L11.8859 19.3927C9.87607 21.4026 6.61745 21.4026 4.6076 19.3927C2.59775 17.3828 2.59777 14.1243 4.6076 12.1144L6.50302 10.2273L7.77301 11.5029Z" fill="currentColor"/>
</svg>
