<svg width="24" height="24" viewBox="0 0 24 24" fill="none" xmlns="http://www.w3.org/2000/svg">
<path fill-rule="evenodd" clip-rule="evenodd" d="M21.1504 2.1001H19.3504V4.3501H17.1004V6.1501H19.3504V8.4001H21.1504V6.1501H23.4004V4.3501H21.1504V2.1001Z" fill="currentColor"/>
<path fill-rule="evenodd" clip-rule="evenodd" d="M4.28315 2.14475C4.61621 2.09997 5.02218 2.10003 5.44957 2.1001H12.5511C12.9785 2.10003 13.3845 2.09997 13.7175 2.14475C14.0896 2.19478 14.5023 2.31507 14.8438 2.65661C15.1854 2.99814 15.3057 3.4108 15.3557 3.78291C15.4005 4.11597 15.4004 4.52194 15.4003 4.94934L15.4004 10.1001H18.5511C18.9785 10.1 19.3845 10.1 19.7175 10.1447C20.0896 10.1948 20.5023 10.3151 20.8438 10.6566C21.1854 10.9981 21.3056 11.4108 21.3557 11.7829C21.4005 12.116 21.4004 12.5219 21.4003 12.9493L21.4003 21.9001H2.60035L2.60035 4.94933C2.60028 4.52194 2.60021 4.11597 2.64499 3.78291C2.69502 3.4108 2.81531 2.99814 3.15685 2.65661C3.49839 2.31507 3.91104 2.19478 4.28315 2.14475ZM4.40033 3.9999C4.40033 3.94467 4.4451 3.8999 4.50033 3.8999H13.5003C13.5555 3.8999 13.6003 3.94467 13.6003 3.9999V20.0999H9.90032V15.9999H8.10032V20.0999H4.40033V3.9999ZM15.4003 20.0999H19.6003V11.9999C19.6003 11.9447 19.5555 11.8999 19.5003 11.8999H15.4003L15.4003 20.0999ZM11.5004 11.9001H6.50036V10.1001H11.5004V11.9001ZM11.5004 7.9001H6.50036V6.1001H11.5004V7.9001Z" fill="currentColor"/>
</svg>
