<svg width="24" height="24" viewBox="0 0 24 24" fill="none" xmlns="http://www.w3.org/2000/svg">
<path fill-rule="evenodd" clip-rule="evenodd" d="M8.90012 6.88895C8.90012 5.26198 10.264 3.90009 12.0001 3.90009C13.7363 3.90009 15.1001 5.26198 15.1001 6.88895V10.1002L8.90012 10.1003V6.88895ZM7.10012 10.1002V6.88895C7.10012 4.2204 9.318 2.1001 12.0001 2.1001C14.6822 2.1001 16.9001 4.2204 16.9001 6.88895V10.1002C17.0767 10.1002 17.2533 10.1002 17.4299 10.1002C17.6842 10.1001 17.9262 10.1001 18.1302 10.1168C18.3526 10.1349 18.6077 10.1773 18.8627 10.3072C19.2202 10.4894 19.5109 10.7801 19.693 11.1376C19.8229 11.3925 19.8653 11.6477 19.8835 11.8701C19.9002 12.074 19.9001 12.3161 19.9001 12.5704V19.4299C19.9001 19.6842 19.9002 19.9262 19.8835 20.1302C19.8653 20.3526 19.8229 20.6077 19.693 20.8627C19.5109 21.2202 19.2202 21.5109 18.8627 21.693C18.6077 21.8229 18.3526 21.8653 18.1302 21.8835C17.9262 21.9002 17.6842 21.9001 17.4299 21.9001H6.57034C6.31602 21.9001 6.07398 21.9002 5.87002 21.8835C5.64761 21.8653 5.3925 21.8229 5.13752 21.693C4.78001 21.5109 4.48935 21.2202 4.30719 20.8627C4.17727 20.6077 4.13489 20.3526 4.11671 20.1302C4.10005 19.9262 4.10007 19.6842 4.1001 19.4299L4.1001 12.6002L4.1001 12.5704C4.10007 12.3161 4.10005 12.074 4.11671 11.8701C4.13489 11.6477 4.17727 11.3925 4.30719 11.1376C4.48935 10.7801 4.78001 10.4894 5.13752 10.3072C5.3925 10.1773 5.64761 10.1349 5.87002 10.1168C6.07396 10.1001 6.31599 10.1001 6.57029 10.1002C6.74688 10.1002 6.92353 10.1002 7.10012 10.1002Z" fill="currentColor"/>
</svg>
