<svg width="24" height="24" viewBox="0 0 24 24" fill="none" xmlns="http://www.w3.org/2000/svg">
<path d="M2.75085 5C2.75085 4.30964 3.3105 3.75 4.00085 3.75H20.0009C20.6912 3.75 21.2509 4.30964 21.2509 5C21.2509 5.69036 20.6912 6.25 20.0009 6.25H4.00085C3.3105 6.25 2.75085 5.69036 2.75085 5Z" fill="currentColor"/>
<path d="M2.75085 19C2.75085 18.3096 3.3105 17.75 4.00085 17.75H20.0009C20.6912 17.75 21.2509 18.3096 21.2509 19C21.2509 19.6904 20.6912 20.25 20.0009 20.25H4.00085C3.3105 20.25 2.75085 19.6904 2.75085 19Z" fill="currentColor"/>
<path d="M4.00085 10.75C3.3105 10.75 2.75085 11.3096 2.75085 12C2.75085 12.6904 3.3105 13.25 4.00085 13.25H20.0009C20.6912 13.25 21.2509 12.6904 21.2509 12C21.2509 11.3096 20.6912 10.75 20.0009 10.75H4.00085Z" fill="currentColor"/>
</svg>
