<svg width="24" height="24" viewBox="0 0 24 24" fill="none" xmlns="http://www.w3.org/2000/svg">
<path fill-rule="evenodd" clip-rule="evenodd" d="M12.0001 5.19949C11.6723 4.76888 11.2736 4.41152 10.8364 4.12352C9.70701 3.37951 8.33585 3.1001 7.2501 3.1001C6.16434 3.1001 4.79319 3.37951 3.66377 4.12352C2.49391 4.89417 1.6001 6.16138 1.6001 8.0001V20.4882C1.6001 21.4487 2.76098 21.8062 3.34733 21.1618C4.31344 20.1001 5.70353 19.4357 7.2501 19.4357C8.88134 19.4357 10.3391 20.1751 11.3081 21.3403H12.6921C13.6625 20.1734 15.1209 19.4294 16.7501 19.4294C18.2966 19.4294 19.6867 20.0938 20.6529 21.1555C21.2392 21.7999 22.4001 21.4424 22.4001 20.4819V8.0001C22.4001 6.16138 21.5063 4.89417 20.3364 4.12352C19.207 3.37951 17.8359 3.1001 16.7501 3.1001C15.6643 3.1001 14.2932 3.37951 13.1638 4.12352C12.7266 4.41152 12.3279 4.76888 12.0001 5.19949ZM4.65398 5.62668C3.92633 6.10602 3.4001 6.83881 3.4001 8.0001V18.7742C4.50791 18.0544 5.83041 17.6357 7.2501 17.6357C8.66994 17.6357 9.99233 18.0544 11.1001 18.7742V8.0001C11.1001 6.83881 10.5739 6.10602 9.84621 5.62668C9.0781 5.12068 8.07426 4.9001 7.2501 4.9001C6.42594 4.9001 5.42209 5.12068 4.65398 5.62668ZM12.9001 18.7724C14.0072 18.0512 15.3294 17.6294 16.7501 17.6294C18.1698 17.6294 19.4923 18.0481 20.6001 18.7678V8.0001C20.6001 6.83881 20.0739 6.10602 19.3462 5.62668C18.5781 5.12068 17.5743 4.9001 16.7501 4.9001C15.9259 4.9001 14.9221 5.12068 14.154 5.62668C13.4263 6.10602 12.9001 6.83881 12.9001 8.0001V18.7724Z" fill="currentColor"/>
</svg>
