<svg width="24" height="24" viewBox="0 0 24 24" fill="none" xmlns="http://www.w3.org/2000/svg">
<path d="M9.50009 12.0001H14.5001V10.2001H9.50009V12.0001Z" fill="currentColor"/>
<path fill-rule="evenodd" clip-rule="evenodd" d="M8.77799 2.1001H15.2222C15.3424 2.10006 15.4807 2.10002 15.6018 2.10991C15.7408 2.12127 15.9342 2.15003 16.1357 2.2527C16.3991 2.38692 16.6133 2.60109 16.7475 2.86452C16.8502 3.06602 16.8789 3.25939 16.8903 3.39842C16.9002 3.51946 16.9001 3.65776 16.9001 3.778L16.9001 5.60011L18.6334 5.60011C19.0249 5.60009 19.3714 5.60007 19.6586 5.62353C19.9644 5.64852 20.2812 5.70453 20.5897 5.86169C21.0412 6.09179 21.4084 6.45894 21.6385 6.91053C21.7957 7.21899 21.8517 7.53584 21.8767 7.84162C21.9001 8.12878 21.9001 8.47527 21.9001 8.86677V17.6334C21.9001 18.025 21.9001 18.3714 21.8767 18.6586C21.8517 18.9644 21.7957 19.2812 21.6385 19.5897C21.4084 20.0413 21.0412 20.4084 20.5897 20.6385C20.2812 20.7957 19.9644 20.8517 19.6586 20.8767C19.3714 20.9001 19.025 20.9001 18.6335 20.9001H5.36676C4.9753 20.9001 4.62874 20.9001 4.34161 20.8767C4.03583 20.8517 3.71898 20.7957 3.41052 20.6385C2.95893 20.4084 2.59178 20.0413 2.36168 19.5897C2.20452 19.2812 2.14851 18.9644 2.12353 18.6586C2.10006 18.3714 2.10008 18.0249 2.1001 17.6334V8.86677C2.10008 8.47527 2.10006 8.12878 2.12353 7.84162C2.14851 7.53584 2.20452 7.21899 2.36168 6.91053C2.59178 6.45894 2.95893 6.09179 3.41052 5.86169C3.71898 5.70453 4.03583 5.64852 4.34161 5.62353C4.62876 5.60007 4.97525 5.60009 5.36675 5.60011L7.1001 5.60011L7.10009 3.77801C7.10005 3.65777 7.10001 3.51945 7.1099 3.39842C7.12126 3.25939 7.15002 3.06602 7.25269 2.86452C7.38691 2.60109 7.60108 2.38692 7.86451 2.2527C8.06601 2.15003 8.25937 2.12127 8.39841 2.10991C8.51944 2.10002 8.65775 2.10006 8.77799 2.1001ZM15.1001 3.90011V5.60011H8.90009V3.90011H15.1001ZM5.4001 7.40011H18.6001C19.035 7.40011 19.307 7.40081 19.512 7.41755C19.7065 7.43344 19.7601 7.45918 19.7725 7.4655C19.8854 7.52303 19.9772 7.61482 20.0347 7.72771C20.041 7.74013 20.0667 7.79373 20.0826 7.9882C20.0994 8.19318 20.1001 8.46522 20.1001 8.90011V17.6001C20.1001 18.035 20.0994 18.307 20.0826 18.512C20.0667 18.7065 20.041 18.7601 20.0347 18.7725C19.9772 18.8854 19.8854 18.9772 19.7725 19.0347C19.7601 19.041 19.7065 19.0668 19.512 19.0827C19.307 19.0994 19.035 19.1001 18.6001 19.1001H5.4001C4.96521 19.1001 4.69317 19.0994 4.48819 19.0827C4.29372 19.0668 4.24012 19.041 4.2277 19.0347C4.11481 18.9772 4.02302 18.8854 3.96549 18.7725C3.95917 18.7601 3.93343 18.7065 3.91755 18.512C3.9008 18.307 3.9001 18.035 3.9001 17.6001V8.90011C3.9001 8.46522 3.9008 8.19318 3.91755 7.9882C3.93343 7.79373 3.95917 7.74013 3.96549 7.72771C4.02302 7.61482 4.11481 7.52303 4.2277 7.4655C4.24012 7.45918 4.29372 7.43344 4.48819 7.41755C4.69317 7.40081 4.96521 7.40011 5.4001 7.40011Z" fill="currentColor"/>
</svg>
