<svg width="24" height="24" viewBox="0 0 24 24" fill="none" xmlns="http://www.w3.org/2000/svg">
<path fill-rule="evenodd" clip-rule="evenodd" d="M2.10034 12.0001C2.10034 6.53248 6.53272 2.1001 12.0003 2.1001C17.468 2.1001 21.9003 6.53248 21.9003 12.0001C21.9003 17.4677 17.468 21.9001 12.0003 21.9001C6.53272 21.9001 2.10034 17.4677 2.10034 12.0001ZM13.0003 16.5001C13.0003 17.0524 12.5526 17.5001 12.0003 17.5001C11.4481 17.5001 11.0003 17.0524 11.0003 16.5001C11.0003 15.9478 11.4481 15.5001 12.0003 15.5001C12.5526 15.5001 13.0003 15.9478 13.0003 16.5001ZM13.5253 6.9388C13.009 6.69576 12.4374 6.58124 11.865 6.60262C11.2926 6.624 10.7316 6.78084 10.2362 7.06288C9.74058 7.3451 9.3236 7.74555 9.03347 8.23235C8.74289 8.7199 8.59158 9.27441 8.60073 9.84094L10.4005 9.81186C10.3969 9.58711 10.4564 9.36079 10.5797 9.1539C10.7034 8.94627 10.8893 8.76235 11.1269 8.62711C11.3647 8.49169 11.6423 8.4122 11.9322 8.40137C12.2221 8.39054 12.5073 8.44904 12.7587 8.5674C13.01 8.68565 13.2142 8.85713 13.3579 9.05758C13.5011 9.25735 13.5808 9.48056 13.5972 9.70518C13.6135 9.9296 13.5668 10.1574 13.4563 10.368C13.3463 10.5776 13.1747 10.767 12.9497 10.9118C12.4026 11.2475 11.9413 11.7009 11.6087 12.2407C11.274 12.7839 11.0805 13.3973 11.0493 14.0308L11.0483 14.0529V14.3751H12.8483V14.0993C12.8672 13.7827 12.9656 13.4698 13.1412 13.1849C13.3207 12.8935 13.5774 12.6375 13.8962 12.4429L13.9037 12.4383L13.9111 12.4336C14.3917 12.1272 14.787 11.706 15.0502 11.2043C15.3138 10.7018 15.4335 10.1398 15.3924 9.57458C15.3513 9.00958 15.1517 8.47025 14.8208 8.00876C14.4904 7.54794 14.0419 7.18194 13.5253 6.9388Z" fill="currentColor"/>
</svg>
