<svg width="24" height="24" viewBox="0 0 24 24" fill="none" xmlns="http://www.w3.org/2000/svg">
<path d="M16.2865 8.97568V10.2647H14.9661C14.4855 11.5733 13.8399 12.672 13.0292 13.5851C13.9661 14.2735 15.1166 14.7911 16.5001 15.0987C16.1797 15.4063 15.7428 16.0509 15.5195 16.4269C14.0486 16.046 12.8642 15.4503 11.903 14.6495C10.8981 15.4405 9.71368 16.0313 8.33504 16.4562C8.17485 16.129 7.74767 15.4845 7.50009 15.1671C8.8399 14.8253 9.97096 14.3272 10.8933 13.6485C10.1069 12.711 9.50495 11.5831 9.01951 10.2647H7.69427V8.97568H11.2671V7.54014H12.636V8.97568H16.2865ZM10.4855 10.2647C10.8496 11.1632 11.3448 11.964 11.9855 12.6524C12.5778 11.9884 13.0486 11.1974 13.403 10.2647H10.4855Z" fill="currentColor"/>
<path fill-rule="evenodd" clip-rule="evenodd" d="M9.61114 2.3501H14.389C15.4761 2.35009 16.3468 2.35008 17.0506 2.40758C17.7732 2.46663 18.3988 2.59076 18.9746 2.88417C19.8966 3.35395 20.6462 4.10355 21.116 5.02554C21.4094 5.60139 21.5336 6.22695 21.5926 6.94962C21.6501 7.65339 21.6501 8.52407 21.6501 9.61115V14.3891C21.6501 15.4761 21.6501 16.3468 21.5926 17.0506C21.5336 17.7732 21.4094 18.3988 21.116 18.9747C20.6462 19.8966 19.8966 20.6462 18.9746 21.116C18.3988 21.4094 17.7732 21.5336 17.0506 21.5926C16.3468 21.6501 15.4761 21.6501 14.389 21.6501H9.61114C8.52406 21.6501 7.65338 21.6501 6.94961 21.5926C6.22695 21.5336 5.60139 21.4094 5.02554 21.116C4.10355 20.6462 3.35394 19.8966 2.88417 18.9747C2.59076 18.3988 2.46663 17.7732 2.40758 17.0506C2.35008 16.3468 2.35009 15.4761 2.3501 14.389V9.61115C2.35009 8.52407 2.35008 7.65339 2.40758 6.94962C2.46663 6.22695 2.59076 5.60139 2.88417 5.02554C3.35394 4.10355 4.10355 3.35395 5.02554 2.88417C5.60139 2.59076 6.22695 2.46663 6.94961 2.40758C7.65339 2.35008 8.52407 2.35009 9.61114 2.3501ZM7.09619 4.20161C6.48484 4.25156 6.12253 4.34541 5.84272 4.48798C5.25942 4.78519 4.78518 5.25942 4.48798 5.84273C4.34541 6.12253 4.25155 6.48484 4.2016 7.09619C4.1508 7.71805 4.1501 8.51514 4.1501 9.6501V14.3501C4.1501 15.4851 4.1508 16.2821 4.2016 16.904C4.25155 17.5154 4.34541 17.8777 4.48798 18.1575C4.78518 18.7408 5.25942 19.215 5.84272 19.5122C6.12253 19.6548 6.48484 19.7486 7.09619 19.7986C7.71805 19.8494 8.51514 19.8501 9.65009 19.8501H14.3501C15.485 19.8501 16.2821 19.8494 16.904 19.7986C17.5153 19.7486 17.8777 19.6548 18.1575 19.5122C18.7408 19.215 19.215 18.7408 19.5122 18.1575C19.6548 17.8777 19.7486 17.5154 19.7986 16.904C19.8494 16.2821 19.8501 15.4851 19.8501 14.3501V9.6501C19.8501 8.51514 19.8494 7.71805 19.7986 7.09619C19.7486 6.48484 19.6548 6.12253 19.5122 5.84273C19.215 5.25942 18.7408 4.78519 18.1575 4.48798C17.8777 4.34541 17.5153 4.25156 16.904 4.20161C16.2821 4.1508 15.485 4.1501 14.3501 4.1501H9.65009C8.51514 4.1501 7.71805 4.1508 7.09619 4.20161Z" fill="currentColor"/>
</svg>
