<svg width="24" height="24" viewBox="0 0 24 24" fill="none" xmlns="http://www.w3.org/2000/svg">
<path fill-rule="evenodd" clip-rule="evenodd" d="M16.1293 18.1295L18.7636 20.7638L20.0364 19.491L3.77293 3.22754L2.50014 4.50033L5.28607 7.28626C3.75922 8.40074 2.51986 9.88553 1.7001 11.6085C1.58214 11.8564 1.58214 12.1442 1.7001 12.3921C3.53099 16.2403 7.45493 18.9003 12.0001 18.9003C13.4564 18.9003 14.849 18.6272 16.1293 18.1295ZM13.5709 15.5711L12.0979 14.0981C12.0655 14.0996 12.0329 14.1004 12.0001 14.1004C10.8403 14.1004 9.90014 13.1602 9.90014 12.0004C9.90014 11.9676 9.90089 11.935 9.90238 11.9026L8.42939 10.4296C8.21768 10.9101 8.10014 11.4415 8.10014 12.0004C8.10014 14.1543 9.84623 15.9004 12.0001 15.9004C12.559 15.9004 13.0904 15.7828 13.5709 15.5711ZM15.8228 12.7773L19.3013 16.2558C20.5597 15.2053 21.5882 13.8885 22.3002 12.3921C22.4181 12.1442 22.4181 11.8564 22.3002 11.6085C20.4693 7.76032 16.5453 5.10034 12.0001 5.10034C10.8332 5.10034 9.70713 5.27569 8.64696 5.60148L11.2232 8.17775C11.4743 8.127 11.7341 8.10037 12.0001 8.10037C14.154 8.10037 15.9001 9.84646 15.9001 12.0004C15.9001 12.2664 15.8735 12.5262 15.8228 12.7773Z" fill="currentColor"/>
</svg>
