<svg width="24" height="24" viewBox="0 0 24 24" fill="none" xmlns="http://www.w3.org/2000/svg">
<path fill-rule="evenodd" clip-rule="evenodd" d="M13.1786 2.85025C12.4285 2.51671 11.5722 2.51671 10.822 2.85025C10.2994 3.08266 9.92175 3.5085 9.59343 3.97203C9.26803 4.43144 8.90996 5.04995 8.4744 5.80232L2.97995 15.2927C2.54274 16.0479 2.18342 16.6685 1.94632 17.181C1.7072 17.6979 1.5254 18.2389 1.58484 18.8091C1.67012 19.627 2.09865 20.3703 2.76379 20.8539C3.22746 21.191 3.78677 21.3048 4.3539 21.3568C4.91623 21.4084 5.63335 21.4084 6.50593 21.4084H17.4947C18.3673 21.4084 19.0844 21.4084 19.6467 21.3568C20.2139 21.3048 20.7732 21.191 21.2368 20.8539C21.902 20.3703 22.3305 19.627 22.4158 18.8091C22.4752 18.2389 22.2934 17.6979 22.0543 17.181C21.8172 16.6685 21.4579 16.0479 21.0207 15.2927L15.5262 5.80231C15.0907 5.04995 14.7326 4.43144 14.4072 3.97203C14.0789 3.5085 13.7013 3.08266 13.1786 2.85025ZM11.1003 9.01386H12.9003V15.0112H11.1003V9.01386ZM13.2003 17.2103C13.2003 17.8727 12.663 18.4097 12.0003 18.4097C11.3376 18.4097 10.8003 17.8727 10.8003 17.2103C10.8003 16.5478 11.3376 16.0108 12.0003 16.0108C12.663 16.0108 13.2003 16.5478 13.2003 17.2103Z" fill="currentColor"/>
</svg>
