<svg width="24" height="24" viewBox="0 0 24 24" fill="none" xmlns="http://www.w3.org/2000/svg">
<path fill-rule="evenodd" clip-rule="evenodd" d="M2.1001 12.0001C2.1001 11.6732 2.11597 11.3497 2.14705 11.0304L3.93858 11.2048C3.91314 11.4662 3.9001 11.7315 3.9001 12.0001C3.9001 16.4736 7.52659 20.1001 12.0001 20.1001C16.4736 20.1001 20.1001 16.4736 20.1001 12.0001C20.1001 7.52659 16.4736 3.9001 12.0001 3.9001C11.7315 3.9001 11.4662 3.91314 11.2048 3.93858L11.0304 2.14705C11.3497 2.11597 11.6732 2.1001 12.0001 2.1001C17.4677 2.1001 21.9001 6.53248 21.9001 12.0001C21.9001 17.4677 17.4677 21.9001 12.0001 21.9001C6.53248 21.9001 2.1001 17.4677 2.1001 12.0001ZM9.12569 2.52408C8.49908 2.71392 7.89886 2.96413 7.33183 3.26784L8.18171 4.85457C8.64537 4.60623 9.13584 4.40181 9.64761 4.24675L9.12569 2.52408ZM5.71913 4.34735C5.21838 4.75877 4.75877 5.21838 4.34735 5.71913L5.73813 6.86181C6.07513 6.45164 6.45165 6.07513 6.86181 5.73813L5.71913 4.34735ZM3.26784 7.33183C2.96413 7.89886 2.71393 8.49908 2.52408 9.12569L4.24675 9.64761C4.40181 9.13584 4.60623 8.64537 4.85457 8.18171L3.26784 7.33183ZM10.6001 7.5001V13.0001V13.356L10.8435 13.6157L13.8435 16.8156L15.1567 15.5845L12.4001 12.6442V7.5001H10.6001Z" fill="currentColor"/>
</svg>
