<svg width="24" height="24" viewBox="0 0 24 24" fill="none" xmlns="http://www.w3.org/2000/svg">
<path fill-rule="evenodd" clip-rule="evenodd" d="M5.37001 2.11671C5.57397 2.10005 5.81602 2.10007 6.07034 2.1001L13.7001 2.1001V8.9001H20.4001L20.4001 19.4299C20.4001 19.6842 20.4001 19.9262 20.3835 20.1302C20.3653 20.3526 20.3229 20.6077 20.193 20.8627C20.0108 21.2202 19.7202 21.5108 19.3627 21.693C19.1077 21.8229 18.8526 21.8653 18.6302 21.8835C18.4262 21.9001 18.1841 21.9001 17.9298 21.9001H6.07028C5.81598 21.9001 5.57396 21.9001 5.37001 21.8835C5.1476 21.8653 4.89249 21.8229 4.63752 21.693C4.28001 21.5108 3.98935 21.2202 3.80719 20.8627C3.67727 20.6077 3.63488 20.3526 3.61671 20.1302C3.60005 19.9262 3.60007 19.6842 3.6001 19.4299V4.57034C3.60007 4.31602 3.60005 4.07397 3.61671 3.87001C3.63488 3.6476 3.67727 3.39249 3.80719 3.13752C3.98935 2.78001 4.28001 2.48935 4.63752 2.30719C4.89249 2.17727 5.1476 2.13488 5.37001 2.11671Z" fill="currentColor"/>
<path d="M19.5648 6.82552L15.7747 2.84591V6.82552H19.5648Z" fill="currentColor"/>
</svg>
