<svg width="24" height="24" viewBox="0 0 24 24" fill="none" xmlns="http://www.w3.org/2000/svg">
<path fill-rule="evenodd" clip-rule="evenodd" d="M18.6565 2.21177C19.1881 1.94827 19.8124 1.94829 20.344 2.21182C20.6296 2.35339 20.8702 2.59556 21.0783 2.80503L21.1952 2.92193C21.4046 3.13003 21.6467 3.37062 21.7882 3.65621C22.0517 4.18783 22.0517 4.812 21.7882 5.34361C21.6467 5.6292 21.4045 5.86978 21.1951 6.07786L11.373 15.8999H8.10022V12.6271L17.9221 2.80494C18.1302 2.59548 18.3708 2.35332 18.6565 2.21177ZM19.5709 3.84326C19.5319 3.8042 19.4686 3.8042 19.4295 3.84325L9.90027 13.3725V14.0997H10.6275L20.1566 4.57038C20.1956 4.53133 20.1956 4.46802 20.1566 4.42897L19.5709 3.84326Z" fill="currentColor"/>
<path fill-rule="evenodd" clip-rule="evenodd" d="M7.46347 2.6001C6.79467 2.60009 6.23868 2.60008 5.78494 2.63715C5.3124 2.67576 4.87206 2.75901 4.45665 2.97068C3.8169 3.29665 3.29677 3.81678 2.9708 4.45653C2.75914 4.87194 2.67588 5.31228 2.63727 5.78482C2.6002 6.23856 2.60021 6.79454 2.60022 7.46335V16.5369C2.60021 17.2057 2.6002 17.7616 2.63727 18.2154C2.67588 18.6879 2.75914 19.1283 2.9708 19.5437C3.29677 20.1834 3.8169 20.7036 4.45665 21.0295C4.87206 21.2412 5.3124 21.3244 5.78494 21.3631C6.23868 21.4001 6.79466 21.4001 7.46346 21.4001H16.537C17.2059 21.4001 17.7618 21.4001 18.2156 21.3631C18.6881 21.3244 19.1285 21.2412 19.5439 21.0295C20.1836 20.7035 20.7038 20.1834 21.0297 19.5436C21.2414 19.1282 21.3247 18.6879 21.3633 18.2153C21.4003 17.7616 21.4003 17.2056 21.4003 16.5368L21.4002 11.0001L19.6002 11.0001L19.6003 16.5001C19.6003 17.215 19.5996 17.6971 19.5692 18.0688C19.5397 18.43 19.4868 18.6071 19.4259 18.7265C19.2725 19.0275 19.0278 19.2723 18.7267 19.4257C18.6073 19.4865 18.4302 19.5395 18.069 19.569C17.6973 19.5994 17.2152 19.6001 16.5003 19.6001H7.50022C6.7853 19.6001 6.30324 19.5994 5.93151 19.569C5.57029 19.5395 5.3932 19.4865 5.27384 19.4257C4.97278 19.2723 4.72801 19.0275 4.57461 18.7265C4.51379 18.6071 4.46081 18.43 4.43129 18.0688C4.40092 17.6971 4.40022 17.215 4.40022 16.5001V7.5001C4.40022 6.78518 4.40092 6.30312 4.43129 5.93139C4.46081 5.57017 4.51379 5.39308 4.57461 5.27371C4.72801 4.97265 4.97278 4.72789 5.27384 4.57449C5.3932 4.51367 5.57029 4.46068 5.93151 4.43117C6.30324 4.4008 6.7853 4.4001 7.50022 4.4001H13.0002V2.6001L7.46347 2.6001Z" fill="currentColor"/>
</svg>
