<svg width="24" height="24" viewBox="0 0 24 24" fill="none" xmlns="http://www.w3.org/2000/svg">
<path d="M13.2151 14.5827C12.7967 15.071 12.5874 15.3151 12.3384 15.4045C12.1199 15.483 11.8808 15.483 11.6623 15.4045C11.4133 15.3151 11.204 15.071 10.7855 14.5827L8.26428 11.6413C7.54389 10.8008 7.18369 10.3806 7.17487 10.0248C7.1672 9.71559 7.30304 9.42024 7.5428 9.22484C7.81867 9 8.37214 9 9.47909 9H14.5216C15.6285 9 16.182 9 16.4579 9.22484C16.6976 9.42024 16.8335 9.71559 16.8258 10.0248C16.817 10.3806 16.4568 10.8008 15.7364 11.6413L13.2151 14.5827Z" fill="currentColor"/>
</svg>
