<svg width="24" height="24" viewBox="0 0 24 24" fill="none" xmlns="http://www.w3.org/2000/svg">
<path fill-rule="evenodd" clip-rule="evenodd" d="M20.9001 15.0005L20.9001 18.4308C20.9001 18.6851 20.9001 18.9272 20.8835 19.1312C20.8653 19.3536 20.8229 19.6087 20.693 19.8637C20.5108 20.2212 20.2202 20.5118 19.8627 20.694C19.6077 20.8239 19.3526 20.8663 19.1302 20.8845C18.9262 20.9011 18.6842 20.9011 18.4299 20.9011H5.57029C5.31598 20.9011 5.0739 20.9011 4.86996 20.8845C4.64755 20.8663 4.39244 20.8239 4.13746 20.694C3.77995 20.5118 3.48929 20.2212 3.30713 19.8637C3.17721 19.6087 3.13482 19.3536 3.11665 19.1312C3.09999 18.9272 3.10001 18.6852 3.10004 18.4308V15.0005H4.90005V19.0008C4.90005 19.056 4.94482 19.1008 5.00005 19.1008H19.0001C19.0553 19.1008 19.1001 19.056 19.1001 19.0008V15.0005H20.9001Z" fill="currentColor"/>
<path d="M16.9054 8.6179C16.5648 8.97986 15.9952 8.99712 15.6332 8.65645L12.9 6.08406V15.5013C12.9 15.9983 12.4971 16.4013 12 16.4013C11.503 16.4013 11.1 15.9983 11.1 15.5013V6.08406L8.36687 8.65645C8.00491 8.99712 7.43532 8.97986 7.09466 8.6179C6.75399 8.25594 6.77125 7.68636 7.13321 7.34569L11.3832 3.34569C11.7298 3.01953 12.2703 3.01953 12.6169 3.34569L16.8669 7.34569C17.2288 7.68636 17.2461 8.25594 16.9054 8.6179Z" fill="currentColor"/>
</svg>
