<svg width="24" height="24" viewBox="0 0 24 24" fill="none" xmlns="http://www.w3.org/2000/svg">
<path fill-rule="evenodd" clip-rule="evenodd" d="M9.34057 4.15018C9.12236 4.09901 8.90069 4.09951 8.71337 4.09993L3.77803 4.1C3.65779 4.09996 3.51949 4.09992 3.39845 4.10981C3.25942 4.12117 3.06605 4.14993 2.86455 4.2526C2.60113 4.38682 2.38695 4.60099 2.25273 4.86442C2.15006 5.06591 2.1213 5.25928 2.10994 5.39831C2.10005 5.51935 2.10009 5.65766 2.10013 5.7779L2.1001 18.2221C2.10006 18.3423 2.10002 18.4807 2.10991 18.6017C2.12127 18.7407 2.15003 18.9341 2.2527 19.1356C2.38692 19.399 2.60109 19.6132 2.86452 19.7474C3.06602 19.8501 3.25939 19.8788 3.39842 19.8902C3.51946 19.9001 3.65776 19.9 3.778 19.9H20.2223C20.3425 19.9 20.4808 19.9001 20.6019 19.8902C20.7409 19.8788 20.9343 19.8501 21.1358 19.7474C21.3992 19.6132 21.6134 19.399 21.7476 19.1356C21.8502 18.9341 21.879 18.7407 21.8904 18.6017C21.9003 18.4806 21.9002 18.3423 21.9002 18.222L21.9001 7.77788C21.9001 7.65764 21.9002 7.51934 21.8903 7.39831C21.8789 7.25928 21.8502 7.06591 21.7475 6.86441C21.6133 6.60099 21.3991 6.38682 21.1357 6.25259C20.9342 6.14993 20.7408 6.12117 20.6018 6.10981C20.4807 6.09992 20.3424 6.09996 20.2222 6.1L12.0287 6.1C11.9017 6.1 11.8354 6.0998 11.7864 6.0976C11.7718 6.09695 11.7627 6.09625 11.7576 6.09578C11.7517 6.09401 11.746 6.0917 11.7406 6.08888C11.7366 6.08572 11.7295 6.07986 11.7186 6.07022C11.6818 6.03774 11.6339 5.99183 11.5426 5.90362L10.4008 4.80137L10.3656 4.76733C10.2312 4.63693 10.072 4.48261 9.87949 4.36787C9.71207 4.2681 9.53031 4.19468 9.34057 4.15018ZM15.1002 13.05C15.5814 13.05 15.9934 12.8787 16.3361 12.536C16.6788 12.1933 16.8502 11.7813 16.8502 11.3C16.8502 10.8188 16.6788 10.4068 16.3361 10.0641C15.9934 9.7214 15.5814 9.55005 15.1002 9.55005C14.6189 9.55005 14.2069 9.7214 13.8642 10.0641C13.5215 10.4068 13.3502 10.8188 13.3502 11.3C13.3502 11.7813 13.5215 12.1933 13.8642 12.536C14.2069 12.8787 14.6189 13.05 15.1002 13.05ZM11.6002 16.0469V16.55H18.6002V16.0469C18.6002 15.6969 18.5054 15.3761 18.3158 15.0844C18.1262 14.7928 17.8637 14.574 17.5283 14.4282C17.1491 14.2678 16.759 14.1438 16.358 14.0563C15.9569 13.9688 15.5377 13.925 15.1002 13.925C14.6627 13.925 14.2434 13.9688 13.8423 14.0563C13.4413 14.1438 13.0512 14.2678 12.672 14.4282C12.3366 14.574 12.0741 14.7928 11.8845 15.0844C11.695 15.3761 11.6002 15.6969 11.6002 16.0469Z" fill="currentColor"/>
</svg>
