<svg width="24" height="24" viewBox="0 0 24 24" fill="none" xmlns="http://www.w3.org/2000/svg">
<path fill-rule="evenodd" clip-rule="evenodd" d="M12.0003 2.1001C6.53272 2.1001 2.10034 6.53248 2.10034 12.0001C2.10034 17.4677 6.53272 21.9001 12.0003 21.9001C17.4679 21.9001 21.9003 17.4677 21.9003 12.0001C21.9003 6.53248 17.4679 2.1001 12.0003 2.1001ZM12.0003 7.00012C11.448 7.00012 11.0003 7.44784 11.0003 8.00012C11.0003 8.55241 11.448 9.00012 12.0003 9.00012C12.5526 9.00012 13.0003 8.55241 13.0003 8.00012C13.0003 7.44784 12.5526 7.00012 12.0003 7.00012ZM11.1003 17.0001V10.5001H12.9003V17.0001H11.1003Z" fill="currentColor"/>
</svg>
