<svg width="24" height="24" viewBox="0 0 24 24" fill="none" xmlns="http://www.w3.org/2000/svg">
<path fill-rule="evenodd" clip-rule="evenodd" d="M10.0002 1.69995C5.41623 1.69995 1.7002 5.41599 1.7002 9.99995C1.7002 14.5839 5.41623 18.3 10.0002 18.3C11.8231 18.3 13.5087 17.7123 14.878 16.7161L19.5811 21.4192C20.0888 21.9268 20.9119 21.9268 21.4196 21.4192C21.9272 20.9115 21.9272 20.0884 21.4196 19.5807L16.7165 14.8776C17.7126 13.5083 18.3002 11.8228 18.3002 9.99995C18.3002 5.41599 14.5841 1.69995 10.0002 1.69995ZM4.30019 9.99995C4.30019 6.85193 6.85217 4.29995 10.0002 4.29995C13.1482 4.29995 15.7002 6.85193 15.7002 9.99995C15.7002 13.148 13.1482 15.7 10.0002 15.7C6.85217 15.7 4.30019 13.148 4.30019 9.99995Z" fill="currentColor"/>
</svg>
