<svg width="24" height="24" viewBox="0 0 24 24" fill="none" xmlns="http://www.w3.org/2000/svg">
<path d="M2.91638 4.84368C3.98651 4.23218 5.22997 4.1001 6.05041 4.1001C6.87122 4.1001 8.09071 4.23277 9.1404 4.75761C10.2395 5.30715 11.2004 6.32734 11.2004 8.0001V20.0001L9.60843 20.5756C8.75863 19.5537 7.48061 18.9056 6.05041 18.9056C4.75296 18.9056 3.58162 19.4387 2.74068 20.3001L2.73062 20.3104C2.69076 20.3513 2.6301 20.4136 2.57315 20.4636C2.54011 20.4926 2.48092 20.5424 2.40283 20.5892C2.32673 20.6349 2.18266 20.7085 1.98725 20.7255C1.66555 20.7536 1.35296 20.6263 1.14235 20.3815C0.928663 20.1331 0.90985 19.8439 0.906583 19.7937L0.906223 19.7885C0.900261 19.7129 0.900347 19.6265 0.900402 19.5715L0.900411 8.5001C0.900411 6.65713 1.77877 5.49375 2.91638 4.84368Z" fill="currentColor"/>
<path d="M21.0843 4.84368C20.0142 4.23218 18.7707 4.1001 17.9503 4.1001C17.1295 4.1001 15.91 4.23277 14.8603 4.75761C13.7613 5.30715 12.8003 6.32734 12.8003 8.0001V20.0001L14.3923 20.5756C15.2421 19.5537 16.5201 18.9056 17.9503 18.9056C19.2478 18.9056 20.4191 19.4387 21.26 20.3001L21.2701 20.3104C21.31 20.3513 21.3706 20.4136 21.4276 20.4636C21.4606 20.4926 21.5198 20.5424 21.5979 20.5892C21.674 20.6349 21.8181 20.7085 22.0135 20.7255C22.3352 20.7536 22.6478 20.6263 22.8584 20.3815C23.0721 20.1331 23.0909 19.8439 23.0941 19.7937L23.0945 19.7885C23.1005 19.7129 23.1004 19.6265 23.1003 19.5715L23.1003 8.5001C23.1003 6.65713 22.2219 5.49375 21.0843 4.84368Z" fill="currentColor"/>
</svg>
