<svg width="24" height="24" viewBox="0 0 24 24" fill="none" xmlns="http://www.w3.org/2000/svg">
<path fill-rule="evenodd" clip-rule="evenodd" d="M13.1784 2.85025C12.4283 2.51671 11.572 2.51671 10.8219 2.85025C10.2992 3.08266 9.92157 3.5085 9.59325 3.97203C9.26785 4.43144 8.90978 5.04995 8.47421 5.80232L2.97977 15.2927C2.54256 16.0479 2.18324 16.6685 1.94614 17.181C1.70701 17.6979 1.52521 18.2389 1.58466 18.8091C1.66994 19.627 2.09847 20.3703 2.76361 20.8539C3.22728 21.191 3.78659 21.3048 4.35372 21.3568C4.91605 21.4084 5.63317 21.4084 6.50575 21.4084H17.4945C18.3671 21.4084 19.0842 21.4084 19.6465 21.3568C20.2137 21.3048 20.773 21.191 21.2367 20.8539C21.9018 20.3703 22.3303 19.627 22.4156 18.8091C22.4751 18.2389 22.2932 17.6979 22.0541 17.181C21.817 16.6685 21.4577 16.0479 21.0205 15.2927L15.5261 5.80231C15.0905 5.04995 14.7324 4.43144 14.407 3.97203C14.0787 3.5085 13.7011 3.08266 13.1784 2.85025Z" fill="currentColor"/>
</svg>
