<svg width="24" height="24" viewBox="0 0 24 24" fill="none" xmlns="http://www.w3.org/2000/svg">
<path fill-rule="evenodd" clip-rule="evenodd" d="M4.09998 2.49961C4.09998 2.00255 4.50292 1.59961 4.99998 1.59961C5.49703 1.59961 5.89998 2.00255 5.89998 2.49961C5.89998 3.38725 6.05953 3.69262 6.18325 3.81634C6.30697 3.94006 6.61233 4.09961 7.49998 4.09961C7.99703 4.09961 8.39998 4.50255 8.39998 4.99961C8.39998 5.49667 7.99703 5.89961 7.49998 5.89961C6.61233 5.89961 6.30697 6.05916 6.18325 6.18288C6.05953 6.3066 5.89998 6.61197 5.89998 7.49961C5.89998 7.99667 5.49703 8.39961 4.99998 8.39961C4.50292 8.39961 4.09998 7.99667 4.09998 7.49961C4.09998 6.61197 3.94042 6.3066 3.8167 6.18288C3.69298 6.05916 3.38762 5.89961 2.49998 5.89961C2.00292 5.89961 1.59998 5.49667 1.59998 4.99961C1.59998 4.50255 2.00292 4.09961 2.49998 4.09961C3.38762 4.09961 3.69298 3.94006 3.8167 3.81634C3.94042 3.69262 4.09998 3.38725 4.09998 2.49961ZM17.5002 3.59976C17.0032 3.59976 16.6002 4.0027 16.6002 4.49976C16.6002 5.1999 16.4719 5.38026 16.4263 5.42586C16.3807 5.47145 16.2004 5.59976 15.5002 5.59976C15.0032 5.59976 14.6002 6.0027 14.6002 6.49976C14.6002 6.99681 15.0032 7.39976 15.5002 7.39976C16.2004 7.39976 16.3807 7.52806 16.4263 7.57365C16.4719 7.61925 16.6002 7.79961 16.6002 8.49976C16.6002 8.99681 17.0032 9.39976 17.5002 9.39976C17.9973 9.39976 18.4002 8.99681 18.4002 8.49976C18.4002 7.79961 18.5285 7.61925 18.5741 7.57365C18.6197 7.52806 18.8001 7.39976 19.5002 7.39976C19.9973 7.39976 20.4002 6.99681 20.4002 6.49976C20.4002 6.0027 19.9973 5.59976 19.5002 5.59976C18.8001 5.59976 18.6197 5.47145 18.5741 5.42586C18.5285 5.38026 18.4002 5.1999 18.4002 4.49976C18.4002 4.0027 17.9973 3.59976 17.5002 3.59976ZM6.50022 14.5998C6.00316 14.5998 5.60022 15.0027 5.60022 15.4998C5.60022 16.1999 5.47192 16.3803 5.42632 16.4259C5.38073 16.4715 5.20036 16.5998 4.50022 16.5998C4.00316 16.5998 3.60022 17.0027 3.60022 17.4998C3.60022 17.9968 4.00316 18.3998 4.50022 18.3998C5.20036 18.3998 5.38073 18.5281 5.42632 18.5737C5.47192 18.6192 5.60022 18.7996 5.60022 19.4998C5.60022 19.9968 6.00316 20.3998 6.50022 20.3998C6.99728 20.3998 7.40022 19.9968 7.40022 19.4998C7.40022 18.7996 7.52852 18.6192 7.57412 18.5737C7.61971 18.5281 7.80008 18.3998 8.50022 18.3998C8.99728 18.3998 9.40022 17.9968 9.40022 17.4998C9.40022 17.0027 8.99728 16.5998 8.50022 16.5998C7.80008 16.5998 7.61971 16.4715 7.57412 16.4259C7.52852 16.3803 7.40022 16.1999 7.40022 15.4998C7.40022 15.0027 6.99728 14.5998 6.50022 14.5998Z" fill="currentColor"/>
<path fill-rule="evenodd" clip-rule="evenodd" d="M10.8436 7.71128C10.312 7.44779 9.68775 7.4478 9.1561 7.71133C8.87049 7.85289 8.62991 8.09507 8.42182 8.30454L8.30493 8.42143C8.09551 8.62952 7.85339 8.87011 7.71186 9.15571C7.44841 9.68732 7.44842 10.3115 7.7119 10.8431C7.85345 11.1287 8.09558 11.3693 8.30501 11.5773L17.4218 20.6942C17.6299 20.9037 17.8706 21.1459 18.1562 21.2875C18.6878 21.5509 19.3119 21.5509 19.8435 21.2875C20.1292 21.1459 20.3698 20.9037 20.578 20.6943L20.6949 20.5774C20.9044 20.3692 21.1465 20.1286 21.2881 19.8429C21.5515 19.3114 21.5515 18.6872 21.2881 18.1557C21.1465 17.87 20.9044 17.6294 20.6949 17.4213L11.578 8.30444C11.3699 8.09499 11.1293 7.85283 10.8436 7.71128ZM9.92918 9.34293C9.96823 9.30387 10.0316 9.30387 10.0706 9.34292L14.3633 13.6356L13.6362 14.3628L9.34355 10.07C9.3045 10.031 9.3045 9.96768 9.34354 9.92863L9.92918 9.34293Z" fill="currentColor"/>
</svg>
