<svg width="24" height="24" viewBox="0 0 24 24" fill="none" xmlns="http://www.w3.org/2000/svg">
<path fill-rule="evenodd" clip-rule="evenodd" d="M22.3004 12.3919C22.4183 12.144 22.4183 11.8562 22.3004 11.6083C20.4695 7.76008 16.5455 5.1001 12.0003 5.1001C7.45511 5.1001 3.53117 7.76008 1.70028 11.6083C1.58233 11.8562 1.58233 12.144 1.70028 12.3919C3.53117 16.2401 7.45511 18.9 12.0003 18.9C16.5455 18.9 20.4695 16.2401 22.3004 12.3919ZM9.90032 12.0001C9.90032 10.8403 10.8405 9.90012 12.0003 9.90012C13.1601 9.90012 14.1003 10.8403 14.1003 12.0001C14.1003 13.1599 13.1601 14.1001 12.0003 14.1001C10.8405 14.1001 9.90032 13.1599 9.90032 12.0001ZM12.0003 8.10012C9.84641 8.10012 8.10032 9.84621 8.10032 12.0001C8.10032 14.154 9.84641 15.9001 12.0003 15.9001C14.1542 15.9001 15.9003 14.154 15.9003 12.0001C15.9003 9.84621 14.1542 8.10012 12.0003 8.10012Z" fill="currentColor"/>
</svg>
