<svg width="24" height="24" viewBox="0 0 24 24" fill="none" xmlns="http://www.w3.org/2000/svg">
<path fill-rule="evenodd" clip-rule="evenodd" d="M12.0002 2.1001C6.5326 2.1001 2.10022 6.53248 2.10022 12.0001C2.10022 17.4677 6.5326 21.9001 12.0002 21.9001C17.4678 21.9001 21.9002 17.4677 21.9002 12.0001C21.9002 6.53248 17.4678 2.1001 12.0002 2.1001ZM9.00021 11.0001C9.5525 11.0001 10.0002 10.5524 10.0002 10.0001C10.0002 9.44784 9.5525 9.00012 9.00021 9.00012C8.44793 9.00012 8.00021 9.44784 8.00021 10.0001C8.00021 10.5524 8.44793 11.0001 9.00021 11.0001ZM15.0002 11.0001C15.5525 11.0001 16.0002 10.5524 16.0002 10.0001C16.0002 9.44784 15.5525 9.00012 15.0002 9.00012C14.4479 9.00012 14.0002 9.44784 14.0002 10.0001C14.0002 10.5524 14.4479 11.0001 15.0002 11.0001ZM8.54811 13.022C8.97791 12.7723 9.52873 12.9183 9.77842 13.3481C10.2346 14.1334 11.0852 14.6602 12.0502 14.6602C13.0153 14.6602 13.8658 14.1334 14.322 13.3481C14.5717 12.9183 15.1225 12.7723 15.5523 13.022C15.9821 13.2717 16.1281 13.8225 15.8784 14.2523C15.1146 15.567 13.6852 16.4602 12.0502 16.4602C10.4153 16.4602 8.98579 15.567 8.22201 14.2523C7.97232 13.8225 8.11832 13.2717 8.54811 13.022Z" fill="currentColor"/>
</svg>
