<svg width="24" height="24" viewBox="0 0 24 24" fill="none" xmlns="http://www.w3.org/2000/svg">
<path fill-rule="evenodd" clip-rule="evenodd" d="M5.37013 2.11671C5.5741 2.10005 5.81614 2.10007 6.07046 2.1001L13.7002 2.1001V8.9001H20.4002L20.4002 19.4299C20.4002 19.6842 20.4003 19.9262 20.3836 20.1302C20.3654 20.3526 20.323 20.6077 20.1931 20.8627C20.011 21.2202 19.7203 21.5108 19.3628 21.693C19.1078 21.8229 18.8527 21.8653 18.6303 21.8835C18.4264 21.9001 18.1843 21.9001 17.93 21.9001H6.07041C5.8161 21.9001 5.57408 21.9001 5.37013 21.8835C5.14773 21.8653 4.89262 21.8229 4.63764 21.693C4.28013 21.5108 3.98947 21.2202 3.80731 20.8627C3.67739 20.6077 3.63501 20.3526 3.61684 20.1302C3.60017 19.9262 3.60019 19.6842 3.60022 19.4299V4.57034C3.60019 4.31602 3.60017 4.07397 3.61684 3.87001C3.63501 3.6476 3.67739 3.39249 3.80731 3.13752C3.98947 2.78001 4.28013 2.48935 4.63764 2.30719C4.89262 2.17727 5.14773 2.13488 5.37013 2.11671ZM10.0003 15.8002C10.3441 15.8002 10.6384 15.6778 10.8831 15.433C11.1279 15.1882 11.2503 14.8939 11.2503 14.5502C11.2503 14.2064 11.1279 13.9122 10.8831 13.6674C10.6384 13.4226 10.3441 13.3002 10.0003 13.3002C9.65659 13.3002 9.36232 13.4226 9.11752 13.6674C8.87273 13.9122 8.75034 14.2064 8.75034 14.5502C8.75034 14.8939 8.87273 15.1882 9.11752 15.433C9.36232 15.6778 9.65659 15.8002 10.0003 15.8002ZM12.5003 18.3002V17.9408C12.5003 17.6908 12.4326 17.4616 12.2972 17.2533C12.1618 17.045 11.9743 16.8887 11.7347 16.7845C11.4639 16.67 11.1852 16.5814 10.8988 16.5189C10.6123 16.4564 10.3128 16.4252 10.0003 16.4252C9.68784 16.4252 9.38836 16.4564 9.1019 16.5189C8.81544 16.5814 8.53679 16.67 8.26596 16.7845C8.02638 16.8887 7.83888 17.045 7.70346 17.2533C7.56804 17.4616 7.50034 17.6908 7.50034 17.9408V18.3002H12.5003Z" fill="currentColor"/>
<path d="M19.5649 6.82552L15.7748 2.84591V6.82552H19.5649Z" fill="currentColor"/>
</svg>
