<svg width="24" height="24" viewBox="0 0 24 24" fill="none" xmlns="http://www.w3.org/2000/svg">
<path d="M8.63203 5.18708C10.2587 4.38299 12.1193 4.18741 13.8776 4.63571C15.4184 5.02855 16.7914 5.89311 17.8094 7.10012L16.0001 7.10012C15.503 7.10012 15.1001 7.50307 15.1001 8.00012C15.1001 8.49718 15.503 8.90012 16.0001 8.90012L20.0001 8.90012C20.4971 8.90012 20.9001 8.49718 20.9001 8.00012V4.00012C20.9001 3.50307 20.4971 3.10012 20.0001 3.10012C19.503 3.10012 19.1001 3.50307 19.1001 4.00012V5.83989C17.85 4.39909 16.1853 3.3665 14.3223 2.89151C12.1476 2.33704 9.84625 2.57894 7.83437 3.57347C5.82248 4.56801 4.23282 6.24955 3.35277 8.31408C2.47272 10.3786 2.36036 12.6899 3.03602 14.83C3.71167 16.9702 5.13074 18.798 7.03667 19.983C8.9426 21.168 11.2096 21.6319 13.4278 21.291C15.6461 20.9501 17.6691 19.8268 19.1313 18.1242C20.5934 16.4215 21.3981 14.252 21.3999 12.0077C21.4003 11.5106 20.9977 11.1074 20.5006 11.107C20.0036 11.1066 19.6003 11.5092 19.5999 12.0062C19.5985 13.8207 18.9478 15.5749 17.7657 16.9515C16.5835 18.3281 14.9479 19.2363 13.1544 19.5119C11.3609 19.7875 9.52805 19.4124 7.98708 18.4543C6.44611 17.4963 5.29878 16.0185 4.75251 14.2881C4.20624 12.5578 4.29708 10.6891 5.00861 9.01991C5.72014 7.35072 7.0054 5.99118 8.63203 5.18708Z" fill="currentColor"/>
</svg>
