<svg width="24" height="24" viewBox="0 0 24 24" fill="none" xmlns="http://www.w3.org/2000/svg">
<path d="M14.43 4.57789C14.43 3.25711 13.359 2.18994 12.0406 2.18994C11.0617 2.18994 10.1819 2.78693 9.82023 3.69648L7.02995 10.7138V21.8052L18.135 21.8052C18.3513 21.8052 18.5605 21.8052 18.7388 21.7918C18.9356 21.7769 19.1584 21.7425 19.3874 21.6403C19.7132 21.495 19.9914 21.2609 20.1904 20.9648C20.3302 20.7567 20.4023 20.5431 20.4506 20.3517C20.4944 20.1783 20.5301 19.9723 20.5672 19.7591L21.618 13.71C21.7243 13.0985 21.8139 12.5829 21.8502 12.1589C21.888 11.7177 21.8789 11.2795 21.7217 10.8499C21.4877 10.2106 21.0363 9.67395 20.4464 9.334C20.05 9.10554 19.6199 9.02162 19.1788 8.98334C18.7547 8.94654 18.2315 8.94656 17.6107 8.94657L14.43 8.94657V4.57789Z" fill="currentColor"/>
<path d="M5.22995 21.8052V10.8018L3.80785 10.8018C3.68761 10.8017 3.5493 10.8017 3.42827 10.8116C3.28923 10.8229 3.09587 10.8517 2.89437 10.9544C2.63094 11.0886 2.41677 11.3028 2.28254 11.5662C2.17987 11.7677 2.15111 11.961 2.13975 12.1001C2.12987 12.2211 2.12991 12.3594 2.12995 12.4797L2.12996 20.1273C2.12992 20.2475 2.12987 20.3858 2.13976 20.5069C2.15112 20.6459 2.17988 20.8393 2.28255 21.0408C2.41678 21.3042 2.63095 21.5183 2.89438 21.6526C3.09587 21.7552 3.28924 21.784 3.42827 21.7954C3.54929 21.8052 3.68756 21.8052 3.80779 21.8052H5.22995Z" fill="currentColor"/>
</svg>
