<svg width="24" height="24" viewBox="0 0 24 24" fill="none" xmlns="http://www.w3.org/2000/svg">
<path fill-rule="evenodd" clip-rule="evenodd" d="M8.90006 6.88895C8.90006 5.26198 10.2639 3.90009 12.0001 3.90009C13.7362 3.90009 15.1001 5.26198 15.1001 6.88895L15.1001 7.50016L16.9001 7.49998L16.9001 6.88895C16.9 4.22044 14.6821 2.1001 12.0001 2.1001C9.31794 2.1001 7.10006 4.2204 7.10006 6.88895V10.1002H6.57028C6.31598 10.1001 6.0739 10.1001 5.86995 10.1168C5.64755 10.1349 5.39244 10.1773 5.13746 10.3072C4.77995 10.4894 4.48929 10.7801 4.30713 11.1376C4.17721 11.3925 4.13483 11.6477 4.11665 11.8701C4.09999 12.074 4.10001 12.3161 4.10004 12.5704L4.10004 12.6002L4.10004 19.4299C4.10001 19.6842 4.09999 19.9262 4.11665 20.1302C4.13483 20.3526 4.17721 20.6077 4.30713 20.8627C4.48929 21.2202 4.77995 21.5109 5.13746 21.693C5.39244 21.8229 5.64755 21.8653 5.86995 21.8835C6.07392 21.9002 6.31596 21.9001 6.57028 21.9001H17.4298C17.6841 21.9001 17.9262 21.9002 18.1301 21.8835C18.3525 21.8653 18.6077 21.8229 18.8626 21.693C19.2201 21.5109 19.5108 21.2202 19.693 20.8627C19.8229 20.6077 19.8653 20.3526 19.8834 20.1302C19.9001 19.9262 19.9001 19.6842 19.9001 19.4299V12.5704C19.9001 12.3161 19.9001 12.074 19.8834 11.8701C19.8653 11.6477 19.8229 11.3925 19.693 11.1376C19.5108 10.7801 19.2201 10.4894 18.8626 10.3072C18.6077 10.1773 18.3525 10.1349 18.1301 10.1168C17.9262 10.1001 17.6842 10.1001 17.4299 10.1002H8.90006V6.88895Z" fill="currentColor"/>
</svg>
