<svg width="24" height="24" viewBox="0 0 24 24" fill="none" xmlns="http://www.w3.org/2000/svg">
<path fill-rule="evenodd" clip-rule="evenodd" d="M10.0259 2.42717C11.1116 1.32502 12.8894 1.3251 13.9751 2.42718L15.088 3.55697C15.2726 3.7442 15.525 3.84872 15.7877 3.84675L17.3736 3.83488C18.9206 3.8233 20.1776 5.08046 20.1661 6.62745L20.1543 8.21332C20.1523 8.47619 20.2569 8.72858 20.4441 8.91296L21.5739 10.026C22.676 11.1117 22.676 12.8895 21.5739 13.9753L20.4441 15.0882C20.2569 15.2726 20.1523 15.5251 20.1543 15.7879L20.1661 17.3738C20.1776 18.9207 18.9206 20.1778 17.3736 20.1663L15.7877 20.1544C15.5249 20.1525 15.2725 20.257 15.088 20.4442L13.9751 21.574C12.8893 22.6761 11.1116 22.6761 10.0259 21.574L8.91278 20.4442C8.72841 20.257 8.47596 20.1525 8.2131 20.1544L6.62726 20.1663C5.08027 20.1778 3.82317 18.9208 3.83475 17.3737L3.84662 15.7879C3.84859 15.5251 3.74401 15.2726 3.55677 15.0881L2.42705 13.9752C1.32493 12.8895 1.32494 11.1117 2.42705 10.026L3.55683 8.91294C3.74404 8.7285 3.84859 8.47611 3.84662 8.21331L3.83475 6.62744C3.82317 5.08038 5.08025 3.8233 6.62731 3.83488L8.21319 3.84675C8.47598 3.84872 8.72839 3.74416 8.91283 3.55694L10.0259 2.42717ZM15.3752 8.85324L16.6257 10.1479L10.824 15.7519L7.37517 12.4206L8.62571 11.126L10.824 13.2493L15.3752 8.85324Z" fill="currentColor"/>
</svg>
