<svg width="24" height="24" viewBox="0 0 24 24" fill="none" xmlns="http://www.w3.org/2000/svg">
<path fill-rule="evenodd" clip-rule="evenodd" d="M6.65147 2.60083C6.10439 2.60081 5.63361 2.60079 5.26695 2.63358C4.91634 2.66493 4.45477 2.73732 4.08835 3.0442C3.62869 3.42916 3.3777 4.0085 3.41125 4.60713C3.43798 5.08433 3.70086 5.47057 3.91779 5.74779C4.14465 6.03771 4.46662 6.38112 4.84082 6.78022L9.60013 11.8567L9.59998 18.2564C9.59907 18.3165 9.59623 18.5046 9.65192 18.688C9.69776 18.839 9.77291 18.9794 9.87308 19.1013C9.99475 19.2493 10.1529 19.3513 10.2033 19.3838L12.2752 20.7649C12.3776 20.8332 12.4998 20.9148 12.6103 20.9747C12.7204 21.0343 12.9614 21.1557 13.2717 21.1372C13.6219 21.1163 13.9455 20.9431 14.1571 20.6633C14.3446 20.4154 14.3774 20.1475 14.3888 20.0229C14.4003 19.8977 14.4002 19.7508 14.4001 19.6277L14.4001 11.8567L19.1593 6.7802C19.5335 6.38112 19.8555 6.03767 20.0823 5.74777C20.2992 5.47054 20.5621 5.0843 20.5888 4.6071C20.6224 4.00848 20.3714 3.42915 19.9117 3.04419C19.5453 2.73732 19.0837 2.66493 18.7331 2.63358C18.3665 2.60079 17.8957 2.60081 17.3487 2.60083H6.65147Z" fill="currentColor"/>
</svg>
