<svg width="24" height="24" viewBox="0 0 24 24" fill="none" xmlns="http://www.w3.org/2000/svg">
<path fill-rule="evenodd" clip-rule="evenodd" d="M15.1001 13.0503C15.5813 13.0503 15.9933 12.8789 16.336 12.5362C16.6787 12.1935 16.8501 11.7815 16.8501 11.3003C16.8501 10.819 16.6787 10.4071 16.336 10.0644C15.9933 9.72165 15.5813 9.55029 15.1001 9.55029C14.6188 9.55029 14.2069 9.72165 13.8642 10.0644C13.5215 10.4071 13.3501 10.819 13.3501 11.3003C13.3501 11.7815 13.5215 12.1935 13.8642 12.5362C14.2069 12.8789 14.6188 13.0503 15.1001 13.0503ZM18.6001 16.5503V16.0472C18.6001 15.6972 18.5053 15.3763 18.3157 15.0847C18.1261 14.793 17.8636 14.5743 17.5282 14.4284C17.1491 14.268 16.759 14.144 16.3579 14.0565C15.9569 13.969 15.5376 13.9253 15.1001 13.9253C14.6626 13.9253 14.2433 13.969 13.8423 14.0565C13.4412 14.144 13.0511 14.268 12.672 14.4284C12.3366 14.5743 12.0741 14.793 11.8845 15.0847C11.6949 15.3763 11.7001 15.7972 11.6001 16.0472V16.5503H18.6001Z" fill="currentColor"/>
<path fill-rule="evenodd" clip-rule="evenodd" d="M8.66437 5.90025C8.79138 5.90025 8.85769 5.90045 8.90673 5.90265C8.92128 5.9033 8.93045 5.90401 8.93548 5.90447C8.94137 5.90624 8.94709 5.90855 8.95256 5.91137C8.95651 5.91453 8.96359 5.92039 8.97451 5.93003C9.01132 5.96251 9.05917 6.00842 9.15055 6.09663L10.2923 7.19888L10.3275 7.23293C10.462 7.36333 10.6211 7.51764 10.8136 7.63238C10.981 7.73216 11.1628 7.80558 11.3525 7.85007C11.5708 7.90124 11.7924 7.90074 11.9797 7.90032L20.1 7.90025L20.1001 18.1002H3.90005L3.90008 5.90025H8.66437ZM9.3405 4.15043C9.1223 4.09926 8.90063 4.09976 8.71331 4.10018L3.77798 4.10024C3.65774 4.10021 3.51943 4.10016 3.39839 4.11005C3.25936 4.12141 3.06599 4.15017 2.86449 4.25284C2.60106 4.38706 2.38689 4.60123 2.25267 4.86466C2.15 5.06616 2.12124 5.25953 2.10988 5.39856C2.09999 5.5196 2.10003 5.6579 2.10007 5.77814L2.10004 18.2223C2.1 18.3426 2.09996 18.4809 2.10985 18.6019C2.12121 18.741 2.14997 18.9343 2.25264 19.1358C2.38686 19.3993 2.60103 19.6134 2.86446 19.7477C3.06596 19.8503 3.25932 19.8791 3.39836 19.8904C3.5194 19.9003 3.6577 19.9003 3.77794 19.9003H20.2222C20.3424 19.9003 20.4808 19.9003 20.6018 19.8904C20.7408 19.8791 20.9342 19.8503 21.1357 19.7477C21.3991 19.6134 21.6133 19.3993 21.7475 19.1358C21.8502 18.9343 21.8789 18.741 21.8903 18.6019C21.9012 18.4684 21.9001 18.3341 21.9001 18.2002L21.9 7.77819C21.9001 7.65795 21.9001 7.51958 21.8902 7.39855C21.8789 7.25952 21.8501 7.06615 21.7474 6.86466C21.6132 6.60123 21.399 6.38706 21.1356 6.25284C20.9341 6.15017 20.7408 6.12141 20.6017 6.11005C20.4807 6.10016 20.3424 6.10021 20.2221 6.10024L12.0287 6.10025C11.9017 6.10025 11.8354 6.10004 11.7863 6.09785C11.7718 6.0972 11.7626 6.09649 11.7576 6.09603C11.7517 6.09426 11.746 6.09195 11.7405 6.08913C11.7365 6.08597 11.7295 6.08011 11.7185 6.07047C11.6817 6.03798 11.6339 5.99208 11.5425 5.90387L10.3656 4.76757C10.2311 4.63717 10.072 4.48286 9.87942 4.36811C9.71201 4.26834 9.53025 4.19492 9.3405 4.15043Z" fill="currentColor"/>
</svg>
