<svg width="24" height="24" viewBox="0 0 24 24" fill="none" xmlns="http://www.w3.org/2000/svg">
<path fill-rule="evenodd" clip-rule="evenodd" d="M15.0004 4.1001C12.8464 4.1001 11.1004 5.84619 11.1004 8.0001C11.1004 10.154 12.8464 11.9001 15.0004 11.9001C17.1543 11.9001 18.9004 10.154 18.9004 8.0001C18.9004 5.84619 17.1543 4.1001 15.0004 4.1001ZM15.0003 13.6C12.9144 13.6 10.9852 14.162 9.55128 15.118C8.12362 16.0698 7.10025 17.4835 7.10025 19.1667L7.10024 19.1838C7.10016 19.2413 7.10006 19.3198 7.10653 19.3938C7.17632 20.1915 7.80876 20.8239 8.60645 20.8937C8.68042 20.9002 8.75892 20.9001 8.81643 20.9L8.83359 20.9H21.1669L21.184 20.9C21.2415 20.9001 21.3201 20.9002 21.3941 20.8937C22.1917 20.8239 22.8242 20.1915 22.894 19.3938C22.9004 19.3198 22.9003 19.2413 22.9003 19.1838L22.9003 19.1667C22.9003 17.4835 21.8769 16.0698 20.4492 15.118C19.0153 14.162 17.0862 13.6 15.0003 13.6ZM5.30033 19.1667C5.30033 17.5554 5.9388 16.1839 6.86783 15.1011C5.3844 15.1241 4.00638 15.5335 2.96521 16.2276C1.89948 16.938 1.09998 18.0184 1.09998 19.3334C1.09998 20.1985 1.80129 20.8999 2.6664 20.8999H5.71998C5.49832 20.4932 5.35597 20.0366 5.31346 19.5507C5.29899 19.3853 5.30003 19.2162 5.30029 19.1745L5.30033 19.1667ZM3.60009 10C3.60009 8.39837 4.89846 7.1 6.50009 7.1C8.10172 7.1 9.40009 8.39837 9.40009 10C9.40009 11.6016 8.10172 12.9 6.50009 12.9C4.89846 12.9 3.60009 11.6016 3.60009 10Z" fill="currentColor"/>
</svg>
