<svg width="24" height="24" viewBox="0 0 24 24" fill="none" xmlns="http://www.w3.org/2000/svg">
<path fill-rule="evenodd" clip-rule="evenodd" d="M19.9202 6.41748C20.4279 5.9098 20.4279 5.08668 19.9202 4.579C19.4125 4.07132 18.5894 4.07132 18.0817 4.579L11.5817 11.079C11.0741 11.5867 11.0741 12.4098 11.5817 12.9175L18.0817 19.4175C18.5894 19.9252 19.4125 19.9252 19.9202 19.4175C20.4279 18.9098 20.4279 18.0867 19.9202 17.579L14.3395 11.9982L19.9202 6.41748ZM11.9198 6.41768C12.4275 5.90999 12.4275 5.08688 11.9198 4.5792C11.4121 4.07152 10.589 4.07152 10.0813 4.5792L3.58132 11.0792C3.07364 11.5869 3.07364 12.41 3.58132 12.9177L10.0813 19.4177C10.589 19.9254 11.4121 19.9254 11.9198 19.4177C12.4275 18.91 12.4275 18.0869 11.9198 17.5792L6.33904 11.9984L11.9198 6.41768Z" fill="currentColor"/>
</svg>
