<svg width="24" height="24" viewBox="0 0 24 24" fill="none" xmlns="http://www.w3.org/2000/svg">
<path fill-rule="evenodd" clip-rule="evenodd" d="M8.90012 6.88898C8.90012 5.26199 10.264 3.9001 12.0001 3.9001C13.7363 3.9001 15.1001 5.262 15.1001 6.88898V10.1002L8.90012 10.1003V6.88898ZM7.10012 10.1002V6.88898C7.10012 4.22041 9.318 2.1001 12.0001 2.1001C14.6822 2.1001 16.9001 4.22041 16.9001 6.88898V10.1002L17.4299 10.1002C17.6842 10.1002 17.9262 10.1001 18.1302 10.1168C18.3526 10.135 18.6077 10.1774 18.8627 10.3073C19.2202 10.4894 19.5109 10.7801 19.693 11.1376C19.8229 11.3926 19.8653 11.6477 19.8835 11.8701C19.9002 12.0741 19.9001 12.3161 19.9001 12.5704V19.43C19.9001 19.6843 19.9002 19.9263 19.8835 20.1303C19.8653 20.3527 19.8229 20.6078 19.693 20.8628C19.5109 21.2203 19.2202 21.511 18.8627 21.6931C18.6077 21.823 18.3526 21.8654 18.1302 21.8836C17.9262 21.9003 17.6842 21.9002 17.4299 21.9002H6.57034C6.31602 21.9002 6.07398 21.9003 5.87002 21.8836C5.64761 21.8654 5.3925 21.823 5.13752 21.6931C4.78001 21.511 4.48935 21.2203 4.30719 20.8628C4.17727 20.6078 4.13489 20.3527 4.11671 20.1303C4.10005 19.9263 4.10007 19.6843 4.1001 19.43L4.1001 12.6002L4.1001 12.5704C4.10007 12.3161 4.10005 12.0741 4.11671 11.8701C4.13489 11.6477 4.17727 11.3926 4.30719 11.1376C4.48935 10.7801 4.78001 10.4894 5.13752 10.3073C5.3925 10.1774 5.64761 10.135 5.87002 10.1168C6.07396 10.1001 6.31599 10.1002 6.57029 10.1002C6.74688 10.1002 6.92353 10.1002 7.10012 10.1002ZM6.00015 11.9C5.94492 11.9 5.90015 11.9448 5.90015 12V20C5.90015 20.0552 5.94492 20.1 6.00015 20.1H18.0002C18.0554 20.1 18.1002 20.0552 18.1002 20V12C18.1002 11.9448 18.0554 11.9 18.0002 11.9H6.00015Z" fill="currentColor"/>
</svg>
