<svg width="24" height="24" viewBox="0 0 24 24" fill="none" xmlns="http://www.w3.org/2000/svg">
<path fill-rule="evenodd" clip-rule="evenodd" d="M12 3.9001C7.52653 3.9001 3.90004 7.52659 3.90004 12.0001C3.90004 16.4736 7.52653 20.1001 12 20.1001C16.4735 20.1001 20.1 16.4736 20.1 12.0001C20.1 7.52659 16.4735 3.9001 12 3.9001ZM2.10004 12.0001C2.10004 6.53248 6.53241 2.1001 12 2.1001C17.4676 2.1001 21.9 6.53248 21.9 12.0001C21.9 17.4677 17.4676 21.9001 12 21.9001C6.53241 21.9001 2.10004 17.4677 2.10004 12.0001Z" fill="currentColor"/>
<path d="M9.39993 16.4001V8.0001H12.8418C14.7371 8.0001 15.9057 9.17772 15.8999 10.889C15.9057 12.6236 14.7139 13.7664 12.7836 13.7664H11.3767V16.4001H9.39993ZM11.3767 12.2001H12.4232C13.3592 12.2059 13.8534 11.6838 13.8534 10.889C13.8534 10.1059 13.3592 9.6012 12.4232 9.6012H11.3767V12.2001Z" fill="currentColor"/>
</svg>
