<svg width="24" height="24" viewBox="0 0 24 24" fill="none" xmlns="http://www.w3.org/2000/svg">
<path fill-rule="evenodd" clip-rule="evenodd" d="M5.36989 2.11671C5.57385 2.10005 5.8159 2.10007 6.07022 2.1001H15.0643L20.4 7.7026L20.4 19.4299C20.4 19.6842 20.4 19.9262 20.3834 20.1302C20.3652 20.3526 20.3228 20.6077 20.1929 20.8627C20.0107 21.2202 19.7201 21.5108 19.3626 21.693C19.1076 21.8229 18.8525 21.8653 18.6301 21.8835C18.4261 21.9001 18.184 21.9001 17.9297 21.9001H6.07016C5.81586 21.9001 5.57384 21.9001 5.36989 21.8835C5.14748 21.8653 4.89237 21.8229 4.6374 21.693C4.27989 21.5108 3.98922 21.2202 3.80707 20.8627C3.67715 20.6077 3.63476 20.3526 3.61659 20.1302C3.59993 19.9262 3.59995 19.6842 3.59998 19.4299V4.57034C3.59995 4.31602 3.59993 4.07397 3.61659 3.87001C3.63476 3.6476 3.67715 3.39249 3.80707 3.13752C3.98922 2.78001 4.27989 2.48935 4.6374 2.30719C4.89237 2.17727 5.14748 2.13488 5.36989 2.11671ZM5.39996 3.9999C5.39996 3.94467 5.44474 3.8999 5.49996 3.8999H13.1V8.90029H18.6V19.9999C18.6 20.0551 18.5552 20.0999 18.5 20.0999H5.49996C5.44473 20.0999 5.39996 20.0551 5.39996 19.9999V3.9999ZM14.9 7.10029V4.5374L17.3408 7.10029H14.9Z" fill="currentColor"/>
<path d="M12.5 15.3005H7.5V13.5005H12.5V15.3005Z" fill="currentColor"/>
<path d="M7.5 18.3005H12.5V16.5005H7.5V18.3005Z" fill="currentColor"/>
</svg>
