<svg width="24" height="24" viewBox="0 0 24 24" fill="none" xmlns="http://www.w3.org/2000/svg">
<path fill-rule="evenodd" clip-rule="evenodd" d="M5.67837 5.05045C7.3268 3.0885 9.66312 2.1001 11.9968 2.1001C14.3303 2.1001 16.6569 3.07828 18.3156 5.0508C21.1806 8.45715 20.7358 13.4829 17.6544 16.5754L17.6532 16.5765C15.9046 18.3251 13.8924 20.4505 13.0482 21.3422C12.9907 21.403 12.9385 21.458 12.8923 21.5069C12.4071 22.0245 11.5867 22.0245 11.1014 21.5069C11.0552 21.4581 11.003 21.403 10.9455 21.3422C10.1013 20.4505 8.08908 18.3251 6.34045 16.5765L6.33931 16.5754C3.25868 13.4836 2.81235 8.44765 5.67837 5.05045ZM11.9968 3.9001C10.1709 3.9001 8.34751 4.67144 7.05598 6.20897L7.05467 6.21052C4.84159 8.83311 5.13521 12.8162 7.61381 15.3043C9.22211 16.9126 11.0465 18.8315 11.9968 19.8346C12.9472 18.8315 14.7715 16.9126 16.3798 15.3043C18.8579 12.8168 19.153 8.84287 16.9381 6.2094C15.6368 4.66196 13.8234 3.9001 11.9968 3.9001ZM11.9968 9.3601C11.4539 9.3601 11.0168 9.79715 11.0168 10.3401C11.0168 10.883 11.4539 11.3201 11.9968 11.3201C12.5398 11.3201 12.9768 10.883 12.9768 10.3401C12.9768 9.79715 12.5398 9.3601 11.9968 9.3601ZM9.21685 10.3401C9.21685 8.80304 10.4598 7.5601 11.9968 7.5601C13.5339 7.5601 14.7768 8.80304 14.7768 10.3401C14.7768 11.8772 13.5339 13.1201 11.9968 13.1201C10.4598 13.1201 9.21685 11.8772 9.21685 10.3401Z" fill="currentColor"/>
</svg>
