<svg width="24" height="24" viewBox="0 0 24 24" fill="none" xmlns="http://www.w3.org/2000/svg">
<path fill-rule="evenodd" clip-rule="evenodd" d="M12.0003 2.1001C6.53272 2.1001 2.10034 6.53248 2.10034 12.0001C2.10034 17.4677 6.53272 21.9001 12.0003 21.9001C17.468 21.9001 21.9003 17.4677 21.9003 12.0001C21.9003 6.53248 17.468 2.1001 12.0003 2.1001ZM3.90034 12.0001C3.90034 7.52659 7.52683 3.9001 12.0003 3.9001C13.9129 3.9001 15.6706 4.56292 17.0563 5.67139L5.67163 17.056C4.56317 15.6703 3.90034 13.9126 3.90034 12.0001ZM6.94442 18.3288C8.33013 19.4373 10.0878 20.1001 12.0003 20.1001C16.4738 20.1001 20.1003 16.4736 20.1003 12.0001C20.1003 10.0876 19.4375 8.32988 18.3291 6.94418L6.94442 18.3288Z" fill="currentColor"/>
</svg>
