<svg width="24" height="24" viewBox="0 0 24 24" fill="none" xmlns="http://www.w3.org/2000/svg">
<path fill-rule="evenodd" clip-rule="evenodd" d="M7.32248 7.27788C7.32248 4.69441 9.41679 2.6001 12.0003 2.6001C14.5837 2.6001 16.678 4.69441 16.678 7.27788C16.678 9.86134 14.5837 11.9557 12.0003 11.9557C9.41679 11.9557 7.32248 9.86134 7.32248 7.27788ZM12.0003 13.1011C14.9325 13.1011 17.8057 13.9227 20.3097 15.4424C20.503 15.5595 20.7371 15.7012 20.9334 15.9266C21.0993 16.1172 21.2352 16.3593 21.3116 16.6001C21.4022 16.8857 21.4013 17.176 21.4006 17.4189L21.4005 18.9304C21.4005 19.1847 21.4005 19.4268 21.3839 19.6308C21.3657 19.8532 21.3233 20.1083 21.1934 20.3633C21.0112 20.7208 20.7206 21.0114 20.3631 21.1936C20.1081 21.3235 19.853 21.3659 19.6306 21.3841C19.4266 21.4007 19.1845 21.4007 18.9302 21.4007H5.07071C4.81639 21.4007 4.57434 21.4007 4.37038 21.3841C4.14797 21.3659 3.89287 21.3235 3.63789 21.1936C3.28038 21.0114 2.98972 20.7208 2.80756 20.3633C2.67764 20.1083 2.63526 19.8532 2.61708 19.6308C2.60042 19.4268 2.60044 19.1848 2.60047 18.9304L2.60035 17.4187C2.59964 17.1758 2.59879 16.8855 2.68934 16.5999C2.7657 16.3591 2.90168 16.117 3.0676 15.9264C3.26388 15.701 3.49795 15.5593 3.69126 15.4422C6.19522 13.9227 9.06829 13.1011 12.0003 13.1011Z" fill="currentColor"/>
<path fill-rule="evenodd" clip-rule="evenodd" d="M19.1004 10.1005V8.50049H20.9004V10.1005H22.5004V11.9005H20.9004V13.5005H19.1004V11.9005H17.5004V10.1005H19.1004Z" fill="currentColor"/>
</svg>
