<svg width="24" height="24" viewBox="0 0 24 24" fill="none" xmlns="http://www.w3.org/2000/svg">
<path fill-rule="evenodd" clip-rule="evenodd" d="M8.77825 2.1001H15.2224C15.3427 2.10006 15.481 2.10002 15.602 2.10991C15.7411 2.12127 15.9344 2.15003 16.1359 2.2527C16.3994 2.38692 16.6135 2.60109 16.7478 2.86452C16.8504 3.06602 16.8792 3.25939 16.8905 3.39842C16.9004 3.51946 16.9004 3.65776 16.9003 3.778L16.9003 5.6001L18.6337 5.6001C19.0252 5.60008 19.3717 5.60007 19.6588 5.62353C19.9646 5.64851 20.2815 5.70452 20.5899 5.86169C21.0415 6.09178 21.4087 6.45893 21.6387 6.91052C21.7959 7.21898 21.8519 7.53583 21.8769 7.84162C21.9004 8.12877 21.9004 8.47525 21.9003 8.86676V17.6334C21.9004 18.025 21.9004 18.3714 21.8769 18.6586C21.8519 18.9644 21.7959 19.2812 21.6387 19.5897C21.4087 20.0413 21.0415 20.4084 20.5899 20.6385C20.2815 20.7957 19.9646 20.8517 19.6588 20.8767C19.3717 20.9001 19.0252 20.9001 18.6338 20.9001H5.36701C4.97554 20.9001 4.62899 20.9001 4.34186 20.8767C4.03607 20.8517 3.71922 20.7957 3.41077 20.6385C2.95918 20.4084 2.59203 20.0413 2.36193 19.5897C2.20477 19.2812 2.14876 18.9644 2.12377 18.6586C2.10031 18.3715 2.10033 18.025 2.10034 17.6336V8.86677C2.10033 8.47533 2.10031 8.12873 2.12377 7.84162C2.14876 7.53583 2.20477 7.21898 2.36193 6.91052C2.59203 6.45893 2.95918 6.09178 3.41077 5.86169C3.71922 5.70452 4.03608 5.64851 4.34186 5.62353C4.629 5.60007 4.97548 5.60008 5.36697 5.6001L7.10035 5.6001L7.10035 3.77801C7.10031 3.65777 7.10026 3.51945 7.11015 3.39842C7.12151 3.25939 7.15027 3.06602 7.25294 2.86452C7.38716 2.60109 7.60134 2.38692 7.86476 2.2527C8.06626 2.15003 8.25963 2.12127 8.39866 2.10991C8.5197 2.10002 8.65801 2.10006 8.77825 2.1001ZM15.1003 3.90011V5.60011L8.90035 5.6001V3.90011H15.1003ZM9.25024 11.9H14.7502V10.1H9.25024V11.9Z" fill="currentColor"/>
</svg>
