<svg width="24" height="24" viewBox="0 0 24 24" fill="none" xmlns="http://www.w3.org/2000/svg">
<path fill-rule="evenodd" clip-rule="evenodd" d="M5.44963 2.1001C5.02224 2.10003 4.61627 2.09997 4.28321 2.14475C3.9111 2.19478 3.49845 2.31507 3.15691 2.65661C2.81537 2.99814 2.69508 3.4108 2.64505 3.78291C2.60027 4.11597 2.60034 4.52194 2.60041 4.94933L2.60041 21.9001H14.6004V17.0001H16.4003V21.8999H21.4004L21.4004 12.9491C21.4005 12.5217 21.4005 12.1158 21.3558 11.7827C21.3057 11.4106 21.1854 10.9979 20.8439 10.6564C20.5024 10.3149 20.0897 10.1946 19.7176 10.1445C19.3845 10.0998 18.9786 10.0998 18.5512 10.0999L15.4004 10.0999L15.4004 4.94932C15.4004 4.52193 15.4005 4.11597 15.3557 3.78291C15.3057 3.4108 15.1854 2.99814 14.8439 2.65661C14.5023 2.31507 14.0897 2.19478 13.7176 2.14475C13.3845 2.09997 12.9785 2.10003 12.5511 2.1001H5.44963ZM11.5004 11.9001H6.50038V10.1001H11.5004V11.9001ZM11.5004 7.90009H6.50038V6.10009H11.5004V7.90009Z" fill="currentColor"/>
</svg>
