<svg width="24" height="24" viewBox="0 0 24 24" fill="none" xmlns="http://www.w3.org/2000/svg">
<path d="M13.7501 4.75C13.7501 5.7165 12.9666 6.5 12.0001 6.5C11.0336 6.5 10.2501 5.7165 10.2501 4.75C10.2501 3.7835 11.0336 3 12.0001 3C12.9666 3 13.7501 3.7835 13.7501 4.75Z" fill="currentColor"/>
<path d="M13.7501 12C13.7501 12.9665 12.9666 13.75 12.0001 13.75C11.0336 13.75 10.2501 12.9665 10.2501 12C10.2501 11.0335 11.0336 10.25 12.0001 10.25C12.9666 10.25 13.7501 11.0335 13.7501 12Z" fill="currentColor"/>
<path d="M12.0001 21C12.9666 21 13.7501 20.2165 13.7501 19.25C13.7501 18.2835 12.9666 17.5 12.0001 17.5C11.0336 17.5 10.2501 18.2835 10.2501 19.25C10.2501 20.2165 11.0336 21 12.0001 21Z" fill="currentColor"/>
</svg>
