<svg width="24" height="24" viewBox="0 0 24 24" fill="none" xmlns="http://www.w3.org/2000/svg">
<path fill-rule="evenodd" clip-rule="evenodd" d="M9.61152 2.3501H14.3894C15.4765 2.35009 16.3472 2.35008 17.0509 2.40758C17.7736 2.46663 18.3992 2.59076 18.975 2.88417C19.897 3.35395 20.6466 4.10355 21.1164 5.02554C21.4098 5.60139 21.5339 6.22695 21.593 6.94962C21.6505 7.65339 21.6505 8.52407 21.6505 9.61115V14.3891C21.6505 15.4761 21.6505 16.3468 21.593 17.0506C21.5339 17.7732 21.4098 18.3988 21.1164 18.9747C20.6466 19.8966 19.897 20.6462 18.975 21.116C18.3992 21.4094 17.7736 21.5336 17.0509 21.5926C16.3472 21.6501 15.4765 21.6501 14.3894 21.6501H9.61151C8.52444 21.6501 7.65376 21.6501 6.94998 21.5926C6.22732 21.5336 5.60176 21.4094 5.02591 21.116C4.10392 20.6462 3.35431 19.8966 2.88453 18.9747C2.59112 18.3988 2.46699 17.7732 2.40795 17.0506C2.35045 16.3468 2.35046 15.4761 2.35046 14.389V9.61115C2.35046 8.52407 2.35045 7.65339 2.40795 6.94962C2.46699 6.22695 2.59112 5.60139 2.88453 5.02554C3.35431 4.10355 4.10392 3.35395 5.02591 2.88417C5.60176 2.59076 6.22732 2.46663 6.94998 2.40758C7.65376 2.35008 8.52444 2.35009 9.61152 2.3501Z" fill="currentColor"/>
</svg>
