<svg width="24" height="24" viewBox="0 0 24 24" fill="none" xmlns="http://www.w3.org/2000/svg">
<path fill-rule="evenodd" clip-rule="evenodd" d="M18.6709 2.6074C18.2893 2.48341 17.8783 2.48341 17.4967 2.6074C17.2245 2.69583 17.0141 2.84625 16.844 2.99066C16.688 3.1231 16.5169 3.29426 16.3371 3.4741L16.316 3.49517L3.10046 16.7107V20.9002H7.28992L20.5055 7.68462L20.5265 7.66358C20.7064 7.48377 20.8775 7.31263 21.01 7.15663C21.1544 6.98651 21.3048 6.77615 21.3932 6.50399C21.5172 6.12239 21.5172 5.71133 21.3932 5.32973C21.3048 5.05756 21.1544 4.8472 21.01 4.67709C20.8775 4.52109 20.7064 4.34996 20.5265 4.17016L19.8305 3.47412C19.6507 3.29427 19.4796 3.1231 19.3236 2.99066C19.1534 2.84625 18.9431 2.69583 18.6709 2.6074Z" fill="currentColor"/>
</svg>
