<svg width="24" height="24" viewBox="0 0 24 24" fill="none" xmlns="http://www.w3.org/2000/svg">
<path fill-rule="evenodd" clip-rule="evenodd" d="M12.0003 2.34998C6.67073 2.34998 2.35028 6.67043 2.35028 12C2.35028 17.3295 6.67073 21.65 12.0003 21.65C13.5386 21.65 14.995 21.2894 16.2874 20.6475L18.0621 21.1315L18.1 21.1419C18.5101 21.2537 18.8759 21.3535 19.1765 21.4066C19.4811 21.4604 19.8671 21.497 20.2528 21.3498C20.758 21.1569 21.1571 20.7578 21.3501 20.2525C21.4973 19.8668 21.4607 19.4808 21.4069 19.1762C21.3538 18.8757 21.254 18.5098 21.1421 18.0997L21.1318 18.0618L20.6478 16.2871C21.2897 14.9947 21.6503 13.5383 21.6503 12C21.6503 6.67043 17.3298 2.34998 12.0003 2.34998ZM12.9003 11.1V7.09996H11.1003V11.1H7.10028V12.9H11.1003V16.9H12.9003V12.9H16.9003V11.1H12.9003Z" fill="currentColor"/>
</svg>
