<svg width="24" height="24" viewBox="0 0 24 24" fill="none" xmlns="http://www.w3.org/2000/svg">
<path fill-rule="evenodd" clip-rule="evenodd" d="M9.34063 4.14994C9.12242 4.09877 8.90075 4.09927 8.71343 4.09969L3.7781 4.09976C3.65786 4.09972 3.51955 4.09967 3.39851 4.10956C3.25948 4.12092 3.06611 4.14968 2.86461 4.25235C2.60119 4.38657 2.38701 4.60075 2.25279 4.86417C2.15012 5.06567 2.12136 5.25904 2.11 5.39807C2.10011 5.51911 2.10016 5.65742 2.10019 5.77766L2.10016 18.2219C2.10012 18.3421 2.10008 18.4804 2.10997 18.6014C2.12133 18.7405 2.15009 18.9338 2.25276 19.1353C2.38698 19.3988 2.60115 19.6129 2.86458 19.7472C3.06608 19.8498 3.25945 19.8786 3.39848 19.89C3.51952 19.8998 3.65782 19.8998 3.77807 19.8998H20.2223C20.3426 19.8998 20.4809 19.8998 20.6019 19.89C20.7409 19.8786 20.9343 19.8498 21.1358 19.7472C21.3992 19.6129 21.6134 19.3988 21.7476 19.1353C21.8503 18.9338 21.8791 18.7405 21.8904 18.6014C21.9003 18.4804 21.9003 18.342 21.9002 18.2218L21.9002 7.77763C21.9002 7.6574 21.9002 7.5191 21.8903 7.39806C21.879 7.25903 21.8502 7.06567 21.7476 6.86417C21.6133 6.60074 21.3992 6.38657 21.1357 6.25235C20.9342 6.14968 20.7409 6.12092 20.6018 6.10956C20.4808 6.09967 20.3425 6.09972 20.2223 6.09976L12.0288 6.09976C11.9018 6.09976 11.8355 6.09955 11.7864 6.09736C11.7719 6.09671 11.7627 6.096 11.7577 6.09554C11.7518 6.09377 11.7461 6.09146 11.7406 6.08864C11.7367 6.08548 11.7296 6.07962 11.7187 6.06998C11.6819 6.0375 11.634 5.99159 11.5426 5.90338L10.4008 4.80113L10.3657 4.76709C10.2312 4.63668 10.0721 4.48237 9.87955 4.36763C9.71213 4.26785 9.53037 4.19443 9.34063 4.14994ZM11.6416 9.62629C11.7883 9.329 12.2122 9.329 12.359 9.62629L13.1562 11.2418C13.2145 11.3598 13.3271 11.4416 13.4574 11.4606L15.2402 11.7196C15.5683 11.7673 15.6993 12.1705 15.4619 12.4019L14.1718 13.6594C14.0776 13.7513 14.0346 13.8837 14.0568 14.0134L14.3613 15.789C14.4174 16.1158 14.0744 16.3649 13.781 16.2107L12.1864 15.3724C12.0699 15.3111 11.9307 15.3111 11.8141 15.3724L10.2196 16.2107C9.92611 16.3649 9.58314 16.1158 9.63918 15.789L9.94372 14.0134C9.96597 13.8837 9.92295 13.7513 9.82868 13.6594L8.53865 12.4019C8.30125 12.1705 8.43225 11.7673 8.76034 11.7196L10.5431 11.4606C10.6734 11.4416 10.786 11.3598 10.8443 11.2418L11.6416 9.62629Z" fill="currentColor"/>
</svg>
