<svg width="24" height="24" viewBox="0 0 24 24" fill="none" xmlns="http://www.w3.org/2000/svg">
<path fill-rule="evenodd" clip-rule="evenodd" d="M14.3891 2.3501H9.61124C8.52418 2.35009 7.65349 2.35008 6.94972 2.40758C6.22706 2.46663 5.6015 2.59076 5.02566 2.88417C4.10367 3.35395 3.35406 4.10355 2.88429 5.02555C2.59088 5.60139 2.46675 6.22695 2.40771 6.94962C2.35021 7.65338 2.35021 8.52406 2.35022 9.61112V14.389C2.35021 15.4761 2.35021 16.3468 2.40771 17.0506C2.46675 17.7732 2.59088 18.3988 2.88429 18.9747C3.35406 19.8966 4.10367 20.6462 5.02566 21.116C5.6015 21.4094 6.22706 21.5336 6.94972 21.5926C7.65347 21.6501 8.52412 21.6501 9.61115 21.6501H14.3891C15.4762 21.6501 16.3469 21.6501 17.0506 21.5926C17.7733 21.5336 18.3989 21.4094 18.9747 21.116C19.8967 20.6462 20.6463 19.8966 21.1161 18.9747C21.4095 18.3988 21.5336 17.7732 21.5927 17.0506C21.6502 16.3468 21.6502 15.4761 21.6501 14.3891V9.61115C21.6502 8.52407 21.6502 7.65339 21.5927 6.94962C21.5336 6.22695 21.4095 5.60139 21.1161 5.02555C20.6463 4.10355 19.8967 3.35395 18.9747 2.88417C18.3989 2.59076 17.7733 2.46663 17.0506 2.40758C16.3469 2.35008 15.4762 2.35009 14.3891 2.3501ZM6.55006 7.84952C6.55006 8.56716 7.13057 9.14895 7.84959 9.14895C8.56565 9.14895 9.14617 8.56421 9.14617 7.84952C9.14617 7.13189 8.56565 6.5501 7.84959 6.5501C7.13057 6.5501 6.55006 7.13189 6.55006 7.84952ZM6.72981 17.3501H8.96936V10.1324H6.72981V17.3501ZM17.35 17.3501H15.1134V13.8416C15.1134 13.0059 15.0987 11.9279 13.9494 11.9279C12.7854 11.9279 12.6086 12.8405 12.6086 13.7826V17.3501H10.375V10.1324H12.5202V11.1188H12.5497C12.8473 10.5517 13.5781 9.95223 14.6655 9.95223C16.9316 9.95223 17.35 11.4466 17.35 13.3898V17.3501Z" fill="currentColor"/>
</svg>
