<svg width="24" height="24" viewBox="0 0 24 24" fill="none" xmlns="http://www.w3.org/2000/svg">
<path fill-rule="evenodd" clip-rule="evenodd" d="M17.146 9.6268L10.6766 16.2922L6.85434 12.3541L8.14598 11.1004L10.6766 13.7078L15.8543 8.37315L17.146 9.6268Z" fill="currentColor"/>
<path fill-rule="evenodd" clip-rule="evenodd" d="M12.0002 3.89998C7.52665 3.89998 3.90016 7.52647 3.90016 12C3.90016 16.4735 7.52665 20.1 12.0002 20.1C16.4737 20.1 20.1002 16.4735 20.1002 12C20.1002 7.52647 16.4737 3.89998 12.0002 3.89998ZM2.10016 12C2.10016 6.53236 6.53254 2.09998 12.0002 2.09998C17.4678 2.09998 21.9002 6.53236 21.9002 12C21.9002 17.4676 17.4678 21.9 12.0002 21.9C6.53254 21.9 2.10016 17.4676 2.10016 12Z" fill="currentColor"/>
</svg>
