<svg width="24" height="24" viewBox="0 0 24 24" fill="none" xmlns="http://www.w3.org/2000/svg">
<path fill-rule="evenodd" clip-rule="evenodd" d="M14.3633 2.06299C14.7231 2.20512 14.9518 2.5613 14.9314 2.94763L14.5845 9.50005H18.4003C18.7577 9.50005 19.0812 9.71152 19.2246 10.0389C19.368 10.3662 19.3042 10.7474 19.0619 11.0102L9.13542 21.7749C8.86629 22.0667 8.43771 22.1478 8.08059 21.9743C7.72348 21.8009 7.52219 21.4139 7.58519 21.0219L8.60877 14.653H4.90026C4.55026 14.653 4.23201 14.4501 4.08432 14.1328C3.93662 13.8155 3.98628 13.4413 4.21162 13.1735L13.344 2.32058C13.5931 2.02457 14.0034 1.92085 14.3633 2.06299Z" fill="currentColor"/>
</svg>
