<svg width="24" height="24" viewBox="0 0 24 24" fill="none" xmlns="http://www.w3.org/2000/svg">
<path fill-rule="evenodd" clip-rule="evenodd" d="M16.2726 7.1267C15.9273 7.48428 15.3576 7.49428 15 7.14902L12.9001 5.12157V14.5008C12.9001 14.9978 12.4972 15.4008 12.0001 15.4008C11.5031 15.4008 11.1001 14.9978 11.1001 14.5008V5.12157L9.00026 7.14902C8.64267 7.49428 8.07291 7.48428 7.72766 7.1267C7.38241 6.76911 7.3924 6.19935 7.74999 5.8541L11.375 2.3541C11.7237 2.01738 12.2765 2.01738 12.6253 2.3541L16.2503 5.8541C16.6078 6.19935 16.6178 6.76911 16.2726 7.1267ZM20.9001 9.99941L20.9001 19.4298C20.9002 19.6841 20.9002 19.9261 20.8835 20.1301C20.8654 20.3525 20.823 20.6076 20.6931 20.8626C20.5109 21.2201 20.2202 21.5108 19.8627 21.6929C19.6078 21.8228 19.3526 21.8652 19.1302 21.8834C18.9263 21.9001 18.6843 21.9 18.43 21.9H5.5704C5.3161 21.9 5.07402 21.9001 4.87007 21.8834C4.64767 21.8652 4.39256 21.8228 4.13758 21.6929C3.78007 21.5108 3.48941 21.2201 3.30725 20.8626C3.17733 20.6076 3.13495 20.3525 3.11677 20.1301C3.10011 19.9261 3.10013 19.6841 3.10016 19.4298V9.99941H4.90016V19.9997C4.90016 20.0549 4.94494 20.0997 5.00016 20.0997H19.0001C19.0554 20.0997 19.1002 20.0549 19.1002 19.9997V9.99941H20.9001Z" fill="currentColor"/>
</svg>
