<svg width="24" height="24" viewBox="0 0 24 24" fill="none" xmlns="http://www.w3.org/2000/svg">
<path fill-rule="evenodd" clip-rule="evenodd" d="M10.9018 2.3787C11.0911 2.1421 11.4422 1.79346 12.0002 1.79346C12.5581 1.79346 12.9092 2.1421 13.0986 2.3787C13.2732 2.59691 13.4468 2.89524 13.6154 3.18502C13.6243 3.20025 13.6331 3.21546 13.642 3.23063L15.9505 7.19419C15.9586 7.20795 15.9659 7.22057 15.9727 7.23225C15.9859 7.23512 16.0002 7.23822 16.0158 7.24159L20.4987 8.21236C20.5159 8.21607 20.5331 8.21979 20.5503 8.22351C20.878 8.29436 21.2154 8.3673 21.4769 8.46592C21.7604 8.57286 22.2005 8.79904 22.3729 9.3297C22.5453 9.86036 22.3223 10.302 22.1557 10.5552C22.0022 10.7887 21.7721 11.046 21.5486 11.2959C21.5368 11.3091 21.5251 11.3222 21.5134 11.3353L18.4573 14.7556C18.4466 14.7675 18.4369 14.7784 18.4279 14.7885C18.4293 14.802 18.4307 14.8165 18.4323 14.8324L18.8944 19.3959C18.8962 19.4133 18.8979 19.4308 18.8997 19.4483C18.9336 19.7819 18.9685 20.1253 18.9555 20.4045C18.9414 20.7072 18.8623 21.1956 18.4109 21.5236C17.9595 21.8516 17.4705 21.7759 17.1783 21.6957C16.9088 21.6218 16.593 21.4825 16.2862 21.3472C16.2701 21.3401 16.254 21.333 16.2379 21.3259L12.0405 19.4763C12.0259 19.4699 12.0126 19.464 12.0002 19.4585C11.9878 19.464 11.9744 19.4699 11.9598 19.4763L7.76247 21.3259C7.74639 21.333 7.73029 21.3401 7.71416 21.3472C7.4074 21.4825 7.09159 21.6218 6.82208 21.6957C6.52984 21.7759 6.04087 21.8516 5.58947 21.5236C5.13806 21.1956 5.05894 20.7072 5.04485 20.4045C5.03186 20.1253 5.06675 19.7819 5.10063 19.4484C5.10242 19.4308 5.10419 19.4133 5.10596 19.3959L5.56802 14.8324C5.56962 14.8165 5.57109 14.802 5.57244 14.7885C5.56344 14.7784 5.5537 14.7675 5.54309 14.7556L2.48692 11.3353C2.47522 11.3222 2.4635 11.3091 2.45176 11.2959C2.22827 11.046 1.99819 10.7887 1.84461 10.5552C1.67809 10.302 1.45501 9.86036 1.62743 9.3297C1.79985 8.79904 2.23993 8.57286 2.52345 8.46592C2.78494 8.3673 3.12232 8.29436 3.45003 8.22351C3.46726 8.21979 3.48445 8.21607 3.50161 8.21236L7.98456 7.24159C8.00012 7.23822 8.0144 7.23513 8.02761 7.23225C8.03443 7.22057 8.04179 7.20795 8.0498 7.19419L10.3584 3.23063C10.3672 3.21546 10.376 3.20026 10.3849 3.18503C10.5536 2.89525 10.7272 2.59692 10.9018 2.3787Z" fill="currentColor"/>
</svg>
