<svg width="24" height="24" viewBox="0 0 24 24" fill="none" xmlns="http://www.w3.org/2000/svg">
<path d="M18.0001 14H15.0001V17H18.0001V14Z" fill="currentColor"/>
<path fill-rule="evenodd" clip-rule="evenodd" d="M16.1999 4.1H6.80001V1H5.00001V4.10078C4.75636 4.10244 4.53536 4.10758 4.34143 4.12343C4.03565 4.14841 3.71879 4.20442 3.41034 4.36158C2.95875 4.59168 2.5916 4.95883 2.3615 5.41042C2.20433 5.71888 2.14832 6.03573 2.12334 6.34151C2.09988 6.62867 2.0999 6.97516 2.09992 7.36667V17.6333C2.0999 18.0248 2.09988 18.3713 2.12334 18.6585C2.14832 18.9643 2.20433 19.2811 2.3615 19.5896C2.5916 20.0412 2.95875 20.4083 3.41034 20.6384C3.71879 20.7956 4.03564 20.8516 4.34143 20.8766C4.62856 20.9 4.97502 20.9 5.36648 20.9H18.6333C19.0247 20.9 19.3713 20.9 19.6584 20.8766C19.9642 20.8516 20.281 20.7956 20.5895 20.6384C21.0411 20.4083 21.4082 20.0412 21.6383 19.5896C21.7955 19.2811 21.8515 18.9643 21.8765 18.6585C21.9 18.3713 21.8999 18.0248 21.8999 17.6333V7.36666C21.8999 6.97518 21.9 6.62865 21.8765 6.34151C21.8515 6.03573 21.7955 5.71888 21.6383 5.41042C21.4082 4.95883 21.0411 4.59168 20.5895 4.36158C20.281 4.20442 19.9642 4.14841 19.6584 4.12343C19.3712 4.09996 19.0248 4.09998 18.6332 4.1L17.9999 4.1V1H16.1999V4.1ZM4.48801 5.91745C4.29354 5.93334 4.23993 5.95907 4.22752 5.9654C4.11462 6.02292 4.02284 6.11471 3.96531 6.22761C3.95899 6.24002 3.93325 6.29362 3.91736 6.48809C3.90062 6.69307 3.89992 6.96511 3.89992 7.4V9.2001H20.0999V7.4C20.0999 6.96511 20.0992 6.69307 20.0825 6.48809C20.0666 6.29362 20.0408 6.24002 20.0345 6.22761C19.977 6.11471 19.8852 6.02292 19.7723 5.9654C19.7599 5.95907 19.7063 5.93334 19.5118 5.91745C19.3068 5.9007 19.0348 5.9 18.5999 5.9H5.39992C4.96503 5.9 4.69299 5.9007 4.48801 5.91745ZM3.89992 17.6V11.0001H20.0999V17.6C20.0999 18.0349 20.0992 18.3069 20.0825 18.5119C20.0666 18.7064 20.0408 18.76 20.0345 18.7724C19.977 18.8853 19.8852 18.9771 19.7723 19.0346C19.7599 19.0409 19.7063 19.0667 19.5118 19.0826C19.3068 19.0993 19.0348 19.1 18.5999 19.1H5.39992C4.96503 19.1 4.69299 19.0993 4.48801 19.0826C4.29354 19.0667 4.23993 19.0409 4.22752 19.0346C4.11462 18.9771 4.02284 18.8853 3.96531 18.7724C3.95899 18.76 3.93325 18.7064 3.91736 18.5119C3.90062 18.3069 3.89992 18.0349 3.89992 17.6Z" fill="currentColor"/>
</svg>
