<svg width="24" height="24" viewBox="0 0 24 24" fill="none" xmlns="http://www.w3.org/2000/svg">
<path fill-rule="evenodd" clip-rule="evenodd" d="M12.0002 22.1854C17.6253 22.1854 22.1852 17.6256 22.1852 12.0004C22.1852 6.37531 17.6253 1.81543 12.0002 1.81543C6.37506 1.81543 1.81519 6.37531 1.81519 12.0004C1.81519 17.6256 6.37506 22.1854 12.0002 22.1854ZM17.1031 7.44951C17.1822 7.266 17.1583 7.07602 17.0415 6.95915C16.9246 6.84228 16.7346 6.81841 16.5511 6.89749L10.0455 9.69911C9.89282 9.76475 9.76451 9.89331 9.69886 10.0457L6.89724 16.5514C6.86268 16.6317 6.84776 16.713 6.85149 16.7888C6.85646 16.8868 6.89301 16.9758 6.95891 17.0417C7.07578 17.1588 7.26575 17.1827 7.44926 17.1036L13.9549 14.302C14.1076 14.2361 14.2359 14.1078 14.3015 13.9551L17.1031 7.44951ZM10.5597 10.5602C9.76426 11.3557 9.76426 12.6454 10.5597 13.4409C11.3552 14.2364 12.6452 14.2364 13.4407 13.4409C14.2361 12.6454 14.2361 11.3557 13.4407 10.5602C12.6452 9.76475 11.3552 9.76475 10.5597 10.5602Z" fill="currentColor"/>
</svg>
