<svg width="24" height="24" viewBox="0 0 24 24" fill="none" xmlns="http://www.w3.org/2000/svg">
<path fill-rule="evenodd" clip-rule="evenodd" d="M11.6368 6.13991C11.9883 5.78844 11.9883 5.21859 11.6368 4.86712C11.2853 4.51565 10.7155 4.51565 10.364 4.86712L3.86401 11.3671C3.69522 11.5359 3.6004 11.7648 3.6004 12.0035C3.6004 12.2422 3.69522 12.4711 3.86401 12.6399L10.364 19.1399C10.7155 19.4914 11.2853 19.4914 11.6368 19.1399C11.9883 18.7884 11.9883 18.2186 11.6368 17.8671L5.7732 12.0035L11.6368 6.13991ZM19.637 6.13991C19.9885 5.78844 19.9885 5.21859 19.637 4.86712C19.2855 4.51565 18.7157 4.51565 18.3642 4.86712L11.8642 11.3671C11.6954 11.5359 11.6006 11.7648 11.6006 12.0035C11.6006 12.2422 11.6954 12.4711 11.8642 12.6399L18.3642 19.1399C18.7157 19.4914 19.2855 19.4914 19.637 19.1399C19.9885 18.7884 19.9885 18.2186 19.637 17.8671L13.7734 12.0035L19.637 6.13991Z" fill="currentColor"/>
</svg>
