<svg width="24" height="24" viewBox="0 0 24 24" fill="none" xmlns="http://www.w3.org/2000/svg">
<path fill-rule="evenodd" clip-rule="evenodd" d="M21.4195 4.91748C21.9272 4.4098 21.9272 3.58668 21.4195 3.079C20.9119 2.57132 20.0887 2.57132 19.5811 3.079L11.5811 11.079C11.0734 11.5867 11.0734 12.4098 11.5811 12.9175L19.5811 20.9175C20.0887 21.4252 20.9119 21.4252 21.4195 20.9175C21.9272 20.4098 21.9272 19.5867 21.4195 19.079L14.3388 11.9982L21.4195 4.91748ZM11.9195 4.91768C12.4272 4.40999 12.4272 3.58688 11.9195 3.0792C11.4119 2.57152 10.5888 2.57152 10.0811 3.0792L2.08108 11.0792C1.5734 11.5869 1.5734 12.41 2.08108 12.9177L10.0811 20.9177C10.5888 21.4254 11.4119 21.4254 11.9195 20.9177C12.4272 20.41 12.4272 19.5869 11.9195 19.0792L4.83879 11.9984L11.9195 4.91768Z" fill="currentColor"/>
</svg>
