<svg width="24" height="24" viewBox="0 0 24 24" fill="none" xmlns="http://www.w3.org/2000/svg">
<path fill-rule="evenodd" clip-rule="evenodd" d="M9.61127 2.3501H14.3892C15.4763 2.35009 16.3469 2.35008 17.0507 2.40758C17.7734 2.46663 18.3989 2.59076 18.9748 2.88417C19.8968 3.35395 20.6464 4.10355 21.1162 5.02554C21.4096 5.60139 21.5337 6.22695 21.5927 6.94962C21.6502 7.65339 21.6502 8.52407 21.6502 9.61115V14.3891C21.6502 15.4761 21.6502 16.3468 21.5927 17.0506C21.5337 17.7732 21.4096 18.3988 21.1162 18.9747C20.6464 19.8966 19.8968 20.6462 18.9748 21.116C18.3989 21.4094 17.7734 21.5336 17.0507 21.5926C16.3469 21.6501 15.4763 21.6501 14.3892 21.6501H9.61127C8.52419 21.6501 7.65351 21.6501 6.94974 21.5926C6.22707 21.5336 5.60151 21.4094 5.02567 21.116C4.10367 20.6462 3.35407 19.8966 2.88429 18.9747C2.59088 18.3988 2.46675 17.7732 2.40771 17.0506C2.3502 16.3468 2.35021 15.4761 2.35022 14.389V9.61115C2.35021 8.52407 2.3502 7.65339 2.40771 6.94962C2.46675 6.22695 2.59088 5.60139 2.88429 5.02554C3.35407 4.10355 4.10367 3.35395 5.02567 2.88417C5.60151 2.59076 6.22707 2.46663 6.94974 2.40758C7.65352 2.35008 8.52419 2.35009 9.61127 2.3501ZM12.9002 7.1001V11.1001H16.9002V12.9001H12.9002V16.9001H11.1002V12.9001H7.10022V11.1001H11.1002V7.1001H12.9002Z" fill="currentColor"/>
</svg>
