<svg width="24" height="24" viewBox="0 0 24 24" fill="none" xmlns="http://www.w3.org/2000/svg">
<path fill-rule="evenodd" clip-rule="evenodd" d="M9.12211 7.27788C9.12211 5.68852 10.4105 4.4001 11.9999 4.4001C13.5892 4.4001 14.8777 5.68852 14.8777 7.27788C14.8777 8.86723 13.5892 10.1557 11.9999 10.1557C10.4105 10.1557 9.12211 8.86723 9.12211 7.27788ZM11.9999 2.6001C9.41642 2.6001 7.32211 4.69441 7.32211 7.27788C7.32211 9.86134 9.41642 11.9557 11.9999 11.9557C14.5833 11.9557 16.6777 9.86134 16.6777 7.27788C16.6777 4.69441 14.5833 2.6001 11.9999 2.6001ZM12 13.1011C14.9321 13.1011 17.8053 13.9227 20.3094 15.4424C20.5027 15.5595 20.7367 15.7012 20.933 15.9266C21.0989 16.1172 21.2349 16.3593 21.3112 16.6001C21.4018 16.8857 21.4009 17.176 21.4002 17.4189L21.4001 18.9304C21.4001 19.1847 21.4002 19.4268 21.3835 19.6308C21.3653 19.8532 21.3229 20.1083 21.193 20.3633C21.0109 20.7208 20.7202 21.0114 20.3627 21.1936C20.1077 21.3235 19.8526 21.3659 19.6302 21.3841C19.4262 21.4007 19.1842 21.4007 18.9299 21.4007H5.07034C4.81602 21.4007 4.57398 21.4007 4.37002 21.3841C4.14761 21.3659 3.8925 21.3235 3.63752 21.1936C3.28001 21.0114 2.98935 20.7208 2.80719 20.3633C2.67727 20.1083 2.63489 19.8532 2.61672 19.6308C2.60005 19.4268 2.60008 19.1848 2.6001 18.9304L2.59998 17.4187C2.59927 17.1758 2.59842 16.8855 2.68897 16.5999C2.76533 16.3591 2.90131 16.117 3.06724 15.9264C3.26351 15.701 3.49759 15.5593 3.69089 15.4422C6.19485 13.9227 9.06792 13.1011 12 13.1011ZM4.42223 17.1077C6.61026 15.7105 9.20914 14.9006 11.9999 14.9006C14.7908 14.9006 17.3898 15.7106 19.5779 17.1079C19.5817 17.1103 19.6001 17.1259 19.6001 17.1652V19.5002C19.6001 19.5555 19.5553 19.6002 19.5001 19.6002H4.50007C4.44484 19.6002 4.40007 19.5555 4.40007 19.5002V17.165C4.40007 17.1257 4.41841 17.1102 4.42223 17.1077Z" fill="currentColor"/>
<path fill-rule="evenodd" clip-rule="evenodd" d="M19.1004 10.1005V8.50049H20.9004V10.1005H22.5004V11.9005H20.9004V13.5005H19.1004V11.9005H17.5004V10.1005H19.1004Z" fill="currentColor"/>
</svg>
